<svg width="270" height="112" fill="none" xmlns="http://www.w3.org/2000/svg"><path d="M83.752 64.168h9.552L73.816 96.616V97h25.056l1.632-10.032h-.48c-2.496 6.864-5.712 9.168-9.312 9.168H80.296l19.44-32.448v-.384H75.304l-.24 8.64h.432c2.016-6.528 4.176-7.776 8.256-7.776zm31.036 7.2c-6.624 0-11.904 5.424-11.904 13.632 0 7.152 4.752 12.48 11.664 12.48 6.672 0 11.904-5.424 11.904-13.68 0-7.104-4.704-12.432-11.664-12.432zm0 25.44c-4.224 0-6.192-6.336-6.192-13.248 0-7.008 2.112-11.52 5.952-11.52 4.272 0 6.24 6.336 6.24 13.248 0 6.96-2.112 11.52-6 11.52zm51.847-2.544V79.096c0-5.04-2.064-7.728-6.384-7.728-3.6 0-6.672 2.688-8.449 4.896-.671-3.216-2.927-4.896-6.335-4.896-3.648 0-6.672 2.64-8.448 4.848l.192-4.848h-.192l-8.544 2.496v.192l3.168 1.824v18.384c0 1.872-.913 2.064-3.312 2.208V97h12v-.528c-2.4-.144-3.312-.336-3.312-2.208V76.6c1.536-1.2 3.552-2.016 5.472-2.016 2.784 0 3.984 1.536 3.984 5.04v14.64c0 1.872-.864 2.064-3.264 2.208V97h11.904v-.528c-2.4-.144-3.264-.336-3.264-2.208V76.6c1.488-1.2 3.552-2.016 5.472-2.016 2.736 0 3.984 1.536 3.984 5.04v14.64c0 1.872-.912 2.064-3.312 2.208V97h12v-.528c-2.4-.144-3.36-.336-3.36-2.208zm6.606-30.336v30.528c2.544 2.16 6.624 3.024 9.984 3.024 7.44 0 12.96-6.432 12.96-14.544 0-6.96-3.456-11.568-9.264-11.568-3.744 0-6.576 2.208-8.304 4.704V59.416h-.192l-8.353 2.496v.192l3.169 1.824zm10.128 32.832c-2.832 0-4.752-2.208-4.752-6.384V76.504c1.2-1.248 2.976-2.016 4.848-2.016 5.04 0 7.296 4.608 7.296 10.608 0 6.528-2.88 11.664-7.392 11.664zm34.249-17.808c0-5.28-2.976-7.584-8.64-7.584-4.848 0-9.168 2.304-9.168 5.952 0 1.44.912 2.592 2.016 2.88l3.216-.432c-.336-.912-.432-1.968-.432-2.928 0-2.736 1.152-4.752 3.648-4.752 2.88 0 3.984 2.4 3.984 5.664v4.224l-6.816 2.4c-3.984 1.392-6.96 3.408-6.96 7.056 0 3.552 2.736 5.952 6.288 5.952 3.312 0 5.952-2.16 7.536-4.128.336 2.496 1.968 4.128 4.416 4.128 2.016 0 3.84-1.056 5.04-2.88l-.096-.192c-.528.288-1.152.432-1.824.432-1.392 0-2.208-.768-2.208-2.544V78.952zM207.874 94.6c-2.64 0-4.32-1.92-4.32-4.752 0-2.736 1.44-4.224 3.744-5.184l4.944-2.064v10.224c-1.344 1.344-2.88 1.776-4.368 1.776zm25.627-22.464c3.024 0 4.032 3.024 4.032 5.424 0 .864-.096 1.536-.192 2.16h3.072c.912-.528 1.68-1.776 1.68-3.168 0-3.264-3.072-5.184-7.536-5.184-6.768 0-12 5.952-12 13.728 0 7.008 4.128 12.384 10.56 12.384 4.896 0 8.4-3.216 9.456-7.776l-.192-.096c-1.584 2.592-3.888 4.032-6.96 4.032-4.848 0-8.112-4.272-8.112-11.52 0-5.568 2.496-9.984 6.192-9.984zm18.875-12.72h-.192l-8.352 2.496v.192L247 63.928v30.336c0 1.872-.912 2.064-3.312 2.208V97h12v-.528c-2.4-.144-3.312-.336-3.312-2.208V59.416zm.576 24.144L263.608 97h6.384v-.192l-12.816-16.08 6-5.664c2.016-1.872 3.84-2.544 5.616-2.736v-.48h-10.08v.48c2.208.192 3.648.48 3.648 1.44 0 .72-.624 1.296-1.344 2.064l-8.064 7.728zM21.4 28.888H9.976l5.616-15.216L21.4 28.888zM10.648 42.472c-3.168-.096-4.56-.72-4.56-2.208 0-.48.144-1.104.384-1.824l3.216-8.688h12l3.36 8.736c.288.72.48 1.392.48 1.92 0 1.344-1.104 1.968-4.032 2.064V43h13.728v-.528c-1.584-.096-2.88-.528-3.408-1.824L19.672 8.968h-5.904l1.296 3.36L4.6 40.168c-.624 1.824-2.016 2.112-3.84 2.304V43h9.888v-.528zm44.688-17.52c0-5.28-2.976-7.584-8.64-7.584-4.848 0-9.168 2.304-9.168 5.952 0 1.44.912 2.592 2.016 2.88l3.216-.432c-.336-.912-.432-1.968-.432-2.928 0-2.736 1.152-4.752 3.648-4.752 2.88 0 3.984 2.4 3.984 5.664v4.224l-6.816 2.4c-3.984 1.392-6.96 3.408-6.96 7.056 0 3.552 2.736 5.952 6.288 5.952 3.312 0 5.952-2.16 7.536-4.128.336 2.496 1.968 4.128 4.416 4.128 2.016 0 3.84-1.056 5.04-2.88l-.096-.192c-.528.288-1.152.432-1.824.432-1.392 0-2.208-.768-2.208-2.544V24.952zM45.592 40.6c-2.64 0-4.32-1.92-4.32-4.752 0-2.736 1.44-4.224 3.744-5.184L49.96 28.6v10.224c-1.344 1.344-2.88 1.776-4.368 1.776zm23.036-15.888l.192-7.344h-.192l-8.544 2.496v.192l3.168 1.824v18.384c0 1.872-.912 2.064-3.312 2.208V43h13.056v-.528c-3.168-.288-4.368-.384-4.368-2.256V25.144c2.064-2.304 4.752-2.64 7.728-2.64h.768v-4.512c-.336-.336-1.056-.624-1.92-.624-2.88 0-4.608 2.688-6.576 7.344zm21.55-7.344c-6.623 0-11.903 5.424-11.903 13.632 0 7.152 4.752 12.48 11.664 12.48 6.672 0 11.904-5.424 11.904-13.68 0-7.104-4.704-12.432-11.664-12.432zm0 25.44c-4.223 0-6.191-6.336-6.191-13.248 0-7.008 2.112-11.52 5.952-11.52 4.272 0 6.24 6.336 6.24 13.248 0 6.96-2.112 11.52-6 11.52zm32.311-2.544c0 1.872-.912 2.064-3.312 2.208V43h12v-.528c-2.4-.144-3.312-.336-3.312-2.208V25.096c0-5.04-2.16-7.728-6.624-7.728-3.792 0-6.96 2.64-8.832 4.848l.192-4.848h-.192l-8.544 2.496v.192l3.168 1.824v18.384c0 1.872-.912 2.064-3.312 2.208V43h12.048v-.528c-2.4-.144-3.36-.336-3.36-2.208V22.6c1.632-1.2 3.792-2.016 5.856-2.016 2.928 0 4.224 1.536 4.224 5.04v14.64z" fill="#000"/></svg>