<svg width="171" height="68" fill="none" xmlns="http://www.w3.org/2000/svg"><path d="M17.453 23.156a9.98 9.98 0 01-.812 2.907 7.534 7.534 0 01-1.594 2.265 6.966 6.966 0 01-2.313 1.469c-.885.344-1.875.515-2.968.515-.938 0-1.792-.13-2.563-.39a7.32 7.32 0 01-2.047-1.11 7.55 7.55 0 01-1.547-1.656 10.592 10.592 0 01-1.078-2.078 13.328 13.328 0 01-.64-2.36 16.641 16.641 0 01-.22-2.5v-3.171c.011-.844.084-1.677.22-2.5.145-.823.359-1.61.64-2.36a10.63 10.63 0 011.078-2.078 7.403 7.403 0 011.547-1.671 7.023 7.023 0 012.047-1.094c.76-.271 1.615-.407 2.563-.407 1.135 0 2.15.178 3.046.532a6.538 6.538 0 012.313 1.484 7.138 7.138 0 011.547 2.297c.396.896.656 1.885.781 2.969h-2.89a8.51 8.51 0 00-.485-1.922 5.29 5.29 0 00-.922-1.563 3.98 3.98 0 00-1.422-1.046c-.552-.26-1.208-.391-1.968-.391-.688 0-1.297.114-1.829.344-.52.218-.973.52-1.359.906a5.487 5.487 0 00-.953 1.344 9.17 9.17 0 00-.61 1.625 12.32 12.32 0 00-.343 1.765 16.57 16.57 0 00-.094 1.735v3.203c0 .562.031 1.146.094 1.75.073.593.187 1.182.344 1.765a9.17 9.17 0 00.609 1.625c.25.51.568.964.953 1.36.386.385.839.692 1.36.922.52.218 1.13.328 1.828.328.76 0 1.416-.12 1.968-.36a3.993 3.993 0 001.422-1 5.12 5.12 0 00.922-1.53 8.51 8.51 0 00.485-1.923h2.89zM22.391 6h8.64v21.5h5.516V30H22.39v-2.5h5.75V8.516h-5.75V6zm29.875 24a3.35 3.35 0 01-.282-.813 10.785 10.785 0 01-.14-1.03c-.292.29-.62.567-.985.827-.354.26-.75.49-1.187.688a7.121 7.121 0 01-1.375.469 6.84 6.84 0 01-1.563.172c-.895 0-1.708-.13-2.437-.391a5.883 5.883 0 01-1.844-1.047c-.5-.448-.89-.974-1.172-1.578a4.866 4.866 0 01-.406-1.985c0-.927.182-1.74.547-2.437A4.837 4.837 0 0143 21.141c.677-.47 1.49-.818 2.438-1.047.958-.23 2.026-.344 3.203-.344h3.156v-1.328c0-.51-.094-.969-.281-1.375a2.868 2.868 0 00-.797-1.031 3.58 3.58 0 00-1.266-.672 5.435 5.435 0 00-1.656-.235c-.573 0-1.089.073-1.547.22a3.786 3.786 0 00-1.14.577 2.63 2.63 0 00-.735.86 2.18 2.18 0 00-.25 1.015h-2.906a4.11 4.11 0 01.468-1.812 5.172 5.172 0 011.329-1.594c.583-.48 1.286-.865 2.109-1.156.833-.292 1.776-.438 2.828-.438.958 0 1.85.12 2.672.36.823.229 1.531.583 2.125 1.062a4.918 4.918 0 011.422 1.766c.344.708.516 1.536.516 2.484v7.86c0 .562.052 1.161.156 1.796.104.625.25 1.172.437 1.641V30h-3.015zm-5.11-2.203c.563 0 1.089-.073 1.578-.219.49-.146.933-.338 1.328-.578.407-.24.756-.51 1.047-.813.292-.312.521-.635.688-.968v-3.422h-2.688c-1.687 0-3 .25-3.937.75-.938.5-1.406 1.286-1.406 2.36 0 .416.067.801.203 1.155.146.355.36.662.64.922.282.25.636.448 1.063.594.427.146.922.219 1.484.219zM71.453 12.78c.271 0 .552.01.844.031.291.01.568.037.828.079.27.03.516.072.734.125.23.052.417.109.563.171l-.39 2.829a13.974 13.974 0 00-1.61-.266 12.63 12.63 0 00-1.578-.094c-1.354 0-2.453.307-3.297.922-.834.615-1.448 1.474-1.844 2.578V30h-2.906V13.094h2.75l.14 2.687a7.71 7.71 0 012.47-2.187c.968-.542 2.067-.813 3.296-.813zM90.703 30a3.35 3.35 0 01-.281-.813c-.063-.333-.11-.677-.14-1.03-.292.29-.62.567-.985.827-.354.26-.75.49-1.188.688a7.121 7.121 0 01-1.375.469 6.84 6.84 0 01-1.562.172c-.896 0-1.709-.13-2.438-.391a5.877 5.877 0 01-1.843-1.047 4.841 4.841 0 01-1.172-1.578 4.865 4.865 0 01-.406-1.985c0-.927.182-1.74.546-2.437a4.837 4.837 0 011.579-1.734c.677-.47 1.49-.818 2.437-1.047.958-.23 2.026-.344 3.203-.344h3.156v-1.328c0-.51-.093-.969-.28-1.375a2.867 2.867 0 00-.798-1.031 3.579 3.579 0 00-1.265-.672 5.435 5.435 0 00-1.657-.235 5.05 5.05 0 00-1.546.22 3.786 3.786 0 00-1.141.577 2.63 2.63 0 00-.734.86 2.18 2.18 0 00-.25 1.015h-2.907c.01-.614.167-1.218.469-1.812a5.172 5.172 0 011.328-1.594c.584-.48 1.287-.865 2.11-1.156.833-.292 1.775-.438 2.828-.438.958 0 1.849.12 2.671.36.823.229 1.532.583 2.126 1.062a4.918 4.918 0 011.421 1.766c.344.708.516 1.536.516 2.484v7.86c0 .562.052 1.161.156 1.796a7.95 7.95 0 00.438 1.641V30h-3.016zm-5.11-2.203c.563 0 1.09-.073 1.579-.219.49-.146.932-.338 1.328-.578.406-.24.755-.51 1.047-.813.291-.312.52-.635.687-.968v-3.422h-2.687c-1.688 0-3 .25-3.938.75-.937.5-1.406 1.286-1.406 2.36 0 .416.068.801.203 1.155.146.355.36.662.64.922.282.25.636.448 1.063.594.428.146.922.219 1.485.219zm14.391 29.75h11.125V60H97.094V37.25h2.89v20.297zm23.422 2.766c-1.187 0-2.281-.204-3.281-.61A7.437 7.437 0 01117.578 58a7.799 7.799 0 01-1.656-2.594c-.396-1-.594-2.088-.594-3.265v-.657c0-1.364.219-2.583.656-3.656.438-1.083 1.016-1.995 1.735-2.734a7.651 7.651 0 012.469-1.719 7.173 7.173 0 012.843-.594c1.219 0 2.281.214 3.188.64.916.418 1.677 1 2.281 1.75.604.74 1.052 1.615 1.344 2.626.302 1.01.453 2.104.453 3.281v1.297h-12.078c.031.77.177 1.495.437 2.172a5.96 5.96 0 001.094 1.781 5.14 5.14 0 003.812 1.625c1.032 0 1.948-.208 2.75-.625a5.953 5.953 0 002-1.656l1.766 1.375a6.76 6.76 0 01-1.062 1.234c-.417.386-.901.73-1.454 1.032a7.981 7.981 0 01-1.874.718 8.775 8.775 0 01-2.282.282zm-.375-15.157c-.583 0-1.135.11-1.656.328a4.16 4.16 0 00-1.406.938 5.321 5.321 0 00-1.063 1.516c-.281.593-.479 1.28-.594 2.062h9.094v-.219a6.229 6.229 0 00-.328-1.672 4.542 4.542 0 00-.797-1.484 4.006 4.006 0 00-1.343-1.063c-.532-.27-1.167-.406-1.907-.406zM146.266 60a3.336 3.336 0 01-.282-.813 10.773 10.773 0 01-.14-1.03c-.292.29-.62.567-.985.827-.354.26-.75.49-1.187.688a7.133 7.133 0 01-1.375.469 6.848 6.848 0 01-1.563.172c-.895 0-1.708-.13-2.437-.391a5.88 5.88 0 01-1.844-1.047 4.84 4.84 0 01-1.172-1.578 4.863 4.863 0 01-.406-1.984c0-.928.182-1.74.547-2.438A4.838 4.838 0 01137 51.141c.677-.47 1.49-.818 2.438-1.047.958-.23 2.026-.344 3.203-.344h3.156v-1.328c0-.51-.094-.969-.281-1.375a2.882 2.882 0 00-.797-1.031 3.584 3.584 0 00-1.266-.672 5.434 5.434 0 00-1.656-.235 5.09 5.09 0 00-1.547.22 3.793 3.793 0 00-1.141.577c-.312.24-.557.526-.734.86a2.18 2.18 0 00-.25 1.015h-2.906c.01-.614.166-1.218.469-1.812a5.163 5.163 0 011.328-1.594c.583-.48 1.286-.865 2.109-1.156.833-.292 1.776-.438 2.828-.438.958 0 1.849.12 2.672.36.823.229 1.531.583 2.125 1.062a4.922 4.922 0 011.422 1.766c.344.708.516 1.536.516 2.484v7.86c0 .562.052 1.161.156 1.796.104.625.25 1.172.437 1.641V60h-3.015zm-5.11-2.203c.563 0 1.089-.073 1.578-.219.49-.146.933-.338 1.328-.578.407-.24.756-.51 1.047-.813.292-.312.521-.635.688-.968v-3.422h-2.688c-1.687 0-3 .25-3.937.75-.938.5-1.406 1.286-1.406 2.36 0 .416.067.801.203 1.156.146.354.359.661.64.921.282.25.636.448 1.063.594.427.146.922.219 1.484.219zm20.422.172c.521 0 1.026-.084 1.516-.25a4.59 4.59 0 001.328-.688 3.64 3.64 0 00.922-1.047c.239-.406.364-.843.375-1.312h2.734a4.469 4.469 0 01-.594 2.156 6.202 6.202 0 01-1.515 1.797 8.008 8.008 0 01-2.188 1.234 7.42 7.42 0 01-2.578.453c-1.281 0-2.401-.229-3.359-.687a7.07 7.07 0 01-2.407-1.844 8.149 8.149 0 01-1.437-2.687 10.607 10.607 0 01-.484-3.219v-.656c0-1.115.161-2.183.484-3.203a7.95 7.95 0 011.437-2.688 6.983 6.983 0 012.407-1.86c.958-.458 2.078-.687 3.359-.687 1 0 1.917.162 2.75.485a6.546 6.546 0 012.172 1.297 5.742 5.742 0 011.953 4.343h-2.734a3.399 3.399 0 00-.344-1.437 3.8 3.8 0 00-.859-1.203 3.993 3.993 0 00-1.313-.813 4.377 4.377 0 00-1.625-.297c-.896 0-1.651.183-2.266.547a4.313 4.313 0 00-1.468 1.406 5.972 5.972 0 00-.813 1.938 10.21 10.21 0 00-.234 2.172v.656c0 .74.078 1.474.234 2.203.167.719.433 1.37.797 1.953a4.52 4.52 0 001.469 1.407c.614.354 1.375.53 2.281.53z" fill="#000"/></svg>