<svg width="1080" height="490" fill="none" xmlns="http://www.w3.org/2000/svg"><path fill="#fff" d="M0 0h1080v490H0z"/><path d="M433.218 290.792V240.42h-9.016v49.392c0 9.506-5.39 12.936-11.466 12.936s-11.564-3.822-11.564-11.368h-9.016c0 12.838 9.31 19.796 20.678 19.796 10.682 0 20.384-5.782 20.384-20.384zm26.209-48.902c0-3.234-2.548-5.978-5.88-5.978s-6.076 2.744-6.076 5.978c0 3.332 2.744 5.978 6.076 5.978 3.332 0 5.88-2.646 5.88-5.978zM449.235 310h8.428v-49h-8.428v49zm70.072-2.842V261h-8.428v7.546c-3.332-4.9-9.8-8.526-17.052-8.526-13.622 0-24.01 10.976-24.01 24.892 0 14.014 10.388 24.99 24.01 24.99 7.252 0 13.72-3.724 17.052-8.624v5.586c0 11.76-8.036 16.954-16.366 16.954-7.546 0-13.23-3.234-17.15-8.232l-5.88 5.88c4.214 5.488 12.446 9.996 23.03 9.996 14.014 0 24.794-7.938 24.794-24.304zm-40.866-22.246c0-9.8 6.762-17.15 16.562-17.15s16.562 7.35 16.562 17.15c0 9.898-6.762 17.15-16.562 17.15s-16.562-7.252-16.562-17.15zm88.585 11.368c0-7.448-4.9-11.858-13.328-14.406l-5.39-1.666c-5.39-1.666-6.958-4.116-6.958-7.056 0-3.626 4.018-5.88 8.134-5.88 4.704 0 8.036 2.45 10.192 5.586l6.272-4.312c-3.234-5.488-8.918-8.526-16.17-8.526-9.408 0-16.758 4.998-16.856 13.426 0 6.86 4.214 11.956 12.25 14.308l4.9 1.568c6.37 1.96 8.526 4.116 8.526 7.644 0 4.214-3.822 6.566-8.526 6.566-5.39 0-10.682-2.744-12.446-7.742l-6.86 3.822c2.94 7.644 10.486 11.368 19.208 11.368 9.8 0 17.052-5.292 17.052-14.7zm8.447-10.78c0 14.014 10.29 25.48 24.01 25.48 7.35 0 14.014-3.822 17.248-8.526V310h8.428v-49h-8.428v7.546c-3.234-4.704-9.898-8.526-17.248-8.526-13.72 0-24.01 11.466-24.01 25.48zm41.944 0c0 9.898-6.762 17.738-16.66 17.738s-16.758-7.84-16.758-17.738 6.86-17.738 16.758-17.738 16.66 7.84 16.66 17.738zm65.159 24.5h7.448l16.66-49h-8.918l-11.858 35.77-12.25-35.77h-6.468l-12.25 35.77L643.082 261h-8.82l16.66 49h7.448l12.152-35.28L682.576 310zm99.6-12.152l-7.35-4.116c-2.744 5.586-8.232 9.408-15.288 9.408-10.192 0-17.15-7.84-17.15-17.64s6.958-17.64 17.15-17.64c7.056 0 12.544 3.822 15.288 9.408l7.35-4.116c-4.312-7.84-12.544-13.132-22.638-13.132-14.798 0-25.676 11.27-25.676 25.48s10.878 25.48 25.676 25.48c10.094 0 18.326-5.292 22.638-13.132zM840.43 285.5c0-14.112-10.878-25.48-25.578-25.48-14.798 0-25.676 11.368-25.676 25.48s10.878 25.48 25.676 25.48c14.7 0 25.578-11.368 25.578-25.48zm-42.63 0c0-9.8 6.86-17.64 17.052-17.64s16.954 7.84 16.954 17.64-6.762 17.64-16.954 17.64S797.8 295.3 797.8 285.5z" fill="#6167EA"/><path d="M404 473.66h38v-38h-38v38z"/><mask id="a" maskUnits="userSpaceOnUse" x="197.257" y="167" width="194" height="170" fill="#000"><path fill="#fff" d="M197.257 167h194v170h-194z"/><path d="M388.102 267.275l-.004.004c0 1.48-1.179 1.451-2.253.938-1.778-.85-3.168-.98-5.093-.507-2.197.539-3.976 2.205-3.383 4.628.557 2.282 3.787 3.861-.195 5.874-1.82.921-4.466 1.047-6.099-.309-2.336-1.94.791-3.75.906-6.252.112-2.431-1.507-4.074-3.946-4.051-3.804.035-6.534 3.842-7.521-.535-.263-1.165-.344-3.014.281-4.076.717-1.22 3.749.695 5.574.86 8.733.788 6.777-13.853-.306-11.402-.936.324-4.173 1.635-4.63.713-.831-1.679-.774-4.547-.081-6.263.721-1.782 1.956-.995 3.524-.407 1.136.427 2.001.751 3.972.601 6.784-.518 2.838-5.856 2.796-7.898-.067-3.211 6.925-4.288 7.617.15.154.99-.609 1.905-1.139 2.968-2.104 4.224 1.758 5.262 5.044 5.108 2.152-.1 5.004-1.716 4.997.292l-.061 19.564zm-141.458 37.186c.409-.707-.666-1.331-1.075-.624l-5.577 9.681c-.41.708.666 1.332 1.075.624l5.577-9.681zm-38.583-31.216l-9.909 17.199c-.682 1.18 1.11 2.22 1.792 1.04l9.207-15.982c.856 1.402 2.363 3.074 4.396 4.901 7.879 7.085 21.667 15.794 31.446 19.857 2.627 1.092 4.856 1.741 6.51 1.875l-8.735 15.161c-.676 1.179 1.116 2.211 1.792 1.032l9.191-15.953c.789-1.37 1.383-1.966.494-3.714-.372-.732-1.006-1.594-1.866-2.555 4.313-5.751 8.595-10.399 12.588-14.732 6.973-7.568 13.075-14.191 17.081-24.169 1.425-3.55 2.389-7.295 3.364-11.088l.079-.307c.606.58.973 1.362 1.194 2.13.358 1.244.349 2.472.342 2.906-.109 6.401 14.091 8.711 14.723-2.13.186-3.188-1.108-7.111-3.169-10.605-1.835-3.111-4.3-5.917-6.888-7.592.55-.78 1.132-1.552 1.736-2.313 2.078 1.568 4.882 3.83 6.901 7.625 1.336 2.509 3.835 5.824 6.944 7.855 6.616 4.322 15.011.885 12.759-7.759-1.152-4.426-5.369-9.6-8.105-13.1-1.99-2.546-4.146-5.105-6.087-7.045a42.379 42.379 0 012.502-1.858c1.843 1.917 4.112 3.956 6.541 5.903 2.716 2.177 5.62 4.236 8.342 5.88 12.35 7.459 22.477-3.544 10.62-12.346-1.545-1.148-4.704-3.659-7.428-6.138-1.441-1.312-2.747-2.603-3.595-3.648 3.421-3.436 8.049-8.72 7.545-13.805-.054-.546-.196-.998.625-.419 1.521 1.073 1.314 3.872.591 5.393-1.201 2.523-.215 5.232 2.809 5.232v-.005l19.138.091c2.104 0 3.079-.652 3.461-1.676.723-1.934-2.003-6.118-.276-8.439.679-.913 1.732-.224 2.462.223 1.676 1.027 2.907 1.311 4.722.522 4.327-1.883 4.469-8.205.867-10.64-1.467-.992-3.165-.906-4.665-.041-1.892 1.091-3.319.778-3.496-1.561-.117-1.534.136-2.212.469-3.103.971-2.597 1.616-4.887-1.565-6.18-2.247-.912-5.751-.944-7.944.146-2.638 1.312-1.028 5.14-.327 7.175 1.706 4.951-10.262 4.629-6.052-2.532 4.641-7.895-12.028-7.325-10.803-1.891.42 1.86 1.603 3.812 1.621 5.741.018 1.945-2.058 2.39-3.213 1.431a7.536 7.536 0 00-.28-.222c-3.426-9.211-24.855-7.432-38.769-6.277-13.529 1.122-24.186 4.066-37.013 8.063-7.444 2.319-12.913 8.656-17.161 17.233-11.955 24.138-10.29 51.329-21.318 73.949-2.806-.94-5.274-.756-6.19 1.262zm3.438.227c.513.066 1.119.198 1.807.392a96.573 96.573 0 01-1.217 2.279c-.658-.69-1.15-1.274-1.451-1.73-.808-1.224-.143-1.069.861-.941zm40.072 24.89c.206.263.385.51.534.741.766 1.184.711 1.434-.791 1.141a11.093 11.093 0 01-.812-.193c-.85-.232-.898-.091-.44-.746.21-.3.42-.598.63-.893.487-.683.346-.728.879-.05zm-3.883.74a69.983 69.983 0 01-1.901-.759c-9.565-3.975-23.155-12.553-30.862-19.483a71.37 71.37 0 01-1.307-1.204c13.728-24.601 11.137-53.12 23.808-78.704 4.006-8.088 9.092-14.041 15.92-16.169 12.697-3.956 23.173-6.862 36.567-7.973 12.112-1.006 30.185-2.506 35.483 3.07a3.907 3.907 0 00-1.784.472 4.71 4.71 0 00-1.39 1.159c-.684.827-1.169 1.922-1.388 3.112-.171.922-.014.703-.87.83-2.6.388-5.223 1.386-7.645 2.554-1.688.814-1.34.771-3.216.796-5.349.074-10.514.996-15.636 2.252-3.391.832-11.848 2.957-15.9 4.636-1.575.652-.841.614-1.578-.956a8.568 8.568 0 00-1.683-2.372c-.959-.967-2.427.495-1.467 1.462a6.524 6.524 0 011.277 1.796c.736 1.566.474 1.707-.446 2.934-1.018 1.357-2.549 3.398-3.772 6.726a1.036 1.036 0 101.946.715c.986-2.684 2.252-4.634 3.985-6.818 1.57-1.979 14.407-5.192 17.995-6.125 1.286-.334 1.327-.471 2.62-.136 1.246.323 2.201.777 3.041 1.196 2.016 1.004 1.451 1.22-.078 2.345-2.372 1.745-5.47 3.822-9.495 6.344-1.883-.639-3.281-.864-4.768-.757-1.505.108-3.034.56-5.249 1.264a1.035 1.035 0 00.625 1.975c2.056-.655 3.468-1.073 4.77-1.167a7.875 7.875 0 012.226.163c-3.568 2.168-7.258 4.253-10.455 5.794a7.707 7.707 0 01-2.838.49c-2.112-.025-4.244-.834-6.02-2.068-2.015-1.399-4.238-3.911-4.208-6.532.011-1.363-2.056-1.379-2.067-.016-.039 3.349 2.489 6.442 5.099 8.254a14.398 14.398 0 002.48 1.384c2.229.966 2.636.924-.553 1.285-1.751.198-3.406-.001-5.532-.447-1.334-.278-1.755 1.753-.422 2.031 2.336.49 4.176.707 6.181.48 1.993-.226 4.093-.884 6.944-2.14 3.787-1.67 8.52-4.325 13.008-7.072 5.98-3.659 11.545-7.495 13.842-9.361 1.982-1.61 5.081-3.782 8.49-5.596 3.288-1.751 7.913-3.746 11.647-3.377 2.522.25 4.921 1.804 5.196 4.584.418 4.208-3.923 9.126-6.96 12.149-2.999 2.985-6.127 5.077-9.746 7.278-2.586 1.573-5.196 3.16-7.955 5.506l-.057.049-.077.066c-2.933 2.517-6.682 5.991-10.044 9.89-3.399 3.944-6.407 8.328-7.805 12.628-.68 2.089-1.259 4.227-1.815 6.363a583.461 583.461 0 00-.439 1.703c-.955 3.711-1.898 7.377-3.283 10.828-3.862 9.619-9.846 16.114-16.685 23.535-4.952 5.375-10.345 11.229-15.754 19.134zm107.169 31.648c.035-1.079 4.857-8.539-2.365-8.466-2.449.025-3.987 1.189-6.128 1.679-1.387.317-2.127-4.778-1.237-6.315.669-1.156 3.791.729 5.562.887 8.746.779 6.513-13.866-.531-11.402-.872.305-4.131 1.658-4.63.698-.863-1.665-.891-4.528-.231-6.263.679-1.783 1.946-.962 3.496-.387 2.976 1.105 8.311.959 7.977-3.377-.133-1.717-1.337-2.785-1.364-3.998-.077-3.586 7.483-3.586 7.405 0-.026 1.213-1.231 2.281-1.363 3.998-.38 4.923 4.052 4.639 8.664 3.129 1.426-.485 2.217-.918 2.808.635.661 1.735.633 4.598-.231 6.263-.427.822-2.76-.023-4.155-.528-7.884-2.857-9.601 11.998-1.005 11.232 1.77-.158 4.893-2.043 5.562-.887.889 1.537.149 6.632-1.237 6.315-2.142-.49-3.679-1.654-6.128-1.679-7.223-.073-2.4 7.387-2.366 8.466.12 3.731-8.623 3.731-8.503 0zm10.571-.065c-.049-1.519-3.833-6.37.282-6.329 1.908.02 3.848 1.209 5.689 1.63 3.767.861 5.12-6.55 3.484-9.378-1.956-3.377-4.77-.383-7.532-.137-5.254.468-4.173-8.903.477-7.218 2.035.737 5.439 1.97 6.702-.464 1.129-2.177 1.194-5.686.328-7.96-1.066-2.8-2.932-2.705-5.411-1.862-9.032 3.071-4.642-1.716-4.568-5.12.137-6.318-11.681-6.461-11.54 0 .04 1.821 1.25 2.637 1.363 4.112.193 2.503-3.899 1.754-5.196 1.272-2.646-.982-4.932-1.591-6.147 1.598-.865 2.274-.801 5.783.329 7.96 1.351 2.604 5.106 1.017 7.151.302 3.813-1.334 5.453 7.863.028 7.38-2.762-.246-5.577-3.24-7.532.137-1.637 2.827-.284 10.239 3.483 9.378 1.842-.421 3.782-1.61 5.69-1.63 4.114-.041.33 4.81.282 6.329-.212 6.593 12.85 6.593 12.638 0zm-63.312-139.524c-.358-.25-.737-.488-1.147-.716-1.234-.684-1.698-.522.192-.79 1.285-.183 2.647-.358 4.077-.515 2.217-.244 1.953-.335.254.806a60.11 60.11 0 00-1.814 1.268c-.97.706-.589.627-1.562-.053zm-11.576 41.077c2.316 1.483 4.561 4.053 6.257 6.929 1.87 3.169 3.047 6.667 2.885 9.435-.477 8.178-10.65 5.938-10.588 2.277.009-.515.018-1.974-.423-3.508-.403-1.399-1.169-2.841-2.616-3.733.478-1.811.986-3.632 1.579-5.458.64-1.967 1.655-3.969 2.906-5.942zm13.711-15.115c1.911 1.891 4.062 4.439 6.047 6.979 2.503 3.202 6.676 8.29 7.733 12.345 1.78 6.836-4.672 8.74-9.63 5.501-2.782-1.818-5.035-4.816-6.246-7.092-2.212-4.156-5.188-6.579-7.405-8.255l.284-.333c3.052-3.539 6.443-6.73 9.217-9.145zm17.071-12.108c.93 1.118 2.257 2.429 3.701 3.743 2.767 2.518 6.002 5.089 7.591 6.268 9.875 7.332 1.582 14.881-8.318 8.902-2.678-1.618-5.505-3.619-8.123-5.718-2.245-1.8-4.344-3.675-6.076-5.447.864-.551 1.721-1.072 2.576-1.592 2.853-1.734 5.679-3.453 8.649-6.156zm1.645-22.463c.178-.661.47-1.254.852-1.716.231-.28.491-.504.774-.656.263-.142.549-.223.851-.228.583-.01 1.266.254 2.026.885 2.485 2.063 6.637.698 6.602-3.047-.022-2.443-1.184-4.028-1.669-6.18-.344-1.524 9.559-3.056 7 1.298-6.357 10.815 12.866 11.833 9.79 2.905-.845-2.451-1.617-4-.479-4.738 1.281-.831 4.627-.547 6.017.018 1.815.737.916 2.167.406 3.531-.426 1.139-.749 2.005-.599 3.981.296 3.893 3.363 5.065 6.594 3.202.816-.471 1.665-.58 2.476-.032 2.252 1.522 2.293 5.789-.527 7.015-1.174.511-1.74.273-2.825-.391-1.735-1.063-3.725-1.674-5.202.313-2.666 3.584 1.649 9.277-1.52 9.278l-19.137-.09-.004-.004c-1.468 0-1.454-1.17-.936-2.259 1.586-3.333.463-9.36-3.895-8.541-1.166-2.113-3.483-3.375-5.82-3.718-.871-.128-1.042.165-.775-.826zm5.354 111.611c-1.293-1.043-1.096-2.44-.111-3.666 2.021-2.517.533-6.64-3.164-6.602-1.107.011-2.261.334-3.359.712-2.624.904-3.452 2.032-4.237-1.415-.255-1.119-.364-2.906.23-3.933.67-1.156 3.792.729 5.562.886 7.892.704 6.845-11.151 1.39-11.664-1.745-.164-5.951 2.114-6.55.961-.864-1.665-.892-4.528-.231-6.263.813-2.136 4.793.414 7.477.206 3.921-.304 4.985-3.42 3.068-6.626-.293-.489-.427-.939-.436-1.342-.078-3.586 7.483-3.586 7.405 0-.009.403-.143.853-.436 1.342-1.917 3.206-.853 6.322 3.069 6.626 2.112.164 2.825-.214 4.668-.841 1.426-.485 2.217-.918 2.808.635.332.871.499 2.073.451 3.285-.164 4.168-1.403 3.693-4.837 2.45-7.894-2.857-9.603 11.998-1.005 11.231 1.77-.157 4.892-2.042 5.562-.886.889 1.536.149 6.631-1.238 6.314-2.141-.489-3.679-1.653-6.128-1.678-3.697-.038-5.185 4.085-3.164 6.602.985 1.226 1.182 2.623-.111 3.666-1.699 1.369-4.984 1.369-6.683 0zm-1.297 1.617c2.47 1.991 6.807 1.991 9.277 0 2.19-1.766 2.14-4.45.428-6.583-.949-1.181-.384-3.25 1.534-3.23 1.908.019 3.848 1.208 5.69 1.629 3.767.862 5.12-6.55 3.484-9.377-1.956-3.378-4.771-.383-7.533-.137-5.251.468-4.187-8.907.478-7.218 4.948 1.792 7.391 1.272 7.611-4.318.058-1.49-.157-2.993-.581-4.106-1.066-2.8-2.932-2.705-5.411-1.862-1.492.507-2.127.869-3.849.735-2.352-.182-2.559-1.631-1.447-3.49.486-.813.711-1.61.727-2.365.139-6.408-11.679-6.408-11.539 0 .016.755.241 1.552.727 2.365 1.112 1.859.905 3.308-1.446 3.49-2.591.201-5.065-1.688-7.087-1.166-1.008.26-1.669.966-2.174 2.293-.866 2.274-.801 5.783.329 7.96 1.791 3.452 6.414-.232 8.341.221 2.901.682 3.656 7.89-1.162 7.461-2.762-.246-5.577-3.241-7.532.137-.882 1.522-.838 3.757-.458 5.428 1.119 4.912 3.163 4.224 6.929 2.926.937-.323 1.895-.598 2.702-.606 1.918-.02 2.483 2.049 1.534 3.23-1.712 2.132-1.762 4.818.428 6.583zm63.233-48.051c.008-1.854-.708-2.737-1.669-3.098-1.221-.458-4.047.638-5.464.785-2.02.209-4.344-.064-3.049-2.512.561-1.06 1.529-1.956 1.229-3.878-1.082-6.935-11.849-5.609-11.728.208.046 2.173 3.31 5.465-.882 5.785-1.531.117-2.207-.137-3.097-.471-2.663-.999-4.887-1.594-6.166 1.569-.911 2.252-.943 5.763.145 7.961 1.309 2.643 5.13 1.03 7.16.328 3.858-1.336 5.225 7.868-.189 7.379-2.78-.251-5.525-3.264-7.536.156-.917 1.56-.905 3.857-.516 5.579 1.547 6.86 5.548 2.189 9.557 2.152 1.245-.012 1.919.652 1.862 1.89-.093 2.01-2.888 3.232-1.367 6.413 2.002 4.189 9.313 3.719 11.873.221.626-.855.928-1.857.708-2.969-.31-1.569-1.453-2.168-1.749-3.377-.303-1.241.821-1.87 1.86-2.125 1.461-.359 2.369-.274 3.714.369 2.478 1.184 5.198.247 5.211-2.509l.093-19.856z"/></mask><path d="M388.102 267.275l-.004.004c0 1.48-1.179 1.451-2.253.938-1.778-.85-3.168-.98-5.093-.507-2.197.539-3.976 2.205-3.383 4.628.557 2.282 3.787 3.861-.195 5.874-1.82.921-4.466 1.047-6.099-.309-2.336-1.94.791-3.75.906-6.252.112-2.431-1.507-4.074-3.946-4.051-3.804.035-6.534 3.842-7.521-.535-.263-1.165-.344-3.014.281-4.076.717-1.22 3.749.695 5.574.86 8.733.788 6.777-13.853-.306-11.402-.936.324-4.173 1.635-4.63.713-.831-1.679-.774-4.547-.081-6.263.721-1.782 1.956-.995 3.524-.407 1.136.427 2.001.751 3.972.601 6.784-.518 2.838-5.856 2.796-7.898-.067-3.211 6.925-4.288 7.617.15.154.99-.609 1.905-1.139 2.968-2.104 4.224 1.758 5.262 5.044 5.108 2.152-.1 5.004-1.716 4.997.292l-.061 19.564zm-141.458 37.186c.409-.707-.666-1.331-1.075-.624l-5.577 9.681c-.41.708.666 1.332 1.075.624l5.577-9.681zm-38.583-31.216l-9.909 17.199c-.682 1.18 1.11 2.22 1.792 1.04l9.207-15.982c.856 1.402 2.363 3.074 4.396 4.901 7.879 7.085 21.667 15.794 31.446 19.857 2.627 1.092 4.856 1.741 6.51 1.875l-8.735 15.161c-.676 1.179 1.116 2.211 1.792 1.032l9.191-15.953c.789-1.37 1.383-1.966.494-3.714-.372-.732-1.006-1.594-1.866-2.555 4.313-5.751 8.595-10.399 12.588-14.732 6.973-7.568 13.075-14.191 17.081-24.169 1.425-3.55 2.389-7.295 3.364-11.088l.079-.307c.606.58.973 1.362 1.194 2.13.358 1.244.349 2.472.342 2.906-.109 6.401 14.091 8.711 14.723-2.13.186-3.188-1.108-7.111-3.169-10.605-1.835-3.111-4.3-5.917-6.888-7.592.55-.78 1.132-1.552 1.736-2.313 2.078 1.568 4.882 3.83 6.901 7.625 1.336 2.509 3.835 5.824 6.944 7.855 6.616 4.322 15.011.885 12.759-7.759-1.152-4.426-5.369-9.6-8.105-13.1-1.99-2.546-4.146-5.105-6.087-7.045a42.379 42.379 0 012.502-1.858c1.843 1.917 4.112 3.956 6.541 5.903 2.716 2.177 5.62 4.236 8.342 5.88 12.35 7.459 22.477-3.544 10.62-12.346-1.545-1.148-4.704-3.659-7.428-6.138-1.441-1.312-2.747-2.603-3.595-3.648 3.421-3.436 8.049-8.72 7.545-13.805-.054-.546-.196-.998.625-.419 1.521 1.073 1.314 3.872.591 5.393-1.201 2.523-.215 5.232 2.809 5.232v-.005l19.138.091c2.104 0 3.079-.652 3.461-1.676.723-1.934-2.003-6.118-.276-8.439.679-.913 1.732-.224 2.462.223 1.676 1.027 2.907 1.311 4.722.522 4.327-1.883 4.469-8.205.867-10.64-1.467-.992-3.165-.906-4.665-.041-1.892 1.091-3.319.778-3.496-1.561-.117-1.534.136-2.212.469-3.103.971-2.597 1.616-4.887-1.565-6.18-2.247-.912-5.751-.944-7.944.146-2.638 1.312-1.028 5.14-.327 7.175 1.706 4.951-10.262 4.629-6.052-2.532 4.641-7.895-12.028-7.325-10.803-1.891.42 1.86 1.603 3.812 1.621 5.741.018 1.945-2.058 2.39-3.213 1.431a7.536 7.536 0 00-.28-.222c-3.426-9.211-24.855-7.432-38.769-6.277-13.529 1.122-24.186 4.066-37.013 8.063-7.444 2.319-12.913 8.656-17.161 17.233-11.955 24.138-10.29 51.329-21.318 73.949-2.806-.94-5.274-.756-6.19 1.262zm3.438.227c.513.066 1.119.198 1.807.392a96.573 96.573 0 01-1.217 2.279c-.658-.69-1.15-1.274-1.451-1.73-.808-1.224-.143-1.069.861-.941zm40.072 24.89c.206.263.385.51.534.741.766 1.184.711 1.434-.791 1.141a11.093 11.093 0 01-.812-.193c-.85-.232-.898-.091-.44-.746.21-.3.42-.598.63-.893.487-.683.346-.728.879-.05zm-3.883.74a69.983 69.983 0 01-1.901-.759c-9.565-3.975-23.155-12.553-30.862-19.483a71.37 71.37 0 01-1.307-1.204c13.728-24.601 11.137-53.12 23.808-78.704 4.006-8.088 9.092-14.041 15.92-16.169 12.697-3.956 23.173-6.862 36.567-7.973 12.112-1.006 30.185-2.506 35.483 3.07a3.907 3.907 0 00-1.784.472 4.71 4.71 0 00-1.39 1.159c-.684.827-1.169 1.922-1.388 3.112-.171.922-.014.703-.87.83-2.6.388-5.223 1.386-7.645 2.554-1.688.814-1.34.771-3.216.796-5.349.074-10.514.996-15.636 2.252-3.391.832-11.848 2.957-15.9 4.636-1.575.652-.841.614-1.578-.956a8.568 8.568 0 00-1.683-2.372c-.959-.967-2.427.495-1.467 1.462a6.524 6.524 0 011.277 1.796c.736 1.566.474 1.707-.446 2.934-1.018 1.357-2.549 3.398-3.772 6.726a1.036 1.036 0 101.946.715c.986-2.684 2.252-4.634 3.985-6.818 1.57-1.979 14.407-5.192 17.995-6.125 1.286-.334 1.327-.471 2.62-.136 1.246.323 2.201.777 3.041 1.196 2.016 1.004 1.451 1.22-.078 2.345-2.372 1.745-5.47 3.822-9.495 6.344-1.883-.639-3.281-.864-4.768-.757-1.505.108-3.034.56-5.249 1.264a1.035 1.035 0 00.625 1.975c2.056-.655 3.468-1.073 4.77-1.167a7.875 7.875 0 012.226.163c-3.568 2.168-7.258 4.253-10.455 5.794a7.707 7.707 0 01-2.838.49c-2.112-.025-4.244-.834-6.02-2.068-2.015-1.399-4.238-3.911-4.208-6.532.011-1.363-2.056-1.379-2.067-.016-.039 3.349 2.489 6.442 5.099 8.254a14.398 14.398 0 002.48 1.384c2.229.966 2.636.924-.553 1.285-1.751.198-3.406-.001-5.532-.447-1.334-.278-1.755 1.753-.422 2.031 2.336.49 4.176.707 6.181.48 1.993-.226 4.093-.884 6.944-2.14 3.787-1.67 8.52-4.325 13.008-7.072 5.98-3.659 11.545-7.495 13.842-9.361 1.982-1.61 5.081-3.782 8.49-5.596 3.288-1.751 7.913-3.746 11.647-3.377 2.522.25 4.921 1.804 5.196 4.584.418 4.208-3.923 9.126-6.96 12.149-2.999 2.985-6.127 5.077-9.746 7.278-2.586 1.573-5.196 3.16-7.955 5.506l-.057.049-.077.066c-2.933 2.517-6.682 5.991-10.044 9.89-3.399 3.944-6.407 8.328-7.805 12.628-.68 2.089-1.259 4.227-1.815 6.363a583.461 583.461 0 00-.439 1.703c-.955 3.711-1.898 7.377-3.283 10.828-3.862 9.619-9.846 16.114-16.685 23.535-4.952 5.375-10.345 11.229-15.754 19.134zm107.169 31.648c.035-1.079 4.857-8.539-2.365-8.466-2.449.025-3.987 1.189-6.128 1.679-1.387.317-2.127-4.778-1.237-6.315.669-1.156 3.791.729 5.562.887 8.746.779 6.513-13.866-.531-11.402-.872.305-4.131 1.658-4.63.698-.863-1.665-.891-4.528-.231-6.263.679-1.783 1.946-.962 3.496-.387 2.976 1.105 8.311.959 7.977-3.377-.133-1.717-1.337-2.785-1.364-3.998-.077-3.586 7.483-3.586 7.405 0-.026 1.213-1.231 2.281-1.363 3.998-.38 4.923 4.052 4.639 8.664 3.129 1.426-.485 2.217-.918 2.808.635.661 1.735.633 4.598-.231 6.263-.427.822-2.76-.023-4.155-.528-7.884-2.857-9.601 11.998-1.005 11.232 1.77-.158 4.893-2.043 5.562-.887.889 1.537.149 6.632-1.237 6.315-2.142-.49-3.679-1.654-6.128-1.679-7.223-.073-2.4 7.387-2.366 8.466.12 3.731-8.623 3.731-8.503 0zm10.571-.065c-.049-1.519-3.833-6.37.282-6.329 1.908.02 3.848 1.209 5.689 1.63 3.767.861 5.12-6.55 3.484-9.378-1.956-3.377-4.77-.383-7.532-.137-5.254.468-4.173-8.903.477-7.218 2.035.737 5.439 1.97 6.702-.464 1.129-2.177 1.194-5.686.328-7.96-1.066-2.8-2.932-2.705-5.411-1.862-9.032 3.071-4.642-1.716-4.568-5.12.137-6.318-11.681-6.461-11.54 0 .04 1.821 1.25 2.637 1.363 4.112.193 2.503-3.899 1.754-5.196 1.272-2.646-.982-4.932-1.591-6.147 1.598-.865 2.274-.801 5.783.329 7.96 1.351 2.604 5.106 1.017 7.151.302 3.813-1.334 5.453 7.863.028 7.38-2.762-.246-5.577-3.24-7.532.137-1.637 2.827-.284 10.239 3.483 9.378 1.842-.421 3.782-1.61 5.69-1.63 4.114-.041.33 4.81.282 6.329-.212 6.593 12.85 6.593 12.638 0zm-63.312-139.524c-.358-.25-.737-.488-1.147-.716-1.234-.684-1.698-.522.192-.79 1.285-.183 2.647-.358 4.077-.515 2.217-.244 1.953-.335.254.806a60.11 60.11 0 00-1.814 1.268c-.97.706-.589.627-1.562-.053zm-11.576 41.077c2.316 1.483 4.561 4.053 6.257 6.929 1.87 3.169 3.047 6.667 2.885 9.435-.477 8.178-10.65 5.938-10.588 2.277.009-.515.018-1.974-.423-3.508-.403-1.399-1.169-2.841-2.616-3.733.478-1.811.986-3.632 1.579-5.458.64-1.967 1.655-3.969 2.906-5.942zm13.711-15.115c1.911 1.891 4.062 4.439 6.047 6.979 2.503 3.202 6.676 8.29 7.733 12.345 1.78 6.836-4.672 8.74-9.63 5.501-2.782-1.818-5.035-4.816-6.246-7.092-2.212-4.156-5.188-6.579-7.405-8.255l.284-.333c3.052-3.539 6.443-6.73 9.217-9.145zm17.071-12.108c.93 1.118 2.257 2.429 3.701 3.743 2.767 2.518 6.002 5.089 7.591 6.268 9.875 7.332 1.582 14.881-8.318 8.902-2.678-1.618-5.505-3.619-8.123-5.718-2.245-1.8-4.344-3.675-6.076-5.447.864-.551 1.721-1.072 2.576-1.592 2.853-1.734 5.679-3.453 8.649-6.156zm1.645-22.463c.178-.661.47-1.254.852-1.716.231-.28.491-.504.774-.656.263-.142.549-.223.851-.228.583-.01 1.266.254 2.026.885 2.485 2.063 6.637.698 6.602-3.047-.022-2.443-1.184-4.028-1.669-6.18-.344-1.524 9.559-3.056 7 1.298-6.357 10.815 12.866 11.833 9.79 2.905-.845-2.451-1.617-4-.479-4.738 1.281-.831 4.627-.547 6.017.018 1.815.737.916 2.167.406 3.531-.426 1.139-.749 2.005-.599 3.981.296 3.893 3.363 5.065 6.594 3.202.816-.471 1.665-.58 2.476-.032 2.252 1.522 2.293 5.789-.527 7.015-1.174.511-1.74.273-2.825-.391-1.735-1.063-3.725-1.674-5.202.313-2.666 3.584 1.649 9.277-1.52 9.278l-19.137-.09-.004-.004c-1.468 0-1.454-1.17-.936-2.259 1.586-3.333.463-9.36-3.895-8.541-1.166-2.113-3.483-3.375-5.82-3.718-.871-.128-1.042.165-.775-.826zm5.354 111.611c-1.293-1.043-1.096-2.44-.111-3.666 2.021-2.517.533-6.64-3.164-6.602-1.107.011-2.261.334-3.359.712-2.624.904-3.452 2.032-4.237-1.415-.255-1.119-.364-2.906.23-3.933.67-1.156 3.792.729 5.562.886 7.892.704 6.845-11.151 1.39-11.664-1.745-.164-5.951 2.114-6.55.961-.864-1.665-.892-4.528-.231-6.263.813-2.136 4.793.414 7.477.206 3.921-.304 4.985-3.42 3.068-6.626-.293-.489-.427-.939-.436-1.342-.078-3.586 7.483-3.586 7.405 0-.009.403-.143.853-.436 1.342-1.917 3.206-.853 6.322 3.069 6.626 2.112.164 2.825-.214 4.668-.841 1.426-.485 2.217-.918 2.808.635.332.871.499 2.073.451 3.285-.164 4.168-1.403 3.693-4.837 2.45-7.894-2.857-9.603 11.998-1.005 11.231 1.77-.157 4.892-2.042 5.562-.886.889 1.536.149 6.631-1.238 6.314-2.141-.489-3.679-1.653-6.128-1.678-3.697-.038-5.185 4.085-3.164 6.602.985 1.226 1.182 2.623-.111 3.666-1.699 1.369-4.984 1.369-6.683 0zm-1.297 1.617c2.47 1.991 6.807 1.991 9.277 0 2.19-1.766 2.14-4.45.428-6.583-.949-1.181-.384-3.25 1.534-3.23 1.908.019 3.848 1.208 5.69 1.629 3.767.862 5.12-6.55 3.484-9.377-1.956-3.378-4.771-.383-7.533-.137-5.251.468-4.187-8.907.478-7.218 4.948 1.792 7.391 1.272 7.611-4.318.058-1.49-.157-2.993-.581-4.106-1.066-2.8-2.932-2.705-5.411-1.862-1.492.507-2.127.869-3.849.735-2.352-.182-2.559-1.631-1.447-3.49.486-.813.711-1.61.727-2.365.139-6.408-11.679-6.408-11.539 0 .016.755.241 1.552.727 2.365 1.112 1.859.905 3.308-1.446 3.49-2.591.201-5.065-1.688-7.087-1.166-1.008.26-1.669.966-2.174 2.293-.866 2.274-.801 5.783.329 7.96 1.791 3.452 6.414-.232 8.341.221 2.901.682 3.656 7.89-1.162 7.461-2.762-.246-5.577-3.241-7.532.137-.882 1.522-.838 3.757-.458 5.428 1.119 4.912 3.163 4.224 6.929 2.926.937-.323 1.895-.598 2.702-.606 1.918-.02 2.483 2.049 1.534 3.23-1.712 2.132-1.762 4.818.428 6.583zm63.233-48.051c.008-1.854-.708-2.737-1.669-3.098-1.221-.458-4.047.638-5.464.785-2.02.209-4.344-.064-3.049-2.512.561-1.06 1.529-1.956 1.229-3.878-1.082-6.935-11.849-5.609-11.728.208.046 2.173 3.31 5.465-.882 5.785-1.531.117-2.207-.137-3.097-.471-2.663-.999-4.887-1.594-6.166 1.569-.911 2.252-.943 5.763.145 7.961 1.309 2.643 5.13 1.03 7.16.328 3.858-1.336 5.225 7.868-.189 7.379-2.78-.251-5.525-3.264-7.536.156-.917 1.56-.905 3.857-.516 5.579 1.547 6.86 5.548 2.189 9.557 2.152 1.245-.012 1.919.652 1.862 1.89-.093 2.01-2.888 3.232-1.367 6.413 2.002 4.189 9.313 3.719 11.873.221.626-.855.928-1.857.708-2.969-.31-1.569-1.453-2.168-1.749-3.377-.303-1.241.821-1.87 1.86-2.125 1.461-.359 2.369-.274 3.714.369 2.478 1.184 5.198.247 5.211-2.509l.093-19.856z" fill="#6167EA"/><path d="M388.102 267.275l-.004.004c0 1.48-1.179 1.451-2.253.938-1.778-.85-3.168-.98-5.093-.507-2.197.539-3.976 2.205-3.383 4.628.557 2.282 3.787 3.861-.195 5.874-1.82.921-4.466 1.047-6.099-.309-2.336-1.94.791-3.75.906-6.252.112-2.431-1.507-4.074-3.946-4.051-3.804.035-6.534 3.842-7.521-.535-.263-1.165-.344-3.014.281-4.076.717-1.22 3.749.695 5.574.86 8.733.788 6.777-13.853-.306-11.402-.936.324-4.173 1.635-4.63.713-.831-1.679-.774-4.547-.081-6.263.721-1.782 1.956-.995 3.524-.407 1.136.427 2.001.751 3.972.601 6.784-.518 2.838-5.856 2.796-7.898-.067-3.211 6.925-4.288 7.617.15.154.99-.609 1.905-1.139 2.968-2.104 4.224 1.758 5.262 5.044 5.108 2.152-.1 5.004-1.716 4.997.292l-.061 19.564zm-141.458 37.186c.409-.707-.666-1.331-1.075-.624l-5.577 9.681c-.41.708.666 1.332 1.075.624l5.577-9.681zm-38.583-31.216l-9.909 17.199c-.682 1.18 1.11 2.22 1.792 1.04l9.207-15.982c.856 1.402 2.363 3.074 4.396 4.901 7.879 7.085 21.667 15.794 31.446 19.857 2.627 1.092 4.856 1.741 6.51 1.875l-8.735 15.161c-.676 1.179 1.116 2.211 1.792 1.032l9.191-15.953c.789-1.37 1.383-1.966.494-3.714-.372-.732-1.006-1.594-1.866-2.555 4.313-5.751 8.595-10.399 12.588-14.732 6.973-7.568 13.075-14.191 17.081-24.169 1.425-3.55 2.389-7.295 3.364-11.088l.079-.307c.606.58.973 1.362 1.194 2.13.358 1.244.349 2.472.342 2.906-.109 6.401 14.091 8.711 14.723-2.13.186-3.188-1.108-7.111-3.169-10.605-1.835-3.111-4.3-5.917-6.888-7.592.55-.78 1.132-1.552 1.736-2.313 2.078 1.568 4.882 3.83 6.901 7.625 1.336 2.509 3.835 5.824 6.944 7.855 6.616 4.322 15.011.885 12.759-7.759-1.152-4.426-5.369-9.6-8.105-13.1-1.99-2.546-4.146-5.105-6.087-7.045a42.379 42.379 0 012.502-1.858c1.843 1.917 4.112 3.956 6.541 5.903 2.716 2.177 5.62 4.236 8.342 5.88 12.35 7.459 22.477-3.544 10.62-12.346-1.545-1.148-4.704-3.659-7.428-6.138-1.441-1.312-2.747-2.603-3.595-3.648 3.421-3.436 8.049-8.72 7.545-13.805-.054-.546-.196-.998.625-.419 1.521 1.073 1.314 3.872.591 5.393-1.201 2.523-.215 5.232 2.809 5.232v-.005l19.138.091c2.104 0 3.079-.652 3.461-1.676.723-1.934-2.003-6.118-.276-8.439.679-.913 1.732-.224 2.462.223 1.676 1.027 2.907 1.311 4.722.522 4.327-1.883 4.469-8.205.867-10.64-1.467-.992-3.165-.906-4.665-.041-1.892 1.091-3.319.778-3.496-1.561-.117-1.534.136-2.212.469-3.103.971-2.597 1.616-4.887-1.565-6.18-2.247-.912-5.751-.944-7.944.146-2.638 1.312-1.028 5.14-.327 7.175 1.706 4.951-10.262 4.629-6.052-2.532 4.641-7.895-12.028-7.325-10.803-1.891.42 1.86 1.603 3.812 1.621 5.741.018 1.945-2.058 2.39-3.213 1.431a7.536 7.536 0 00-.28-.222c-3.426-9.211-24.855-7.432-38.769-6.277-13.529 1.122-24.186 4.066-37.013 8.063-7.444 2.319-12.913 8.656-17.161 17.233-11.955 24.138-10.29 51.329-21.318 73.949-2.806-.94-5.274-.756-6.19 1.262zm3.438.227c.513.066 1.119.198 1.807.392a96.573 96.573 0 01-1.217 2.279c-.658-.69-1.15-1.274-1.451-1.73-.808-1.224-.143-1.069.861-.941zm40.072 24.89c.206.263.385.51.534.741.766 1.184.711 1.434-.791 1.141a11.093 11.093 0 01-.812-.193c-.85-.232-.898-.091-.44-.746.21-.3.42-.598.63-.893.487-.683.346-.728.879-.05zm-3.883.74a69.983 69.983 0 01-1.901-.759c-9.565-3.975-23.155-12.553-30.862-19.483a71.37 71.37 0 01-1.307-1.204c13.728-24.601 11.137-53.12 23.808-78.704 4.006-8.088 9.092-14.041 15.92-16.169 12.697-3.956 23.173-6.862 36.567-7.973 12.112-1.006 30.185-2.506 35.483 3.07a3.907 3.907 0 00-1.784.472 4.71 4.71 0 00-1.39 1.159c-.684.827-1.169 1.922-1.388 3.112-.171.922-.014.703-.87.83-2.6.388-5.223 1.386-7.645 2.554-1.688.814-1.34.771-3.216.796-5.349.074-10.514.996-15.636 2.252-3.391.832-11.848 2.957-15.9 4.636-1.575.652-.841.614-1.578-.956a8.568 8.568 0 00-1.683-2.372c-.959-.967-2.427.495-1.467 1.462a6.524 6.524 0 011.277 1.796c.736 1.566.474 1.707-.446 2.934-1.018 1.357-2.549 3.398-3.772 6.726a1.036 1.036 0 101.946.715c.986-2.684 2.252-4.634 3.985-6.818 1.57-1.979 14.407-5.192 17.995-6.125 1.286-.334 1.327-.471 2.62-.136 1.246.323 2.201.777 3.041 1.196 2.016 1.004 1.451 1.22-.078 2.345-2.372 1.745-5.47 3.822-9.495 6.344-1.883-.639-3.281-.864-4.768-.757-1.505.108-3.034.56-5.249 1.264a1.035 1.035 0 00.625 1.975c2.056-.655 3.468-1.073 4.77-1.167a7.875 7.875 0 012.226.163c-3.568 2.168-7.258 4.253-10.455 5.794a7.707 7.707 0 01-2.838.49c-2.112-.025-4.244-.834-6.02-2.068-2.015-1.399-4.238-3.911-4.208-6.532.011-1.363-2.056-1.379-2.067-.016-.039 3.349 2.489 6.442 5.099 8.254a14.398 14.398 0 002.48 1.384c2.229.966 2.636.924-.553 1.285-1.751.198-3.406-.001-5.532-.447-1.334-.278-1.755 1.753-.422 2.031 2.336.49 4.176.707 6.181.48 1.993-.226 4.093-.884 6.944-2.14 3.787-1.67 8.52-4.325 13.008-7.072 5.98-3.659 11.545-7.495 13.842-9.361 1.982-1.61 5.081-3.782 8.49-5.596 3.288-1.751 7.913-3.746 11.647-3.377 2.522.25 4.921 1.804 5.196 4.584.418 4.208-3.923 9.126-6.96 12.149-2.999 2.985-6.127 5.077-9.746 7.278-2.586 1.573-5.196 3.16-7.955 5.506l-.057.049-.077.066c-2.933 2.517-6.682 5.991-10.044 9.89-3.399 3.944-6.407 8.328-7.805 12.628-.68 2.089-1.259 4.227-1.815 6.363a583.461 583.461 0 00-.439 1.703c-.955 3.711-1.898 7.377-3.283 10.828-3.862 9.619-9.846 16.114-16.685 23.535-4.952 5.375-10.345 11.229-15.754 19.134zm107.169 31.648c.035-1.079 4.857-8.539-2.365-8.466-2.449.025-3.987 1.189-6.128 1.679-1.387.317-2.127-4.778-1.237-6.315.669-1.156 3.791.729 5.562.887 8.746.779 6.513-13.866-.531-11.402-.872.305-4.131 1.658-4.63.698-.863-1.665-.891-4.528-.231-6.263.679-1.783 1.946-.962 3.496-.387 2.976 1.105 8.311.959 7.977-3.377-.133-1.717-1.337-2.785-1.364-3.998-.077-3.586 7.483-3.586 7.405 0-.026 1.213-1.231 2.281-1.363 3.998-.38 4.923 4.052 4.639 8.664 3.129 1.426-.485 2.217-.918 2.808.635.661 1.735.633 4.598-.231 6.263-.427.822-2.76-.023-4.155-.528-7.884-2.857-9.601 11.998-1.005 11.232 1.77-.158 4.893-2.043 5.562-.887.889 1.537.149 6.632-1.237 6.315-2.142-.49-3.679-1.654-6.128-1.679-7.223-.073-2.4 7.387-2.366 8.466.12 3.731-8.623 3.731-8.503 0zm10.571-.065c-.049-1.519-3.833-6.37.282-6.329 1.908.02 3.848 1.209 5.689 1.63 3.767.861 5.12-6.55 3.484-9.378-1.956-3.377-4.77-.383-7.532-.137-5.254.468-4.173-8.903.477-7.218 2.035.737 5.439 1.97 6.702-.464 1.129-2.177 1.194-5.686.328-7.96-1.066-2.8-2.932-2.705-5.411-1.862-9.032 3.071-4.642-1.716-4.568-5.12.137-6.318-11.681-6.461-11.54 0 .04 1.821 1.25 2.637 1.363 4.112.193 2.503-3.899 1.754-5.196 1.272-2.646-.982-4.932-1.591-6.147 1.598-.865 2.274-.801 5.783.329 7.96 1.351 2.604 5.106 1.017 7.151.302 3.813-1.334 5.453 7.863.028 7.38-2.762-.246-5.577-3.24-7.532.137-1.637 2.827-.284 10.239 3.483 9.378 1.842-.421 3.782-1.61 5.69-1.63 4.114-.041.33 4.81.282 6.329-.212 6.593 12.85 6.593 12.638 0zm-63.312-139.524c-.358-.25-.737-.488-1.147-.716-1.234-.684-1.698-.522.192-.79 1.285-.183 2.647-.358 4.077-.515 2.217-.244 1.953-.335.254.806a60.11 60.11 0 00-1.814 1.268c-.97.706-.589.627-1.562-.053zm-11.576 41.077c2.316 1.483 4.561 4.053 6.257 6.929 1.87 3.169 3.047 6.667 2.885 9.435-.477 8.178-10.65 5.938-10.588 2.277.009-.515.018-1.974-.423-3.508-.403-1.399-1.169-2.841-2.616-3.733.478-1.811.986-3.632 1.579-5.458.64-1.967 1.655-3.969 2.906-5.942zm13.711-15.115c1.911 1.891 4.062 4.439 6.047 6.979 2.503 3.202 6.676 8.29 7.733 12.345 1.78 6.836-4.672 8.74-9.63 5.501-2.782-1.818-5.035-4.816-6.246-7.092-2.212-4.156-5.188-6.579-7.405-8.255l.284-.333c3.052-3.539 6.443-6.73 9.217-9.145zm17.071-12.108c.93 1.118 2.257 2.429 3.701 3.743 2.767 2.518 6.002 5.089 7.591 6.268 9.875 7.332 1.582 14.881-8.318 8.902-2.678-1.618-5.505-3.619-8.123-5.718-2.245-1.8-4.344-3.675-6.076-5.447.864-.551 1.721-1.072 2.576-1.592 2.853-1.734 5.679-3.453 8.649-6.156zm1.645-22.463c.178-.661.47-1.254.852-1.716.231-.28.491-.504.774-.656.263-.142.549-.223.851-.228.583-.01 1.266.254 2.026.885 2.485 2.063 6.637.698 6.602-3.047-.022-2.443-1.184-4.028-1.669-6.18-.344-1.524 9.559-3.056 7 1.298-6.357 10.815 12.866 11.833 9.79 2.905-.845-2.451-1.617-4-.479-4.738 1.281-.831 4.627-.547 6.017.018 1.815.737.916 2.167.406 3.531-.426 1.139-.749 2.005-.599 3.981.296 3.893 3.363 5.065 6.594 3.202.816-.471 1.665-.58 2.476-.032 2.252 1.522 2.293 5.789-.527 7.015-1.174.511-1.74.273-2.825-.391-1.735-1.063-3.725-1.674-5.202.313-2.666 3.584 1.649 9.277-1.52 9.278l-19.137-.09-.004-.004c-1.468 0-1.454-1.17-.936-2.259 1.586-3.333.463-9.36-3.895-8.541-1.166-2.113-3.483-3.375-5.82-3.718-.871-.128-1.042.165-.775-.826zm5.354 111.611c-1.293-1.043-1.096-2.44-.111-3.666 2.021-2.517.533-6.64-3.164-6.602-1.107.011-2.261.334-3.359.712-2.624.904-3.452 2.032-4.237-1.415-.255-1.119-.364-2.906.23-3.933.67-1.156 3.792.729 5.562.886 7.892.704 6.845-11.151 1.39-11.664-1.745-.164-5.951 2.114-6.55.961-.864-1.665-.892-4.528-.231-6.263.813-2.136 4.793.414 7.477.206 3.921-.304 4.985-3.42 3.068-6.626-.293-.489-.427-.939-.436-1.342-.078-3.586 7.483-3.586 7.405 0-.009.403-.143.853-.436 1.342-1.917 3.206-.853 6.322 3.069 6.626 2.112.164 2.825-.214 4.668-.841 1.426-.485 2.217-.918 2.808.635.332.871.499 2.073.451 3.285-.164 4.168-1.403 3.693-4.837 2.45-7.894-2.857-9.603 11.998-1.005 11.231 1.77-.157 4.892-2.042 5.562-.886.889 1.536.149 6.631-1.238 6.314-2.141-.489-3.679-1.653-6.128-1.678-3.697-.038-5.185 4.085-3.164 6.602.985 1.226 1.182 2.623-.111 3.666-1.699 1.369-4.984 1.369-6.683 0zm-1.297 1.617c2.47 1.991 6.807 1.991 9.277 0 2.19-1.766 2.14-4.45.428-6.583-.949-1.181-.384-3.25 1.534-3.23 1.908.019 3.848 1.208 5.69 1.629 3.767.862 5.12-6.55 3.484-9.377-1.956-3.378-4.771-.383-7.533-.137-5.251.468-4.187-8.907.478-7.218 4.948 1.792 7.391 1.272 7.611-4.318.058-1.49-.157-2.993-.581-4.106-1.066-2.8-2.932-2.705-5.411-1.862-1.492.507-2.127.869-3.849.735-2.352-.182-2.559-1.631-1.447-3.49.486-.813.711-1.61.727-2.365.139-6.408-11.679-6.408-11.539 0 .016.755.241 1.552.727 2.365 1.112 1.859.905 3.308-1.446 3.49-2.591.201-5.065-1.688-7.087-1.166-1.008.26-1.669.966-2.174 2.293-.866 2.274-.801 5.783.329 7.96 1.791 3.452 6.414-.232 8.341.221 2.901.682 3.656 7.89-1.162 7.461-2.762-.246-5.577-3.241-7.532.137-.882 1.522-.838 3.757-.458 5.428 1.119 4.912 3.163 4.224 6.929 2.926.937-.323 1.895-.598 2.702-.606 1.918-.02 2.483 2.049 1.534 3.23-1.712 2.132-1.762 4.818.428 6.583zm63.233-48.051c.008-1.854-.708-2.737-1.669-3.098-1.221-.458-4.047.638-5.464.785-2.02.209-4.344-.064-3.049-2.512.561-1.06 1.529-1.956 1.229-3.878-1.082-6.935-11.849-5.609-11.728.208.046 2.173 3.31 5.465-.882 5.785-1.531.117-2.207-.137-3.097-.471-2.663-.999-4.887-1.594-6.166 1.569-.911 2.252-.943 5.763.145 7.961 1.309 2.643 5.13 1.03 7.16.328 3.858-1.336 5.225 7.868-.189 7.379-2.78-.251-5.525-3.264-7.536.156-.917 1.56-.905 3.857-.516 5.579 1.547 6.86 5.548 2.189 9.557 2.152 1.245-.012 1.919.652 1.862 1.89-.093 2.01-2.888 3.232-1.367 6.413 2.002 4.189 9.313 3.719 11.873.221.626-.855.928-1.857.708-2.969-.31-1.569-1.453-2.168-1.749-3.377-.303-1.241.821-1.87 1.86-2.125 1.461-.359 2.369-.274 3.714.369 2.478 1.184 5.198.247 5.211-2.509l.093-19.856z" stroke="#6167EA" stroke-width="1.4" mask="url(#a)"/></svg>