<svg width="70" height="19" fill="none" xmlns="http://www.w3.org/2000/svg"><path d="M.805 8.69c0 4.522 3.572 8.151 8.075 8.151 4.503 0 8.075-3.629 8.075-8.151 0-4.503-3.572-8.113-8.075-8.113C4.377.577.805 4.187.805 8.69zm1.121 0c0-3.895 3.002-7.144 6.954-7.144 3.933 0 6.935 3.249 6.935 7.144 0 3.914-3.002 7.163-6.935 7.163s-6.954-3.23-6.954-7.163zm7.011 4.522c1.33 0 2.508-.741 3.04-1.406l-.437-.76a2.895 2.895 0 01-2.052.836c-1.824 0-3.059-1.349-3.059-3.42 0-1.976.931-3.249 2.489-3.249.931 0 1.311.152 1.558.342l.38 1.216h1.007v-2.09c-.361-.361-1.558-.57-2.375-.57-2.717 0-4.693 2.052-4.693 4.655 0 2.584 1.387 4.446 4.142 4.446zm15.226 3.99l.285.798h9.063l.493-3.002-.968-.19-.666 1.634-5.89.437c3.287-1.919 6.327-4.75 6.327-7.429 0-1.767-1.235-3.458-4.028-3.458-2.07 0-3.8 1.197-4.54 2.052l.607.855c.608-.57 1.654-1.482 3.306-1.482 1.578 0 2.413.912 2.413 2.28 0 2.508-2.983 5.567-6.402 7.505zm16.447.969c2.85.019 5.035-2.432 5.073-6.156.019-3.458-1.254-6.004-4.75-6.004-2.755 0-5.111 2.223-5.13 6.004-.038 3.344 1.368 6.156 4.807 6.156zm.114-.969c-2.071 0-2.812-2.356-2.812-5.32 0-3.04.874-4.883 2.869-4.883 2.109 0 2.774 2.052 2.774 5.13 0 3.135-.817 5.073-2.831 5.073zm7.003 0l.285.798h9.063l.494-3.002-.969-.19-.665 1.634-5.89.437c3.287-1.919 6.327-4.75 6.327-7.429 0-1.767-1.235-3.458-4.028-3.458-2.071 0-3.8 1.197-4.541 2.052l.608.855c.608-.57 1.653-1.482 3.306-1.482 1.577 0 2.413.912 2.413 2.28 0 2.508-2.983 5.567-6.403 7.505zm16.447.969c2.85.019 5.035-2.432 5.073-6.156.02-3.458-1.254-6.004-4.75-6.004-2.755 0-5.11 2.223-5.13 6.004-.037 3.344 1.369 6.156 4.807 6.156zm.114-.969c-2.07 0-2.811-2.356-2.811-5.32 0-3.04.873-4.883 2.869-4.883 2.108 0 2.773 2.052 2.773 5.13 0 3.135-.817 5.073-2.83 5.073z" fill="#000"/></svg>