<svg width="270" height="112" viewBox="0 0 270 112" fill="none" xmlns="http://www.w3.org/2000/svg">
<path d="M83.752 64.168H93.304L73.816 96.616V97H98.872L100.504 86.968H100.024C97.528 93.832 94.312 96.136 90.712 96.136H80.296L99.736 63.688V63.304H75.304L75.064 71.944H75.496C77.512 65.416 79.672 64.168 83.752 64.168ZM114.788 71.368C108.164 71.368 102.884 76.792 102.884 85C102.884 92.152 107.636 97.48 114.548 97.48C121.22 97.48 126.452 92.056 126.452 83.8C126.452 76.696 121.748 71.368 114.788 71.368ZM114.788 96.808C110.564 96.808 108.596 90.472 108.596 83.56C108.596 76.552 110.708 72.04 114.548 72.04C118.82 72.04 120.788 78.376 120.788 85.288C120.788 92.248 118.676 96.808 114.788 96.808ZM166.635 94.264V79.096C166.635 74.056 164.571 71.368 160.251 71.368C156.651 71.368 153.579 74.056 151.802 76.264C151.131 73.048 148.875 71.368 145.467 71.368C141.819 71.368 138.795 74.008 137.019 76.216L137.211 71.368H137.019L128.475 73.864V74.056L131.643 75.88V94.264C131.643 96.136 130.73 96.328 128.331 96.472V97H140.331V96.472C137.931 96.328 137.019 96.136 137.019 94.264V76.6C138.555 75.4 140.571 74.584 142.491 74.584C145.275 74.584 146.475 76.12 146.475 79.624V94.264C146.475 96.136 145.611 96.328 143.211 96.472V97H155.115V96.472C152.715 96.328 151.851 96.136 151.851 94.264V76.6C153.339 75.4 155.403 74.584 157.323 74.584C160.059 74.584 161.307 76.12 161.307 79.624V94.264C161.307 96.136 160.395 96.328 157.995 96.472V97H169.995V96.472C167.595 96.328 166.635 96.136 166.635 94.264ZM173.241 63.928V94.456C175.785 96.616 179.865 97.48 183.225 97.48C190.665 97.48 196.185 91.048 196.185 82.936C196.185 75.976 192.729 71.368 186.921 71.368C183.177 71.368 180.345 73.576 178.617 76.072V59.416H178.425L170.072 61.912V62.104L173.241 63.928ZM183.369 96.76C180.537 96.76 178.617 94.552 178.617 90.376V76.504C179.817 75.256 181.593 74.488 183.465 74.488C188.505 74.488 190.761 79.096 190.761 85.096C190.761 91.624 187.881 96.76 183.369 96.76ZM217.618 78.952C217.618 73.672 214.642 71.368 208.978 71.368C204.13 71.368 199.81 73.672 199.81 77.32C199.81 78.76 200.722 79.912 201.826 80.2L205.042 79.768C204.706 78.856 204.61 77.8 204.61 76.84C204.61 74.104 205.762 72.088 208.258 72.088C211.138 72.088 212.242 74.488 212.242 77.752V81.976L205.426 84.376C201.442 85.768 198.466 87.784 198.466 91.432C198.466 94.984 201.202 97.384 204.754 97.384C208.066 97.384 210.706 95.224 212.29 93.256C212.626 95.752 214.258 97.384 216.706 97.384C218.722 97.384 220.546 96.328 221.746 94.504L221.65 94.312C221.122 94.6 220.498 94.744 219.826 94.744C218.434 94.744 217.618 93.976 217.618 92.2V78.952ZM207.874 94.6C205.234 94.6 203.554 92.68 203.554 89.848C203.554 87.112 204.994 85.624 207.298 84.664L212.242 82.6V92.824C210.898 94.168 209.362 94.6 207.874 94.6ZM233.501 72.136C236.525 72.136 237.533 75.16 237.533 77.56C237.533 78.424 237.437 79.096 237.341 79.72H240.413C241.325 79.192 242.093 77.944 242.093 76.552C242.093 73.288 239.021 71.368 234.557 71.368C227.789 71.368 222.557 77.32 222.557 85.096C222.557 92.104 226.685 97.48 233.117 97.48C238.013 97.48 241.517 94.264 242.573 89.704L242.381 89.608C240.797 92.2 238.493 93.64 235.421 93.64C230.573 93.64 227.309 89.368 227.309 82.12C227.309 76.552 229.805 72.136 233.501 72.136ZM252.376 59.416H252.184L243.832 61.912V62.104L247 63.928V94.264C247 96.136 246.088 96.328 243.688 96.472V97H255.688V96.472C253.288 96.328 252.376 96.136 252.376 94.264V59.416ZM252.952 83.56L263.608 97H269.992V96.808L257.176 80.728L263.176 75.064C265.192 73.192 267.016 72.52 268.792 72.328V71.848H258.712V72.328C260.92 72.52 262.36 72.808 262.36 73.768C262.36 74.488 261.736 75.064 261.016 75.832L252.952 83.56Z" fill="black"/>
<path d="M21.4 28.888H9.976L15.592 13.672L21.4 28.888ZM10.648 42.472C7.48 42.376 6.088 41.752 6.088 40.264C6.088 39.784 6.232 39.16 6.472 38.44L9.688 29.752H21.688L25.048 38.488C25.336 39.208 25.528 39.88 25.528 40.408C25.528 41.752 24.424 42.376 21.496 42.472V43H35.224V42.472C33.64 42.376 32.344 41.944 31.816 40.648L19.672 8.968H13.768L15.064 12.328L4.6 40.168C3.976 41.992 2.584 42.28 0.76 42.472V43H10.648V42.472ZM55.3364 24.952C55.3364 19.672 52.3604 17.368 46.6964 17.368C41.8484 17.368 37.5284 19.672 37.5284 23.32C37.5284 24.76 38.4404 25.912 39.5444 26.2L42.7604 25.768C42.4244 24.856 42.3284 23.8 42.3284 22.84C42.3284 20.104 43.4804 18.088 45.9764 18.088C48.8564 18.088 49.9604 20.488 49.9604 23.752V27.976L43.1444 30.376C39.1604 31.768 36.1844 33.784 36.1844 37.432C36.1844 40.984 38.9204 43.384 42.4724 43.384C45.7844 43.384 48.4244 41.224 50.0084 39.256C50.3444 41.752 51.9764 43.384 54.4244 43.384C56.4404 43.384 58.2644 42.328 59.4644 40.504L59.3684 40.312C58.8404 40.6 58.2164 40.744 57.5444 40.744C56.1524 40.744 55.3364 39.976 55.3364 38.2V24.952ZM45.5924 40.6C42.9524 40.6 41.2724 38.68 41.2724 35.848C41.2724 33.112 42.7124 31.624 45.0164 30.664L49.9604 28.6V38.824C48.6164 40.168 47.0804 40.6 45.5924 40.6ZM68.6279 24.712L68.8199 17.368H68.6279L60.0839 19.864V20.056L63.2519 21.88V40.264C63.2519 42.136 62.3399 42.328 59.9399 42.472V43H72.9959V42.472C69.8279 42.184 68.6279 42.088 68.6279 40.216V25.144C70.6919 22.84 73.3799 22.504 76.3559 22.504H77.1239V17.992C76.7879 17.656 76.0679 17.368 75.2039 17.368C72.3239 17.368 70.5959 20.056 68.6279 24.712ZM90.1788 17.368C83.5547 17.368 78.2748 22.792 78.2748 31C78.2748 38.152 83.0268 43.48 89.9388 43.48C96.6108 43.48 101.843 38.056 101.843 29.8C101.843 22.696 97.1388 17.368 90.1788 17.368ZM90.1788 42.808C85.9548 42.808 83.9868 36.472 83.9868 29.56C83.9868 22.552 86.0988 18.04 89.9388 18.04C94.2108 18.04 96.1788 24.376 96.1788 31.288C96.1788 38.248 94.0668 42.808 90.1788 42.808ZM122.489 40.264C122.489 42.136 121.577 42.328 119.177 42.472V43H131.177V42.472C128.777 42.328 127.865 42.136 127.865 40.264V25.096C127.865 20.056 125.705 17.368 121.241 17.368C117.449 17.368 114.281 20.008 112.409 22.216L112.601 17.368H112.409L103.865 19.864V20.056L107.033 21.88V40.264C107.033 42.136 106.121 42.328 103.721 42.472V43H115.769V42.472C113.369 42.328 112.409 42.136 112.409 40.264V22.6C114.041 21.4 116.201 20.584 118.265 20.584C121.193 20.584 122.489 22.12 122.489 25.624V40.264Z" fill="black"/>
</svg>
