<svg width="171" height="68" viewBox="0 0 171 68" fill="none" xmlns="http://www.w3.org/2000/svg">
<path d="M17.4531 23.1562C17.3177 24.2083 17.0469 25.1771 16.6406 26.0625C16.2344 26.9375 15.7031 27.6927 15.0469 28.3281C14.401 28.9531 13.6302 29.4427 12.7344 29.7969C11.849 30.1406 10.8594 30.3125 9.76562 30.3125C8.82812 30.3125 7.97396 30.1823 7.20312 29.9219C6.44271 29.651 5.76042 29.2812 5.15625 28.8125C4.5625 28.3438 4.04688 27.7917 3.60938 27.1562C3.18229 26.5208 2.82292 25.8281 2.53125 25.0781C2.25 24.3281 2.03646 23.5417 1.89062 22.7188C1.75521 21.8958 1.68229 21.0625 1.67188 20.2188V17.0469C1.68229 16.2031 1.75521 15.3698 1.89062 14.5469C2.03646 13.724 2.25 12.9375 2.53125 12.1875C2.82292 11.4375 3.18229 10.7448 3.60938 10.1094C4.04688 9.46354 4.5625 8.90625 5.15625 8.4375C5.76042 7.96875 6.44271 7.60417 7.20312 7.34375C7.96354 7.07292 8.81771 6.9375 9.76562 6.9375C10.901 6.9375 11.9167 7.11458 12.8125 7.46875C13.7083 7.8125 14.4792 8.30729 15.125 8.95312C15.7708 9.58854 16.2865 10.3542 16.6719 11.25C17.0677 12.1458 17.3281 13.1354 17.4531 14.2188H14.5625C14.4688 13.5312 14.3073 12.8906 14.0781 12.2969C13.849 11.7031 13.5417 11.1823 13.1562 10.7344C12.7708 10.2865 12.2969 9.9375 11.7344 9.6875C11.1823 9.42708 10.526 9.29688 9.76562 9.29688C9.07812 9.29688 8.46875 9.41146 7.9375 9.64062C7.41667 9.85938 6.96354 10.1615 6.57812 10.5469C6.20312 10.9323 5.88542 11.3802 5.625 11.8906C5.375 12.401 5.17188 12.9427 5.01562 13.5156C4.85938 14.0885 4.74479 14.6771 4.67188 15.2812C4.60938 15.875 4.57812 16.4531 4.57812 17.0156V20.2188C4.57812 20.7812 4.60938 21.3646 4.67188 21.9688C4.74479 22.5625 4.85938 23.151 5.01562 23.7344C5.17188 24.3073 5.375 24.849 5.625 25.3594C5.875 25.8698 6.19271 26.3229 6.57812 26.7188C6.96354 27.1042 7.41667 27.4115 7.9375 27.6406C8.45833 27.8594 9.06771 27.9688 9.76562 27.9688C10.526 27.9688 11.1823 27.849 11.7344 27.6094C12.2969 27.3698 12.7708 27.0365 13.1562 26.6094C13.5417 26.1719 13.849 25.6615 14.0781 25.0781C14.3073 24.4844 14.4688 23.8438 14.5625 23.1562H17.4531ZM22.3906 6H31.0312V27.5H36.5469V30H22.3906V27.5H28.1406V8.51562H22.3906V6ZM52.2656 30C52.151 29.7812 52.0573 29.5104 51.9844 29.1875C51.9219 28.8542 51.875 28.5104 51.8438 28.1562C51.5521 28.4479 51.224 28.724 50.8594 28.9844C50.5052 29.2448 50.1094 29.474 49.6719 29.6719C49.2448 29.8698 48.7865 30.026 48.2969 30.1406C47.8073 30.2552 47.2865 30.3125 46.7344 30.3125C45.8385 30.3125 45.026 30.1823 44.2969 29.9219C43.5781 29.6615 42.9635 29.3125 42.4531 28.875C41.9531 28.4271 41.5625 27.901 41.2812 27.2969C41.0104 26.6823 40.875 26.0208 40.875 25.3125C40.875 24.3854 41.0573 23.5729 41.4219 22.875C41.7969 22.1771 42.3229 21.599 43 21.1406C43.6771 20.6719 44.4896 20.3229 45.4375 20.0938C46.3958 19.8646 47.4635 19.75 48.6406 19.75H51.7969V18.4219C51.7969 17.9115 51.7031 17.4531 51.5156 17.0469C51.3281 16.6406 51.0625 16.2969 50.7188 16.0156C50.375 15.724 49.9531 15.5 49.4531 15.3438C48.9635 15.1875 48.4115 15.1094 47.7969 15.1094C47.224 15.1094 46.7083 15.1823 46.25 15.3281C45.8021 15.474 45.4219 15.6667 45.1094 15.9062C44.7969 16.1458 44.5521 16.4323 44.375 16.7656C44.2083 17.0885 44.125 17.4271 44.125 17.7812H41.2188C41.2292 17.1667 41.3854 16.5625 41.6875 15.9688C42 15.375 42.4427 14.8438 43.0156 14.375C43.599 13.8958 44.3021 13.5104 45.125 13.2188C45.9583 12.9271 46.901 12.7812 47.9531 12.7812C48.9115 12.7812 49.8021 12.901 50.625 13.1406C51.4479 13.3698 52.1562 13.724 52.75 14.2031C53.3542 14.6719 53.8281 15.2604 54.1719 15.9688C54.5156 16.6771 54.6875 17.5052 54.6875 18.4531V26.3125C54.6875 26.875 54.7396 27.474 54.8438 28.1094C54.9479 28.7344 55.0938 29.2812 55.2812 29.75V30H52.2656ZM47.1562 27.7969C47.7188 27.7969 48.2448 27.724 48.7344 27.5781C49.224 27.4323 49.6667 27.2396 50.0625 27C50.4688 26.7604 50.8177 26.4896 51.1094 26.1875C51.401 25.875 51.6302 25.5521 51.7969 25.2188V21.7969H49.1094C47.4219 21.7969 46.1094 22.0469 45.1719 22.5469C44.2344 23.0469 43.7656 23.8333 43.7656 24.9062C43.7656 25.3229 43.8333 25.7083 43.9688 26.0625C44.1146 26.4167 44.3281 26.724 44.6094 26.9844C44.8906 27.2344 45.2448 27.4323 45.6719 27.5781C46.099 27.724 46.5938 27.7969 47.1562 27.7969ZM71.4531 12.7812C71.724 12.7812 72.0052 12.7917 72.2969 12.8125C72.5885 12.8229 72.8646 12.849 73.125 12.8906C73.3958 12.9219 73.6406 12.9635 73.8594 13.0156C74.0885 13.0677 74.276 13.125 74.4219 13.1875L74.0312 16.0156C73.4688 15.8906 72.9323 15.8021 72.4219 15.75C71.9219 15.6875 71.3958 15.6562 70.8438 15.6562C69.4896 15.6562 68.3906 15.9635 67.5469 16.5781C66.7135 17.1927 66.099 18.0521 65.7031 19.1562V30H62.7969V13.0938H65.5469L65.6875 15.7812C66.375 14.8542 67.1979 14.125 68.1562 13.5938C69.125 13.0521 70.224 12.7812 71.4531 12.7812ZM90.7031 30C90.5885 29.7812 90.4948 29.5104 90.4219 29.1875C90.3594 28.8542 90.3125 28.5104 90.2812 28.1562C89.9896 28.4479 89.6615 28.724 89.2969 28.9844C88.9427 29.2448 88.5469 29.474 88.1094 29.6719C87.6823 29.8698 87.224 30.026 86.7344 30.1406C86.2448 30.2552 85.724 30.3125 85.1719 30.3125C84.276 30.3125 83.4635 30.1823 82.7344 29.9219C82.0156 29.6615 81.401 29.3125 80.8906 28.875C80.3906 28.4271 80 27.901 79.7188 27.2969C79.4479 26.6823 79.3125 26.0208 79.3125 25.3125C79.3125 24.3854 79.4948 23.5729 79.8594 22.875C80.2344 22.1771 80.7604 21.599 81.4375 21.1406C82.1146 20.6719 82.9271 20.3229 83.875 20.0938C84.8333 19.8646 85.901 19.75 87.0781 19.75H90.2344V18.4219C90.2344 17.9115 90.1406 17.4531 89.9531 17.0469C89.7656 16.6406 89.5 16.2969 89.1562 16.0156C88.8125 15.724 88.3906 15.5 87.8906 15.3438C87.401 15.1875 86.849 15.1094 86.2344 15.1094C85.6615 15.1094 85.1458 15.1823 84.6875 15.3281C84.2396 15.474 83.8594 15.6667 83.5469 15.9062C83.2344 16.1458 82.9896 16.4323 82.8125 16.7656C82.6458 17.0885 82.5625 17.4271 82.5625 17.7812H79.6562C79.6667 17.1667 79.8229 16.5625 80.125 15.9688C80.4375 15.375 80.8802 14.8438 81.4531 14.375C82.0365 13.8958 82.7396 13.5104 83.5625 13.2188C84.3958 12.9271 85.3385 12.7812 86.3906 12.7812C87.349 12.7812 88.2396 12.901 89.0625 13.1406C89.8854 13.3698 90.5938 13.724 91.1875 14.2031C91.7917 14.6719 92.2656 15.2604 92.6094 15.9688C92.9531 16.6771 93.125 17.5052 93.125 18.4531V26.3125C93.125 26.875 93.1771 27.474 93.2812 28.1094C93.3854 28.7344 93.5312 29.2812 93.7188 29.75V30H90.7031ZM85.5938 27.7969C86.1562 27.7969 86.6823 27.724 87.1719 27.5781C87.6615 27.4323 88.1042 27.2396 88.5 27C88.9062 26.7604 89.2552 26.4896 89.5469 26.1875C89.8385 25.875 90.0677 25.5521 90.2344 25.2188V21.7969H87.5469C85.8594 21.7969 84.5469 22.0469 83.6094 22.5469C82.6719 23.0469 82.2031 23.8333 82.2031 24.9062C82.2031 25.3229 82.2708 25.7083 82.4062 26.0625C82.5521 26.4167 82.7656 26.724 83.0469 26.9844C83.3281 27.2344 83.6823 27.4323 84.1094 27.5781C84.5365 27.724 85.0312 27.7969 85.5938 27.7969Z" fill="black"/>
<path d="M99.9844 57.5469H111.109V60H97.0938V37.25H99.9844V57.5469ZM123.406 60.3125C122.219 60.3125 121.125 60.1094 120.125 59.7031C119.135 59.2969 118.286 58.7292 117.578 58C116.87 57.2708 116.318 56.4062 115.922 55.4062C115.526 54.4062 115.328 53.3177 115.328 52.1406V51.4844C115.328 50.1198 115.547 48.901 115.984 47.8281C116.422 46.7448 117 45.8333 117.719 45.0938C118.448 44.3438 119.271 43.7708 120.188 43.375C121.115 42.9792 122.062 42.7812 123.031 42.7812C124.25 42.7812 125.312 42.9948 126.219 43.4219C127.135 43.8385 127.896 44.4219 128.5 45.1719C129.104 45.9115 129.552 46.7865 129.844 47.7969C130.146 48.8073 130.297 49.901 130.297 51.0781V52.375H118.219C118.25 53.1458 118.396 53.8698 118.656 54.5469C118.927 55.224 119.292 55.8177 119.75 56.3281C120.219 56.8281 120.776 57.224 121.422 57.5156C122.068 57.8073 122.781 57.9531 123.562 57.9531C124.594 57.9531 125.51 57.7448 126.312 57.3281C127.115 56.9115 127.781 56.3594 128.312 55.6719L130.078 57.0469C129.797 57.474 129.443 57.8854 129.016 58.2812C128.599 58.6667 128.115 59.0104 127.562 59.3125C127.01 59.6146 126.385 59.8542 125.688 60.0312C124.99 60.2188 124.229 60.3125 123.406 60.3125ZM123.031 45.1562C122.448 45.1562 121.896 45.2656 121.375 45.4844C120.854 45.6927 120.385 46.0052 119.969 46.4219C119.552 46.8281 119.198 47.3333 118.906 47.9375C118.625 48.5312 118.427 49.2188 118.312 50H127.406V49.7812C127.375 49.2188 127.266 48.6615 127.078 48.1094C126.901 47.5573 126.635 47.0625 126.281 46.625C125.927 46.1875 125.479 45.8333 124.938 45.5625C124.406 45.2917 123.771 45.1562 123.031 45.1562ZM146.266 60C146.151 59.7812 146.057 59.5104 145.984 59.1875C145.922 58.8542 145.875 58.5104 145.844 58.1562C145.552 58.4479 145.224 58.724 144.859 58.9844C144.505 59.2448 144.109 59.474 143.672 59.6719C143.245 59.8698 142.786 60.026 142.297 60.1406C141.807 60.2552 141.286 60.3125 140.734 60.3125C139.839 60.3125 139.026 60.1823 138.297 59.9219C137.578 59.6615 136.964 59.3125 136.453 58.875C135.953 58.4271 135.562 57.901 135.281 57.2969C135.01 56.6823 134.875 56.0208 134.875 55.3125C134.875 54.3854 135.057 53.5729 135.422 52.875C135.797 52.1771 136.323 51.599 137 51.1406C137.677 50.6719 138.49 50.3229 139.438 50.0938C140.396 49.8646 141.464 49.75 142.641 49.75H145.797V48.4219C145.797 47.9115 145.703 47.4531 145.516 47.0469C145.328 46.6406 145.062 46.2969 144.719 46.0156C144.375 45.724 143.953 45.5 143.453 45.3438C142.964 45.1875 142.411 45.1094 141.797 45.1094C141.224 45.1094 140.708 45.1823 140.25 45.3281C139.802 45.474 139.422 45.6667 139.109 45.9062C138.797 46.1458 138.552 46.4323 138.375 46.7656C138.208 47.0885 138.125 47.4271 138.125 47.7812H135.219C135.229 47.1667 135.385 46.5625 135.688 45.9688C136 45.375 136.443 44.8438 137.016 44.375C137.599 43.8958 138.302 43.5104 139.125 43.2188C139.958 42.9271 140.901 42.7812 141.953 42.7812C142.911 42.7812 143.802 42.901 144.625 43.1406C145.448 43.3698 146.156 43.724 146.75 44.2031C147.354 44.6719 147.828 45.2604 148.172 45.9688C148.516 46.6771 148.688 47.5052 148.688 48.4531V56.3125C148.688 56.875 148.74 57.474 148.844 58.1094C148.948 58.7344 149.094 59.2812 149.281 59.75V60H146.266ZM141.156 57.7969C141.719 57.7969 142.245 57.724 142.734 57.5781C143.224 57.4323 143.667 57.2396 144.062 57C144.469 56.7604 144.818 56.4896 145.109 56.1875C145.401 55.875 145.63 55.5521 145.797 55.2188V51.7969H143.109C141.422 51.7969 140.109 52.0469 139.172 52.5469C138.234 53.0469 137.766 53.8333 137.766 54.9062C137.766 55.3229 137.833 55.7083 137.969 56.0625C138.115 56.4167 138.328 56.724 138.609 56.9844C138.891 57.2344 139.245 57.4323 139.672 57.5781C140.099 57.724 140.594 57.7969 141.156 57.7969ZM161.578 57.9688C162.099 57.9688 162.604 57.8854 163.094 57.7188C163.594 57.5521 164.036 57.3229 164.422 57.0312C164.807 56.7292 165.115 56.3802 165.344 55.9844C165.583 55.5781 165.708 55.1406 165.719 54.6719H168.453C168.443 55.4219 168.245 56.1406 167.859 56.8281C167.484 57.5052 166.979 58.1042 166.344 58.625C165.708 59.1354 164.979 59.5469 164.156 59.8594C163.333 60.1615 162.474 60.3125 161.578 60.3125C160.297 60.3125 159.177 60.0833 158.219 59.625C157.26 59.1667 156.458 58.5521 155.812 57.7812C155.177 57 154.698 56.1042 154.375 55.0938C154.052 54.0729 153.891 53 153.891 51.875V51.2188C153.891 50.1042 154.052 49.0365 154.375 48.0156C154.698 46.9948 155.177 46.099 155.812 45.3281C156.458 44.5469 157.26 43.9271 158.219 43.4688C159.177 43.0104 160.297 42.7812 161.578 42.7812C162.578 42.7812 163.495 42.9427 164.328 43.2656C165.172 43.5781 165.896 44.0104 166.5 44.5625C167.115 45.1042 167.594 45.75 167.938 46.5C168.281 47.25 168.453 48.0521 168.453 48.9062H165.719C165.708 48.3958 165.594 47.9167 165.375 47.4688C165.167 47.0104 164.88 46.6094 164.516 46.2656C164.151 45.9219 163.714 45.651 163.203 45.4531C162.703 45.2552 162.161 45.1562 161.578 45.1562C160.682 45.1562 159.927 45.3385 159.312 45.7031C158.708 46.0573 158.219 46.526 157.844 47.1094C157.469 47.6823 157.198 48.3281 157.031 49.0469C156.875 49.7656 156.797 50.4896 156.797 51.2188V51.875C156.797 52.6146 156.875 53.349 157.031 54.0781C157.198 54.7969 157.464 55.4479 157.828 56.0312C158.203 56.6042 158.693 57.0729 159.297 57.4375C159.911 57.7917 160.672 57.9688 161.578 57.9688Z" fill="black"/>
</svg>
