<svg width="1080" height="490" viewBox="0 0 1080 490" fill="none" xmlns="http://www.w3.org/2000/svg">
<rect width="1080" height="490" fill="white"/>
<path d="M433.218 290.792V240.42H424.202V289.812C424.202 299.318 418.812 302.748 412.736 302.748C406.66 302.748 401.172 298.926 401.172 291.38H392.156C392.156 304.218 401.466 311.176 412.834 311.176C423.516 311.176 433.218 305.394 433.218 290.792ZM459.427 241.89C459.427 238.656 456.879 235.912 453.547 235.912C450.215 235.912 447.471 238.656 447.471 241.89C447.471 245.222 450.215 247.868 453.547 247.868C456.879 247.868 459.427 245.222 459.427 241.89ZM449.235 310H457.663V261H449.235V310ZM519.307 307.158V261H510.879V268.546C507.547 263.646 501.079 260.02 493.827 260.02C480.205 260.02 469.817 270.996 469.817 284.912C469.817 298.926 480.205 309.902 493.827 309.902C501.079 309.902 507.547 306.178 510.879 301.278V306.864C510.879 318.624 502.843 323.818 494.513 323.818C486.967 323.818 481.283 320.584 477.363 315.586L471.483 321.466C475.697 326.954 483.929 331.462 494.513 331.462C508.527 331.462 519.307 323.524 519.307 307.158ZM478.441 284.912C478.441 275.112 485.203 267.762 495.003 267.762C504.803 267.762 511.565 275.112 511.565 284.912C511.565 294.81 504.803 302.062 495.003 302.062C485.203 302.062 478.441 294.81 478.441 284.912ZM567.026 296.28C567.026 288.832 562.126 284.422 553.698 281.874L548.308 280.208C542.918 278.542 541.35 276.092 541.35 273.152C541.35 269.526 545.368 267.272 549.484 267.272C554.188 267.272 557.52 269.722 559.676 272.858L565.948 268.546C562.714 263.058 557.03 260.02 549.778 260.02C540.37 260.02 533.02 265.018 532.922 273.446C532.922 280.306 537.136 285.402 545.172 287.754L550.072 289.322C556.442 291.282 558.598 293.438 558.598 296.966C558.598 301.18 554.776 303.532 550.072 303.532C544.682 303.532 539.39 300.788 537.626 295.79L530.766 299.612C533.706 307.256 541.252 310.98 549.974 310.98C559.774 310.98 567.026 305.688 567.026 296.28ZM575.473 285.5C575.473 299.514 585.763 310.98 599.483 310.98C606.833 310.98 613.497 307.158 616.731 302.454V310H625.159V261H616.731V268.546C613.497 263.842 606.833 260.02 599.483 260.02C585.763 260.02 575.473 271.486 575.473 285.5ZM617.417 285.5C617.417 295.398 610.655 303.238 600.757 303.238C590.859 303.238 583.999 295.398 583.999 285.5C583.999 275.602 590.859 267.762 600.757 267.762C610.655 267.762 617.417 275.602 617.417 285.5ZM682.576 310H690.024L706.684 261H697.766L685.908 296.77L673.658 261H667.19L654.94 296.77L643.082 261H634.262L650.922 310H658.37L670.522 274.72L682.576 310ZM782.176 297.848L774.826 293.732C772.082 299.318 766.594 303.14 759.538 303.14C749.346 303.14 742.388 295.3 742.388 285.5C742.388 275.7 749.346 267.86 759.538 267.86C766.594 267.86 772.082 271.682 774.826 277.268L782.176 273.152C777.864 265.312 769.632 260.02 759.538 260.02C744.74 260.02 733.862 271.29 733.862 285.5C733.862 299.71 744.74 310.98 759.538 310.98C769.632 310.98 777.864 305.688 782.176 297.848ZM840.43 285.5C840.43 271.388 829.552 260.02 814.852 260.02C800.054 260.02 789.176 271.388 789.176 285.5C789.176 299.612 800.054 310.98 814.852 310.98C829.552 310.98 840.43 299.612 840.43 285.5ZM797.8 285.5C797.8 275.7 804.66 267.86 814.852 267.86C825.044 267.86 831.806 275.7 831.806 285.5C831.806 295.3 825.044 303.14 814.852 303.14C804.66 303.14 797.8 295.3 797.8 285.5Z" fill="#6167EA"/>
<path d="M404 473.66H442V435.66H404V473.66Z"/>
<mask id="path-3-outside-1" maskUnits="userSpaceOnUse" x="197.257" y="167" width="194" height="170" fill="black">
<rect fill="white" x="197.257" y="167" width="194" height="170"/>
<path d="M388.102 267.275L388.098 267.279C388.098 268.759 386.919 268.73 385.845 268.217C384.067 267.367 382.677 267.237 380.752 267.71C378.555 268.249 376.776 269.915 377.369 272.338C377.926 274.62 381.156 276.199 377.174 278.212C375.354 279.133 372.708 279.259 371.075 277.903C368.739 275.963 371.866 274.153 371.981 271.651C372.093 269.22 370.474 267.577 368.035 267.6C364.231 267.635 361.501 271.442 360.514 267.065C360.251 265.9 360.17 264.051 360.795 262.989C361.512 261.769 364.544 263.684 366.369 263.849C375.102 264.637 373.146 249.996 366.063 252.447C365.127 252.771 361.89 254.082 361.433 253.16C360.602 251.481 360.659 248.613 361.352 246.897C362.073 245.115 363.308 245.902 364.876 246.49C366.012 246.917 366.877 247.241 368.848 247.091C375.632 246.573 371.686 241.235 371.644 239.193C371.577 235.982 378.569 234.905 379.261 239.343C379.415 240.333 378.652 241.248 378.122 242.311C376.018 246.535 379.88 247.573 383.166 247.419C385.318 247.319 388.17 245.703 388.163 247.711L388.102 267.275ZM246.644 304.461C247.053 303.754 245.978 303.13 245.569 303.837L239.992 313.518C239.582 314.226 240.658 314.85 241.067 314.142L246.644 304.461ZM208.061 273.245L198.152 290.444C197.47 291.624 199.262 292.664 199.944 291.484L209.151 275.502C210.007 276.904 211.514 278.576 213.547 280.403C221.426 287.488 235.214 296.197 244.993 300.26C247.62 301.352 249.849 302.001 251.503 302.135L242.768 317.296C242.092 318.475 243.884 319.507 244.56 318.328L253.751 302.375C254.54 301.005 255.134 300.409 254.245 298.661C253.873 297.929 253.239 297.067 252.379 296.106C256.692 290.355 260.974 285.707 264.967 281.374C271.94 273.806 278.042 267.183 282.048 257.205C283.473 253.655 284.437 249.91 285.412 246.117L285.491 245.81C286.097 246.39 286.464 247.172 286.685 247.94C287.043 249.184 287.034 250.412 287.027 250.846C286.918 257.247 301.118 259.557 301.75 248.716C301.936 245.528 300.642 241.605 298.581 238.111C296.746 235 294.281 232.194 291.693 230.519C292.243 229.739 292.825 228.967 293.429 228.206C295.507 229.774 298.311 232.036 300.33 235.831C301.666 238.34 304.165 241.655 307.274 243.686C313.89 248.008 322.285 244.571 320.033 235.927C318.881 231.501 314.664 226.327 311.928 222.827C309.938 220.281 307.782 217.722 305.841 215.782C306.686 215.104 307.518 214.492 308.343 213.924C310.186 215.841 312.455 217.88 314.884 219.827C317.6 222.004 320.504 224.063 323.226 225.707C335.576 233.166 345.703 222.163 333.846 213.361C332.301 212.213 329.142 209.702 326.418 207.223C324.977 205.911 323.671 204.62 322.823 203.575C326.244 200.139 330.872 194.855 330.368 189.77C330.314 189.224 330.172 188.772 330.993 189.351C332.514 190.424 332.307 193.223 331.584 194.744C330.383 197.267 331.369 199.976 334.393 199.976V199.971L353.531 200.062C355.635 200.062 356.61 199.41 356.992 198.386C357.715 196.452 354.989 192.268 356.716 189.947C357.395 189.034 358.448 189.723 359.178 190.17C360.854 191.197 362.085 191.481 363.9 190.692C368.227 188.809 368.369 182.487 364.767 180.052C363.3 179.06 361.602 179.146 360.102 180.011C358.21 181.102 356.783 180.789 356.606 178.45C356.489 176.916 356.742 176.238 357.075 175.347C358.046 172.75 358.691 170.46 355.51 169.167C353.263 168.255 349.759 168.223 347.566 169.313C344.928 170.625 346.538 174.453 347.239 176.488C348.945 181.439 336.977 181.117 341.187 173.956C345.828 166.061 329.159 166.631 330.384 172.065C330.804 173.925 331.987 175.877 332.005 177.806C332.023 179.751 329.947 180.196 328.792 179.237C328.698 179.159 328.605 179.085 328.512 179.015C325.086 169.804 303.657 171.583 289.743 172.738C276.214 173.86 265.557 176.804 252.73 180.801C245.286 183.12 239.817 189.457 235.569 198.034C223.614 222.172 225.279 249.363 214.251 271.983C211.445 271.043 208.977 271.227 208.061 273.245ZM211.499 273.472C212.012 273.538 212.618 273.67 213.306 273.864C212.92 274.611 212.515 275.37 212.089 276.143C211.431 275.453 210.939 274.869 210.638 274.413C209.83 273.189 210.495 273.344 211.499 273.472ZM251.571 298.362C251.777 298.625 251.956 298.872 252.105 299.103C252.871 300.287 252.816 300.537 251.314 300.244C251.072 300.197 250.801 300.133 250.502 300.051C249.652 299.819 249.604 299.96 250.062 299.305C250.272 299.005 250.482 298.707 250.692 298.412C251.179 297.729 251.038 297.684 251.571 298.362ZM247.688 299.102C247.097 298.877 246.462 298.623 245.787 298.343C236.222 294.368 222.632 285.79 214.925 278.86C214.458 278.44 214.022 278.038 213.618 277.656C227.346 253.055 224.755 224.536 237.426 198.952C241.432 190.864 246.518 184.911 253.346 182.783C266.043 178.827 276.519 175.921 289.913 174.81C302.025 173.804 320.098 172.304 325.396 177.88C324.751 177.894 324.152 178.061 323.612 178.352C323.086 178.635 322.619 179.031 322.222 179.511C321.538 180.338 321.053 181.433 320.834 182.623C320.663 183.545 320.82 183.326 319.964 183.453C317.364 183.841 314.741 184.839 312.319 186.007C310.631 186.821 310.979 186.778 309.103 186.803C303.754 186.877 298.589 187.799 293.467 189.055C290.076 189.887 281.619 192.012 277.567 193.691C275.992 194.343 276.726 194.305 275.989 192.735C275.618 191.947 275.066 191.128 274.306 190.363C273.347 189.396 271.879 190.858 272.839 191.825C273.418 192.409 273.837 193.029 274.116 193.621C274.852 195.187 274.59 195.328 273.67 196.555C272.652 197.912 271.121 199.953 269.898 203.281C269.701 203.819 269.977 204.416 270.514 204.613C271.052 204.81 271.647 204.534 271.844 203.996C272.83 201.312 274.096 199.362 275.829 197.178C277.399 195.199 290.236 191.986 293.824 191.053C295.11 190.719 295.151 190.582 296.444 190.917C297.69 191.24 298.645 191.694 299.485 192.113C301.501 193.117 300.936 193.333 299.407 194.458C297.035 196.203 293.937 198.28 289.912 200.802C288.029 200.163 286.631 199.938 285.144 200.045C283.639 200.153 282.11 200.605 279.895 201.309C279.351 201.482 279.05 202.064 279.223 202.609C279.395 203.155 279.976 203.457 280.52 203.284C282.576 202.629 283.988 202.211 285.29 202.117C286.01 202.065 286.718 202.114 287.516 202.28C283.948 204.448 280.258 206.533 277.061 208.074C276.142 208.423 275.184 208.575 274.223 208.564C272.111 208.539 269.979 207.73 268.203 206.496C266.188 205.097 263.965 202.585 263.995 199.964C264.006 198.601 261.939 198.585 261.928 199.948C261.889 203.297 264.417 206.39 267.027 208.202C267.8 208.739 268.633 209.207 269.507 209.586C271.736 210.552 272.143 210.51 268.954 210.871C267.203 211.069 265.548 210.87 263.422 210.424C262.088 210.146 261.667 212.177 263 212.455C265.336 212.945 267.176 213.162 269.181 212.935C271.174 212.709 273.274 212.051 276.125 210.795C279.912 209.125 284.645 206.47 289.133 203.723C295.113 200.064 300.678 196.228 302.975 194.362C304.957 192.752 308.056 190.58 311.465 188.766C314.753 187.015 319.378 185.02 323.112 185.389C325.634 185.639 328.033 187.193 328.308 189.973C328.726 194.181 324.385 199.099 321.348 202.122C318.349 205.107 315.221 207.199 311.602 209.4C309.016 210.973 306.406 212.56 303.647 214.906C303.628 214.922 303.609 214.938 303.59 214.955L303.513 215.021C300.58 217.538 296.831 221.012 293.469 224.911C290.07 228.855 287.062 233.239 285.664 237.539C284.984 239.628 284.405 241.766 283.849 243.902C283.845 243.915 283.842 243.928 283.839 243.941C283.695 244.496 283.552 245.051 283.41 245.605C282.455 249.316 281.512 252.982 280.127 256.433C276.265 266.052 270.281 272.547 263.442 279.968C258.49 285.343 253.097 291.197 247.688 299.102ZM354.857 330.75C354.892 329.671 359.714 322.211 352.492 322.284C350.043 322.309 348.505 323.473 346.364 323.963C344.977 324.28 344.237 319.185 345.127 317.648C345.796 316.492 348.918 318.377 350.689 318.535C359.435 319.314 357.202 304.669 350.158 307.133C349.286 307.438 346.027 308.791 345.528 307.831C344.665 306.166 344.637 303.303 345.297 301.568C345.976 299.785 347.243 300.606 348.793 301.181C351.769 302.286 357.104 302.14 356.77 297.804C356.637 296.087 355.433 295.019 355.406 293.806C355.329 290.22 362.889 290.22 362.811 293.806C362.785 295.019 361.58 296.087 361.448 297.804C361.068 302.727 365.5 302.443 370.112 300.933C371.538 300.448 372.329 300.015 372.92 301.568C373.581 303.303 373.553 306.166 372.689 307.831C372.262 308.653 369.929 307.808 368.534 307.303C360.65 304.446 358.933 319.301 367.529 318.535C369.299 318.377 372.422 316.492 373.091 317.648C373.98 319.185 373.24 324.28 371.854 323.963C369.712 323.473 368.175 322.309 365.726 322.284C358.503 322.211 363.326 329.671 363.36 330.75C363.48 334.481 354.737 334.481 354.857 330.75ZM365.428 330.685C365.379 329.166 361.595 324.315 365.71 324.356C367.618 324.376 369.558 325.565 371.399 325.986C375.166 326.847 376.519 319.436 374.883 316.608C372.927 313.231 370.113 316.225 367.351 316.471C362.097 316.939 363.178 307.568 367.828 309.253C369.863 309.99 373.267 311.223 374.53 308.789C375.659 306.612 375.724 303.103 374.858 300.829C373.792 298.029 371.926 298.124 369.447 298.967C360.415 302.038 364.805 297.251 364.879 293.847C365.016 287.529 353.198 287.386 353.339 293.847C353.379 295.668 354.589 296.484 354.702 297.959C354.895 300.462 350.803 299.713 349.506 299.231C346.86 298.249 344.574 297.64 343.359 300.829C342.494 303.103 342.558 306.612 343.688 308.789C345.039 311.393 348.794 309.806 350.839 309.091C354.652 307.757 356.292 316.954 350.867 316.471C348.105 316.225 345.29 313.231 343.335 316.608C341.698 319.435 343.051 326.847 346.818 325.986C348.66 325.565 350.6 324.376 352.508 324.356C356.622 324.315 352.838 329.166 352.79 330.685C352.578 337.278 365.64 337.278 365.428 330.685ZM302.116 191.161C301.758 190.911 301.379 190.673 300.969 190.445C299.735 189.761 299.271 189.923 301.161 189.655C302.446 189.472 303.808 189.297 305.238 189.14C307.455 188.896 307.191 188.805 305.492 189.946C304.851 190.377 304.243 190.803 303.678 191.214C302.708 191.92 303.089 191.841 302.116 191.161ZM290.54 232.238C292.856 233.721 295.101 236.291 296.797 239.167C298.667 242.336 299.844 245.834 299.682 248.602C299.205 256.78 289.032 254.54 289.094 250.879C289.103 250.364 289.112 248.905 288.671 247.371C288.268 245.972 287.502 244.53 286.055 243.638C286.533 241.827 287.041 240.006 287.634 238.18C288.274 236.213 289.289 234.211 290.54 232.238ZM304.251 217.123C306.162 219.014 308.313 221.562 310.298 224.102C312.801 227.304 316.974 232.392 318.031 236.447C319.811 243.283 313.359 245.187 308.401 241.948C305.619 240.13 303.366 237.132 302.155 234.856C299.943 230.7 296.967 228.277 294.75 226.601C294.844 226.49 294.939 226.379 295.034 226.268C298.086 222.729 301.477 219.538 304.251 217.123ZM321.322 205.015C322.252 206.133 323.579 207.444 325.023 208.758C327.79 211.276 331.025 213.847 332.614 215.026C342.489 222.358 334.196 229.907 324.296 223.928C321.618 222.31 318.791 220.309 316.173 218.21C313.928 216.41 311.829 214.535 310.097 212.763C310.961 212.212 311.818 211.691 312.673 211.171C315.526 209.437 318.352 207.718 321.322 205.015ZM322.967 182.552C323.145 181.891 323.437 181.298 323.819 180.836C324.05 180.556 324.31 180.332 324.593 180.18C324.856 180.038 325.142 179.957 325.444 179.952C326.027 179.942 326.71 180.206 327.47 180.837C329.955 182.9 334.107 181.535 334.072 177.79C334.05 175.347 332.888 173.762 332.403 171.61C332.059 170.086 341.962 168.554 339.403 172.908C333.046 183.723 352.269 184.741 349.193 175.813C348.348 173.362 347.576 171.813 348.714 171.075C349.995 170.244 353.341 170.528 354.731 171.093C356.546 171.83 355.647 173.26 355.137 174.624C354.711 175.763 354.388 176.629 354.538 178.605C354.834 182.498 357.901 183.67 361.132 181.807C361.948 181.336 362.797 181.227 363.608 181.775C365.86 183.297 365.901 187.564 363.081 188.79C361.907 189.301 361.341 189.063 360.256 188.399C358.521 187.336 356.531 186.725 355.054 188.712C352.388 192.296 356.703 197.989 353.534 197.99L334.397 197.9L334.393 197.896C332.925 197.896 332.939 196.726 333.457 195.637C335.043 192.304 333.92 186.277 329.562 187.096C328.396 184.983 326.079 183.721 323.742 183.378C322.871 183.25 322.7 183.543 322.967 182.552ZM328.321 294.163C327.028 293.12 327.225 291.723 328.21 290.497C330.231 287.98 328.743 283.857 325.046 283.895C323.939 283.906 322.785 284.229 321.687 284.607C319.063 285.511 318.235 286.639 317.45 283.192C317.195 282.073 317.086 280.286 317.68 279.259C318.35 278.103 321.472 279.988 323.242 280.145C331.134 280.849 330.087 268.994 324.632 268.481C322.887 268.317 318.681 270.595 318.082 269.442C317.218 267.777 317.19 264.914 317.851 263.179C318.664 261.043 322.644 263.593 325.328 263.385C329.249 263.081 330.313 259.965 328.396 256.759C328.103 256.27 327.969 255.82 327.96 255.417C327.882 251.831 335.443 251.831 335.365 255.417C335.356 255.82 335.222 256.27 334.929 256.759C333.012 259.965 334.076 263.081 337.998 263.385C340.11 263.549 340.823 263.171 342.666 262.544C344.092 262.059 344.883 261.626 345.474 263.179C345.806 264.05 345.973 265.252 345.925 266.464C345.761 270.632 344.522 270.157 341.088 268.914C333.194 266.057 331.485 280.912 340.083 280.145C341.853 279.988 344.975 278.103 345.645 279.259C346.534 280.795 345.794 285.89 344.407 285.573C342.266 285.084 340.728 283.92 338.279 283.895C334.582 283.857 333.094 287.98 335.115 290.497C336.1 291.723 336.297 293.12 335.004 294.163C333.305 295.532 330.02 295.532 328.321 294.163ZM327.024 295.78C329.494 297.771 333.831 297.771 336.301 295.78C338.491 294.014 338.441 291.33 336.729 289.197C335.78 288.016 336.345 285.947 338.263 285.967C340.171 285.986 342.111 287.175 343.953 287.596C347.72 288.458 349.073 281.046 347.437 278.219C345.481 274.841 342.666 277.836 339.904 278.082C334.653 278.55 335.717 269.175 340.382 270.864C345.33 272.656 347.773 272.136 347.993 266.546C348.051 265.056 347.836 263.553 347.412 262.44C346.346 259.64 344.48 259.735 342.001 260.578C340.509 261.085 339.874 261.447 338.152 261.313C335.8 261.131 335.593 259.682 336.705 257.823C337.191 257.01 337.416 256.213 337.432 255.458C337.571 249.05 325.753 249.05 325.893 255.458C325.909 256.213 326.134 257.01 326.62 257.823C327.732 259.682 327.525 261.131 325.174 261.313C322.583 261.514 320.109 259.625 318.087 260.147C317.079 260.407 316.418 261.113 315.913 262.44C315.047 264.714 315.112 268.223 316.242 270.4C318.033 273.852 322.656 270.168 324.583 270.621C327.484 271.303 328.239 278.511 323.421 278.082C320.659 277.836 317.844 274.841 315.889 278.219C315.007 279.741 315.051 281.976 315.431 283.647C316.55 288.559 318.594 287.871 322.36 286.573C323.297 286.25 324.255 285.975 325.062 285.967C326.98 285.947 327.545 288.016 326.596 289.197C324.884 291.329 324.834 294.015 327.024 295.78ZM390.257 247.729C390.265 245.875 389.549 244.992 388.588 244.631C387.367 244.173 384.541 245.269 383.124 245.416C381.104 245.625 378.78 245.352 380.075 242.904C380.636 241.844 381.604 240.948 381.304 239.026C380.222 232.091 369.455 233.417 369.576 239.234C369.622 241.407 372.886 244.699 368.694 245.019C367.163 245.136 366.487 244.882 365.597 244.548C362.934 243.549 360.71 242.954 359.431 246.117C358.52 248.369 358.488 251.88 359.576 254.078C360.885 256.721 364.706 255.108 366.736 254.406C370.594 253.07 371.961 262.274 366.547 261.785C363.767 261.534 361.022 258.521 359.011 261.941C358.094 263.501 358.106 265.798 358.495 267.52C360.042 274.38 364.043 269.709 368.052 269.672C369.297 269.66 369.971 270.324 369.914 271.562C369.821 273.572 367.026 274.794 368.547 277.975C370.549 282.164 377.86 281.694 380.42 278.196C381.046 277.341 381.348 276.339 381.128 275.227C380.818 273.658 379.675 273.059 379.379 271.85C379.076 270.609 380.2 269.98 381.239 269.725C382.7 269.366 383.608 269.451 384.953 270.094C387.431 271.278 390.151 270.341 390.164 267.585L390.257 247.729Z"/>
</mask>
<path d="M388.102 267.275L388.098 267.279C388.098 268.759 386.919 268.73 385.845 268.217C384.067 267.367 382.677 267.237 380.752 267.71C378.555 268.249 376.776 269.915 377.369 272.338C377.926 274.62 381.156 276.199 377.174 278.212C375.354 279.133 372.708 279.259 371.075 277.903C368.739 275.963 371.866 274.153 371.981 271.651C372.093 269.22 370.474 267.577 368.035 267.6C364.231 267.635 361.501 271.442 360.514 267.065C360.251 265.9 360.17 264.051 360.795 262.989C361.512 261.769 364.544 263.684 366.369 263.849C375.102 264.637 373.146 249.996 366.063 252.447C365.127 252.771 361.89 254.082 361.433 253.16C360.602 251.481 360.659 248.613 361.352 246.897C362.073 245.115 363.308 245.902 364.876 246.49C366.012 246.917 366.877 247.241 368.848 247.091C375.632 246.573 371.686 241.235 371.644 239.193C371.577 235.982 378.569 234.905 379.261 239.343C379.415 240.333 378.652 241.248 378.122 242.311C376.018 246.535 379.88 247.573 383.166 247.419C385.318 247.319 388.17 245.703 388.163 247.711L388.102 267.275ZM246.644 304.461C247.053 303.754 245.978 303.13 245.569 303.837L239.992 313.518C239.582 314.226 240.658 314.85 241.067 314.142L246.644 304.461ZM208.061 273.245L198.152 290.444C197.47 291.624 199.262 292.664 199.944 291.484L209.151 275.502C210.007 276.904 211.514 278.576 213.547 280.403C221.426 287.488 235.214 296.197 244.993 300.26C247.62 301.352 249.849 302.001 251.503 302.135L242.768 317.296C242.092 318.475 243.884 319.507 244.56 318.328L253.751 302.375C254.54 301.005 255.134 300.409 254.245 298.661C253.873 297.929 253.239 297.067 252.379 296.106C256.692 290.355 260.974 285.707 264.967 281.374C271.94 273.806 278.042 267.183 282.048 257.205C283.473 253.655 284.437 249.91 285.412 246.117L285.491 245.81C286.097 246.39 286.464 247.172 286.685 247.94C287.043 249.184 287.034 250.412 287.027 250.846C286.918 257.247 301.118 259.557 301.75 248.716C301.936 245.528 300.642 241.605 298.581 238.111C296.746 235 294.281 232.194 291.693 230.519C292.243 229.739 292.825 228.967 293.429 228.206C295.507 229.774 298.311 232.036 300.33 235.831C301.666 238.34 304.165 241.655 307.274 243.686C313.89 248.008 322.285 244.571 320.033 235.927C318.881 231.501 314.664 226.327 311.928 222.827C309.938 220.281 307.782 217.722 305.841 215.782C306.686 215.104 307.518 214.492 308.343 213.924C310.186 215.841 312.455 217.88 314.884 219.827C317.6 222.004 320.504 224.063 323.226 225.707C335.576 233.166 345.703 222.163 333.846 213.361C332.301 212.213 329.142 209.702 326.418 207.223C324.977 205.911 323.671 204.62 322.823 203.575C326.244 200.139 330.872 194.855 330.368 189.77C330.314 189.224 330.172 188.772 330.993 189.351C332.514 190.424 332.307 193.223 331.584 194.744C330.383 197.267 331.369 199.976 334.393 199.976V199.971L353.531 200.062C355.635 200.062 356.61 199.41 356.992 198.386C357.715 196.452 354.989 192.268 356.716 189.947C357.395 189.034 358.448 189.723 359.178 190.17C360.854 191.197 362.085 191.481 363.9 190.692C368.227 188.809 368.369 182.487 364.767 180.052C363.3 179.06 361.602 179.146 360.102 180.011C358.21 181.102 356.783 180.789 356.606 178.45C356.489 176.916 356.742 176.238 357.075 175.347C358.046 172.75 358.691 170.46 355.51 169.167C353.263 168.255 349.759 168.223 347.566 169.313C344.928 170.625 346.538 174.453 347.239 176.488C348.945 181.439 336.977 181.117 341.187 173.956C345.828 166.061 329.159 166.631 330.384 172.065C330.804 173.925 331.987 175.877 332.005 177.806C332.023 179.751 329.947 180.196 328.792 179.237C328.698 179.159 328.605 179.085 328.512 179.015C325.086 169.804 303.657 171.583 289.743 172.738C276.214 173.86 265.557 176.804 252.73 180.801C245.286 183.12 239.817 189.457 235.569 198.034C223.614 222.172 225.279 249.363 214.251 271.983C211.445 271.043 208.977 271.227 208.061 273.245ZM211.499 273.472C212.012 273.538 212.618 273.67 213.306 273.864C212.92 274.611 212.515 275.37 212.089 276.143C211.431 275.453 210.939 274.869 210.638 274.413C209.83 273.189 210.495 273.344 211.499 273.472ZM251.571 298.362C251.777 298.625 251.956 298.872 252.105 299.103C252.871 300.287 252.816 300.537 251.314 300.244C251.072 300.197 250.801 300.133 250.502 300.051C249.652 299.819 249.604 299.96 250.062 299.305C250.272 299.005 250.482 298.707 250.692 298.412C251.179 297.729 251.038 297.684 251.571 298.362ZM247.688 299.102C247.097 298.877 246.462 298.623 245.787 298.343C236.222 294.368 222.632 285.79 214.925 278.86C214.458 278.44 214.022 278.038 213.618 277.656C227.346 253.055 224.755 224.536 237.426 198.952C241.432 190.864 246.518 184.911 253.346 182.783C266.043 178.827 276.519 175.921 289.913 174.81C302.025 173.804 320.098 172.304 325.396 177.88C324.751 177.894 324.152 178.061 323.612 178.352C323.086 178.635 322.619 179.031 322.222 179.511C321.538 180.338 321.053 181.433 320.834 182.623C320.663 183.545 320.82 183.326 319.964 183.453C317.364 183.841 314.741 184.839 312.319 186.007C310.631 186.821 310.979 186.778 309.103 186.803C303.754 186.877 298.589 187.799 293.467 189.055C290.076 189.887 281.619 192.012 277.567 193.691C275.992 194.343 276.726 194.305 275.989 192.735C275.618 191.947 275.066 191.128 274.306 190.363C273.347 189.396 271.879 190.858 272.839 191.825C273.418 192.409 273.837 193.029 274.116 193.621C274.852 195.187 274.59 195.328 273.67 196.555C272.652 197.912 271.121 199.953 269.898 203.281C269.701 203.819 269.977 204.416 270.514 204.613C271.052 204.81 271.647 204.534 271.844 203.996C272.83 201.312 274.096 199.362 275.829 197.178C277.399 195.199 290.236 191.986 293.824 191.053C295.11 190.719 295.151 190.582 296.444 190.917C297.69 191.24 298.645 191.694 299.485 192.113C301.501 193.117 300.936 193.333 299.407 194.458C297.035 196.203 293.937 198.28 289.912 200.802C288.029 200.163 286.631 199.938 285.144 200.045C283.639 200.153 282.11 200.605 279.895 201.309C279.351 201.482 279.05 202.064 279.223 202.609C279.395 203.155 279.976 203.457 280.52 203.284C282.576 202.629 283.988 202.211 285.29 202.117C286.01 202.065 286.718 202.114 287.516 202.28C283.948 204.448 280.258 206.533 277.061 208.074C276.142 208.423 275.184 208.575 274.223 208.564C272.111 208.539 269.979 207.73 268.203 206.496C266.188 205.097 263.965 202.585 263.995 199.964C264.006 198.601 261.939 198.585 261.928 199.948C261.889 203.297 264.417 206.39 267.027 208.202C267.8 208.739 268.633 209.207 269.507 209.586C271.736 210.552 272.143 210.51 268.954 210.871C267.203 211.069 265.548 210.87 263.422 210.424C262.088 210.146 261.667 212.177 263 212.455C265.336 212.945 267.176 213.162 269.181 212.935C271.174 212.709 273.274 212.051 276.125 210.795C279.912 209.125 284.645 206.47 289.133 203.723C295.113 200.064 300.678 196.228 302.975 194.362C304.957 192.752 308.056 190.58 311.465 188.766C314.753 187.015 319.378 185.02 323.112 185.389C325.634 185.639 328.033 187.193 328.308 189.973C328.726 194.181 324.385 199.099 321.348 202.122C318.349 205.107 315.221 207.199 311.602 209.4C309.016 210.973 306.406 212.56 303.647 214.906C303.628 214.922 303.609 214.938 303.59 214.955L303.513 215.021C300.58 217.538 296.831 221.012 293.469 224.911C290.07 228.855 287.062 233.239 285.664 237.539C284.984 239.628 284.405 241.766 283.849 243.902C283.845 243.915 283.842 243.928 283.839 243.941C283.695 244.496 283.552 245.051 283.41 245.605C282.455 249.316 281.512 252.982 280.127 256.433C276.265 266.052 270.281 272.547 263.442 279.968C258.49 285.343 253.097 291.197 247.688 299.102ZM354.857 330.75C354.892 329.671 359.714 322.211 352.492 322.284C350.043 322.309 348.505 323.473 346.364 323.963C344.977 324.28 344.237 319.185 345.127 317.648C345.796 316.492 348.918 318.377 350.689 318.535C359.435 319.314 357.202 304.669 350.158 307.133C349.286 307.438 346.027 308.791 345.528 307.831C344.665 306.166 344.637 303.303 345.297 301.568C345.976 299.785 347.243 300.606 348.793 301.181C351.769 302.286 357.104 302.14 356.77 297.804C356.637 296.087 355.433 295.019 355.406 293.806C355.329 290.22 362.889 290.22 362.811 293.806C362.785 295.019 361.58 296.087 361.448 297.804C361.068 302.727 365.5 302.443 370.112 300.933C371.538 300.448 372.329 300.015 372.92 301.568C373.581 303.303 373.553 306.166 372.689 307.831C372.262 308.653 369.929 307.808 368.534 307.303C360.65 304.446 358.933 319.301 367.529 318.535C369.299 318.377 372.422 316.492 373.091 317.648C373.98 319.185 373.24 324.28 371.854 323.963C369.712 323.473 368.175 322.309 365.726 322.284C358.503 322.211 363.326 329.671 363.36 330.75C363.48 334.481 354.737 334.481 354.857 330.75ZM365.428 330.685C365.379 329.166 361.595 324.315 365.71 324.356C367.618 324.376 369.558 325.565 371.399 325.986C375.166 326.847 376.519 319.436 374.883 316.608C372.927 313.231 370.113 316.225 367.351 316.471C362.097 316.939 363.178 307.568 367.828 309.253C369.863 309.99 373.267 311.223 374.53 308.789C375.659 306.612 375.724 303.103 374.858 300.829C373.792 298.029 371.926 298.124 369.447 298.967C360.415 302.038 364.805 297.251 364.879 293.847C365.016 287.529 353.198 287.386 353.339 293.847C353.379 295.668 354.589 296.484 354.702 297.959C354.895 300.462 350.803 299.713 349.506 299.231C346.86 298.249 344.574 297.64 343.359 300.829C342.494 303.103 342.558 306.612 343.688 308.789C345.039 311.393 348.794 309.806 350.839 309.091C354.652 307.757 356.292 316.954 350.867 316.471C348.105 316.225 345.29 313.231 343.335 316.608C341.698 319.435 343.051 326.847 346.818 325.986C348.66 325.565 350.6 324.376 352.508 324.356C356.622 324.315 352.838 329.166 352.79 330.685C352.578 337.278 365.64 337.278 365.428 330.685ZM302.116 191.161C301.758 190.911 301.379 190.673 300.969 190.445C299.735 189.761 299.271 189.923 301.161 189.655C302.446 189.472 303.808 189.297 305.238 189.14C307.455 188.896 307.191 188.805 305.492 189.946C304.851 190.377 304.243 190.803 303.678 191.214C302.708 191.92 303.089 191.841 302.116 191.161ZM290.54 232.238C292.856 233.721 295.101 236.291 296.797 239.167C298.667 242.336 299.844 245.834 299.682 248.602C299.205 256.78 289.032 254.54 289.094 250.879C289.103 250.364 289.112 248.905 288.671 247.371C288.268 245.972 287.502 244.53 286.055 243.638C286.533 241.827 287.041 240.006 287.634 238.18C288.274 236.213 289.289 234.211 290.54 232.238ZM304.251 217.123C306.162 219.014 308.313 221.562 310.298 224.102C312.801 227.304 316.974 232.392 318.031 236.447C319.811 243.283 313.359 245.187 308.401 241.948C305.619 240.13 303.366 237.132 302.155 234.856C299.943 230.7 296.967 228.277 294.75 226.601C294.844 226.49 294.939 226.379 295.034 226.268C298.086 222.729 301.477 219.538 304.251 217.123ZM321.322 205.015C322.252 206.133 323.579 207.444 325.023 208.758C327.79 211.276 331.025 213.847 332.614 215.026C342.489 222.358 334.196 229.907 324.296 223.928C321.618 222.31 318.791 220.309 316.173 218.21C313.928 216.41 311.829 214.535 310.097 212.763C310.961 212.212 311.818 211.691 312.673 211.171C315.526 209.437 318.352 207.718 321.322 205.015ZM322.967 182.552C323.145 181.891 323.437 181.298 323.819 180.836C324.05 180.556 324.31 180.332 324.593 180.18C324.856 180.038 325.142 179.957 325.444 179.952C326.027 179.942 326.71 180.206 327.47 180.837C329.955 182.9 334.107 181.535 334.072 177.79C334.05 175.347 332.888 173.762 332.403 171.61C332.059 170.086 341.962 168.554 339.403 172.908C333.046 183.723 352.269 184.741 349.193 175.813C348.348 173.362 347.576 171.813 348.714 171.075C349.995 170.244 353.341 170.528 354.731 171.093C356.546 171.83 355.647 173.26 355.137 174.624C354.711 175.763 354.388 176.629 354.538 178.605C354.834 182.498 357.901 183.67 361.132 181.807C361.948 181.336 362.797 181.227 363.608 181.775C365.86 183.297 365.901 187.564 363.081 188.79C361.907 189.301 361.341 189.063 360.256 188.399C358.521 187.336 356.531 186.725 355.054 188.712C352.388 192.296 356.703 197.989 353.534 197.99L334.397 197.9L334.393 197.896C332.925 197.896 332.939 196.726 333.457 195.637C335.043 192.304 333.92 186.277 329.562 187.096C328.396 184.983 326.079 183.721 323.742 183.378C322.871 183.25 322.7 183.543 322.967 182.552ZM328.321 294.163C327.028 293.12 327.225 291.723 328.21 290.497C330.231 287.98 328.743 283.857 325.046 283.895C323.939 283.906 322.785 284.229 321.687 284.607C319.063 285.511 318.235 286.639 317.45 283.192C317.195 282.073 317.086 280.286 317.68 279.259C318.35 278.103 321.472 279.988 323.242 280.145C331.134 280.849 330.087 268.994 324.632 268.481C322.887 268.317 318.681 270.595 318.082 269.442C317.218 267.777 317.19 264.914 317.851 263.179C318.664 261.043 322.644 263.593 325.328 263.385C329.249 263.081 330.313 259.965 328.396 256.759C328.103 256.27 327.969 255.82 327.96 255.417C327.882 251.831 335.443 251.831 335.365 255.417C335.356 255.82 335.222 256.27 334.929 256.759C333.012 259.965 334.076 263.081 337.998 263.385C340.11 263.549 340.823 263.171 342.666 262.544C344.092 262.059 344.883 261.626 345.474 263.179C345.806 264.05 345.973 265.252 345.925 266.464C345.761 270.632 344.522 270.157 341.088 268.914C333.194 266.057 331.485 280.912 340.083 280.145C341.853 279.988 344.975 278.103 345.645 279.259C346.534 280.795 345.794 285.89 344.407 285.573C342.266 285.084 340.728 283.92 338.279 283.895C334.582 283.857 333.094 287.98 335.115 290.497C336.1 291.723 336.297 293.12 335.004 294.163C333.305 295.532 330.02 295.532 328.321 294.163ZM327.024 295.78C329.494 297.771 333.831 297.771 336.301 295.78C338.491 294.014 338.441 291.33 336.729 289.197C335.78 288.016 336.345 285.947 338.263 285.967C340.171 285.986 342.111 287.175 343.953 287.596C347.72 288.458 349.073 281.046 347.437 278.219C345.481 274.841 342.666 277.836 339.904 278.082C334.653 278.55 335.717 269.175 340.382 270.864C345.33 272.656 347.773 272.136 347.993 266.546C348.051 265.056 347.836 263.553 347.412 262.44C346.346 259.64 344.48 259.735 342.001 260.578C340.509 261.085 339.874 261.447 338.152 261.313C335.8 261.131 335.593 259.682 336.705 257.823C337.191 257.01 337.416 256.213 337.432 255.458C337.571 249.05 325.753 249.05 325.893 255.458C325.909 256.213 326.134 257.01 326.62 257.823C327.732 259.682 327.525 261.131 325.174 261.313C322.583 261.514 320.109 259.625 318.087 260.147C317.079 260.407 316.418 261.113 315.913 262.44C315.047 264.714 315.112 268.223 316.242 270.4C318.033 273.852 322.656 270.168 324.583 270.621C327.484 271.303 328.239 278.511 323.421 278.082C320.659 277.836 317.844 274.841 315.889 278.219C315.007 279.741 315.051 281.976 315.431 283.647C316.55 288.559 318.594 287.871 322.36 286.573C323.297 286.25 324.255 285.975 325.062 285.967C326.98 285.947 327.545 288.016 326.596 289.197C324.884 291.329 324.834 294.015 327.024 295.78ZM390.257 247.729C390.265 245.875 389.549 244.992 388.588 244.631C387.367 244.173 384.541 245.269 383.124 245.416C381.104 245.625 378.78 245.352 380.075 242.904C380.636 241.844 381.604 240.948 381.304 239.026C380.222 232.091 369.455 233.417 369.576 239.234C369.622 241.407 372.886 244.699 368.694 245.019C367.163 245.136 366.487 244.882 365.597 244.548C362.934 243.549 360.71 242.954 359.431 246.117C358.52 248.369 358.488 251.88 359.576 254.078C360.885 256.721 364.706 255.108 366.736 254.406C370.594 253.07 371.961 262.274 366.547 261.785C363.767 261.534 361.022 258.521 359.011 261.941C358.094 263.501 358.106 265.798 358.495 267.52C360.042 274.38 364.043 269.709 368.052 269.672C369.297 269.66 369.971 270.324 369.914 271.562C369.821 273.572 367.026 274.794 368.547 277.975C370.549 282.164 377.86 281.694 380.42 278.196C381.046 277.341 381.348 276.339 381.128 275.227C380.818 273.658 379.675 273.059 379.379 271.85C379.076 270.609 380.2 269.98 381.239 269.725C382.7 269.366 383.608 269.451 384.953 270.094C387.431 271.278 390.151 270.341 390.164 267.585L390.257 247.729Z" fill="#6167EA"/>
<path d="M388.102 267.275L388.098 267.279C388.098 268.759 386.919 268.73 385.845 268.217C384.067 267.367 382.677 267.237 380.752 267.71C378.555 268.249 376.776 269.915 377.369 272.338C377.926 274.62 381.156 276.199 377.174 278.212C375.354 279.133 372.708 279.259 371.075 277.903C368.739 275.963 371.866 274.153 371.981 271.651C372.093 269.22 370.474 267.577 368.035 267.6C364.231 267.635 361.501 271.442 360.514 267.065C360.251 265.9 360.17 264.051 360.795 262.989C361.512 261.769 364.544 263.684 366.369 263.849C375.102 264.637 373.146 249.996 366.063 252.447C365.127 252.771 361.89 254.082 361.433 253.16C360.602 251.481 360.659 248.613 361.352 246.897C362.073 245.115 363.308 245.902 364.876 246.49C366.012 246.917 366.877 247.241 368.848 247.091C375.632 246.573 371.686 241.235 371.644 239.193C371.577 235.982 378.569 234.905 379.261 239.343C379.415 240.333 378.652 241.248 378.122 242.311C376.018 246.535 379.88 247.573 383.166 247.419C385.318 247.319 388.17 245.703 388.163 247.711L388.102 267.275ZM246.644 304.461C247.053 303.754 245.978 303.13 245.569 303.837L239.992 313.518C239.582 314.226 240.658 314.85 241.067 314.142L246.644 304.461ZM208.061 273.245L198.152 290.444C197.47 291.624 199.262 292.664 199.944 291.484L209.151 275.502C210.007 276.904 211.514 278.576 213.547 280.403C221.426 287.488 235.214 296.197 244.993 300.26C247.62 301.352 249.849 302.001 251.503 302.135L242.768 317.296C242.092 318.475 243.884 319.507 244.56 318.328L253.751 302.375C254.54 301.005 255.134 300.409 254.245 298.661C253.873 297.929 253.239 297.067 252.379 296.106C256.692 290.355 260.974 285.707 264.967 281.374C271.94 273.806 278.042 267.183 282.048 257.205C283.473 253.655 284.437 249.91 285.412 246.117L285.491 245.81C286.097 246.39 286.464 247.172 286.685 247.94C287.043 249.184 287.034 250.412 287.027 250.846C286.918 257.247 301.118 259.557 301.75 248.716C301.936 245.528 300.642 241.605 298.581 238.111C296.746 235 294.281 232.194 291.693 230.519C292.243 229.739 292.825 228.967 293.429 228.206C295.507 229.774 298.311 232.036 300.33 235.831C301.666 238.34 304.165 241.655 307.274 243.686C313.89 248.008 322.285 244.571 320.033 235.927C318.881 231.501 314.664 226.327 311.928 222.827C309.938 220.281 307.782 217.722 305.841 215.782C306.686 215.104 307.518 214.492 308.343 213.924C310.186 215.841 312.455 217.88 314.884 219.827C317.6 222.004 320.504 224.063 323.226 225.707C335.576 233.166 345.703 222.163 333.846 213.361C332.301 212.213 329.142 209.702 326.418 207.223C324.977 205.911 323.671 204.62 322.823 203.575C326.244 200.139 330.872 194.855 330.368 189.77C330.314 189.224 330.172 188.772 330.993 189.351C332.514 190.424 332.307 193.223 331.584 194.744C330.383 197.267 331.369 199.976 334.393 199.976V199.971L353.531 200.062C355.635 200.062 356.61 199.41 356.992 198.386C357.715 196.452 354.989 192.268 356.716 189.947C357.395 189.034 358.448 189.723 359.178 190.17C360.854 191.197 362.085 191.481 363.9 190.692C368.227 188.809 368.369 182.487 364.767 180.052C363.3 179.06 361.602 179.146 360.102 180.011C358.21 181.102 356.783 180.789 356.606 178.45C356.489 176.916 356.742 176.238 357.075 175.347C358.046 172.75 358.691 170.46 355.51 169.167C353.263 168.255 349.759 168.223 347.566 169.313C344.928 170.625 346.538 174.453 347.239 176.488C348.945 181.439 336.977 181.117 341.187 173.956C345.828 166.061 329.159 166.631 330.384 172.065C330.804 173.925 331.987 175.877 332.005 177.806C332.023 179.751 329.947 180.196 328.792 179.237C328.698 179.159 328.605 179.085 328.512 179.015C325.086 169.804 303.657 171.583 289.743 172.738C276.214 173.86 265.557 176.804 252.73 180.801C245.286 183.12 239.817 189.457 235.569 198.034C223.614 222.172 225.279 249.363 214.251 271.983C211.445 271.043 208.977 271.227 208.061 273.245ZM211.499 273.472C212.012 273.538 212.618 273.67 213.306 273.864C212.92 274.611 212.515 275.37 212.089 276.143C211.431 275.453 210.939 274.869 210.638 274.413C209.83 273.189 210.495 273.344 211.499 273.472ZM251.571 298.362C251.777 298.625 251.956 298.872 252.105 299.103C252.871 300.287 252.816 300.537 251.314 300.244C251.072 300.197 250.801 300.133 250.502 300.051C249.652 299.819 249.604 299.96 250.062 299.305C250.272 299.005 250.482 298.707 250.692 298.412C251.179 297.729 251.038 297.684 251.571 298.362ZM247.688 299.102C247.097 298.877 246.462 298.623 245.787 298.343C236.222 294.368 222.632 285.79 214.925 278.86C214.458 278.44 214.022 278.038 213.618 277.656C227.346 253.055 224.755 224.536 237.426 198.952C241.432 190.864 246.518 184.911 253.346 182.783C266.043 178.827 276.519 175.921 289.913 174.81C302.025 173.804 320.098 172.304 325.396 177.88C324.751 177.894 324.152 178.061 323.612 178.352C323.086 178.635 322.619 179.031 322.222 179.511C321.538 180.338 321.053 181.433 320.834 182.623C320.663 183.545 320.82 183.326 319.964 183.453C317.364 183.841 314.741 184.839 312.319 186.007C310.631 186.821 310.979 186.778 309.103 186.803C303.754 186.877 298.589 187.799 293.467 189.055C290.076 189.887 281.619 192.012 277.567 193.691C275.992 194.343 276.726 194.305 275.989 192.735C275.618 191.947 275.066 191.128 274.306 190.363C273.347 189.396 271.879 190.858 272.839 191.825C273.418 192.409 273.837 193.029 274.116 193.621C274.852 195.187 274.59 195.328 273.67 196.555C272.652 197.912 271.121 199.953 269.898 203.281C269.701 203.819 269.977 204.416 270.514 204.613C271.052 204.81 271.647 204.534 271.844 203.996C272.83 201.312 274.096 199.362 275.829 197.178C277.399 195.199 290.236 191.986 293.824 191.053C295.11 190.719 295.151 190.582 296.444 190.917C297.69 191.24 298.645 191.694 299.485 192.113C301.501 193.117 300.936 193.333 299.407 194.458C297.035 196.203 293.937 198.28 289.912 200.802C288.029 200.163 286.631 199.938 285.144 200.045C283.639 200.153 282.11 200.605 279.895 201.309C279.351 201.482 279.05 202.064 279.223 202.609C279.395 203.155 279.976 203.457 280.52 203.284C282.576 202.629 283.988 202.211 285.29 202.117C286.01 202.065 286.718 202.114 287.516 202.28C283.948 204.448 280.258 206.533 277.061 208.074C276.142 208.423 275.184 208.575 274.223 208.564C272.111 208.539 269.979 207.73 268.203 206.496C266.188 205.097 263.965 202.585 263.995 199.964C264.006 198.601 261.939 198.585 261.928 199.948C261.889 203.297 264.417 206.39 267.027 208.202C267.8 208.739 268.633 209.207 269.507 209.586C271.736 210.552 272.143 210.51 268.954 210.871C267.203 211.069 265.548 210.87 263.422 210.424C262.088 210.146 261.667 212.177 263 212.455C265.336 212.945 267.176 213.162 269.181 212.935C271.174 212.709 273.274 212.051 276.125 210.795C279.912 209.125 284.645 206.47 289.133 203.723C295.113 200.064 300.678 196.228 302.975 194.362C304.957 192.752 308.056 190.58 311.465 188.766C314.753 187.015 319.378 185.02 323.112 185.389C325.634 185.639 328.033 187.193 328.308 189.973C328.726 194.181 324.385 199.099 321.348 202.122C318.349 205.107 315.221 207.199 311.602 209.4C309.016 210.973 306.406 212.56 303.647 214.906C303.628 214.922 303.609 214.938 303.59 214.955L303.513 215.021C300.58 217.538 296.831 221.012 293.469 224.911C290.07 228.855 287.062 233.239 285.664 237.539C284.984 239.628 284.405 241.766 283.849 243.902C283.845 243.915 283.842 243.928 283.839 243.941C283.695 244.496 283.552 245.051 283.41 245.605C282.455 249.316 281.512 252.982 280.127 256.433C276.265 266.052 270.281 272.547 263.442 279.968C258.49 285.343 253.097 291.197 247.688 299.102ZM354.857 330.75C354.892 329.671 359.714 322.211 352.492 322.284C350.043 322.309 348.505 323.473 346.364 323.963C344.977 324.28 344.237 319.185 345.127 317.648C345.796 316.492 348.918 318.377 350.689 318.535C359.435 319.314 357.202 304.669 350.158 307.133C349.286 307.438 346.027 308.791 345.528 307.831C344.665 306.166 344.637 303.303 345.297 301.568C345.976 299.785 347.243 300.606 348.793 301.181C351.769 302.286 357.104 302.14 356.77 297.804C356.637 296.087 355.433 295.019 355.406 293.806C355.329 290.22 362.889 290.22 362.811 293.806C362.785 295.019 361.58 296.087 361.448 297.804C361.068 302.727 365.5 302.443 370.112 300.933C371.538 300.448 372.329 300.015 372.92 301.568C373.581 303.303 373.553 306.166 372.689 307.831C372.262 308.653 369.929 307.808 368.534 307.303C360.65 304.446 358.933 319.301 367.529 318.535C369.299 318.377 372.422 316.492 373.091 317.648C373.98 319.185 373.24 324.28 371.854 323.963C369.712 323.473 368.175 322.309 365.726 322.284C358.503 322.211 363.326 329.671 363.36 330.75C363.48 334.481 354.737 334.481 354.857 330.75ZM365.428 330.685C365.379 329.166 361.595 324.315 365.71 324.356C367.618 324.376 369.558 325.565 371.399 325.986C375.166 326.847 376.519 319.436 374.883 316.608C372.927 313.231 370.113 316.225 367.351 316.471C362.097 316.939 363.178 307.568 367.828 309.253C369.863 309.99 373.267 311.223 374.53 308.789C375.659 306.612 375.724 303.103 374.858 300.829C373.792 298.029 371.926 298.124 369.447 298.967C360.415 302.038 364.805 297.251 364.879 293.847C365.016 287.529 353.198 287.386 353.339 293.847C353.379 295.668 354.589 296.484 354.702 297.959C354.895 300.462 350.803 299.713 349.506 299.231C346.86 298.249 344.574 297.64 343.359 300.829C342.494 303.103 342.558 306.612 343.688 308.789C345.039 311.393 348.794 309.806 350.839 309.091C354.652 307.757 356.292 316.954 350.867 316.471C348.105 316.225 345.29 313.231 343.335 316.608C341.698 319.435 343.051 326.847 346.818 325.986C348.66 325.565 350.6 324.376 352.508 324.356C356.622 324.315 352.838 329.166 352.79 330.685C352.578 337.278 365.64 337.278 365.428 330.685ZM302.116 191.161C301.758 190.911 301.379 190.673 300.969 190.445C299.735 189.761 299.271 189.923 301.161 189.655C302.446 189.472 303.808 189.297 305.238 189.14C307.455 188.896 307.191 188.805 305.492 189.946C304.851 190.377 304.243 190.803 303.678 191.214C302.708 191.92 303.089 191.841 302.116 191.161ZM290.54 232.238C292.856 233.721 295.101 236.291 296.797 239.167C298.667 242.336 299.844 245.834 299.682 248.602C299.205 256.78 289.032 254.54 289.094 250.879C289.103 250.364 289.112 248.905 288.671 247.371C288.268 245.972 287.502 244.53 286.055 243.638C286.533 241.827 287.041 240.006 287.634 238.18C288.274 236.213 289.289 234.211 290.54 232.238ZM304.251 217.123C306.162 219.014 308.313 221.562 310.298 224.102C312.801 227.304 316.974 232.392 318.031 236.447C319.811 243.283 313.359 245.187 308.401 241.948C305.619 240.13 303.366 237.132 302.155 234.856C299.943 230.7 296.967 228.277 294.75 226.601C294.844 226.49 294.939 226.379 295.034 226.268C298.086 222.729 301.477 219.538 304.251 217.123ZM321.322 205.015C322.252 206.133 323.579 207.444 325.023 208.758C327.79 211.276 331.025 213.847 332.614 215.026C342.489 222.358 334.196 229.907 324.296 223.928C321.618 222.31 318.791 220.309 316.173 218.21C313.928 216.41 311.829 214.535 310.097 212.763C310.961 212.212 311.818 211.691 312.673 211.171C315.526 209.437 318.352 207.718 321.322 205.015ZM322.967 182.552C323.145 181.891 323.437 181.298 323.819 180.836C324.05 180.556 324.31 180.332 324.593 180.18C324.856 180.038 325.142 179.957 325.444 179.952C326.027 179.942 326.71 180.206 327.47 180.837C329.955 182.9 334.107 181.535 334.072 177.79C334.05 175.347 332.888 173.762 332.403 171.61C332.059 170.086 341.962 168.554 339.403 172.908C333.046 183.723 352.269 184.741 349.193 175.813C348.348 173.362 347.576 171.813 348.714 171.075C349.995 170.244 353.341 170.528 354.731 171.093C356.546 171.83 355.647 173.26 355.137 174.624C354.711 175.763 354.388 176.629 354.538 178.605C354.834 182.498 357.901 183.67 361.132 181.807C361.948 181.336 362.797 181.227 363.608 181.775C365.86 183.297 365.901 187.564 363.081 188.79C361.907 189.301 361.341 189.063 360.256 188.399C358.521 187.336 356.531 186.725 355.054 188.712C352.388 192.296 356.703 197.989 353.534 197.99L334.397 197.9L334.393 197.896C332.925 197.896 332.939 196.726 333.457 195.637C335.043 192.304 333.92 186.277 329.562 187.096C328.396 184.983 326.079 183.721 323.742 183.378C322.871 183.25 322.7 183.543 322.967 182.552ZM328.321 294.163C327.028 293.12 327.225 291.723 328.21 290.497C330.231 287.98 328.743 283.857 325.046 283.895C323.939 283.906 322.785 284.229 321.687 284.607C319.063 285.511 318.235 286.639 317.45 283.192C317.195 282.073 317.086 280.286 317.68 279.259C318.35 278.103 321.472 279.988 323.242 280.145C331.134 280.849 330.087 268.994 324.632 268.481C322.887 268.317 318.681 270.595 318.082 269.442C317.218 267.777 317.19 264.914 317.851 263.179C318.664 261.043 322.644 263.593 325.328 263.385C329.249 263.081 330.313 259.965 328.396 256.759C328.103 256.27 327.969 255.82 327.96 255.417C327.882 251.831 335.443 251.831 335.365 255.417C335.356 255.82 335.222 256.27 334.929 256.759C333.012 259.965 334.076 263.081 337.998 263.385C340.11 263.549 340.823 263.171 342.666 262.544C344.092 262.059 344.883 261.626 345.474 263.179C345.806 264.05 345.973 265.252 345.925 266.464C345.761 270.632 344.522 270.157 341.088 268.914C333.194 266.057 331.485 280.912 340.083 280.145C341.853 279.988 344.975 278.103 345.645 279.259C346.534 280.795 345.794 285.89 344.407 285.573C342.266 285.084 340.728 283.92 338.279 283.895C334.582 283.857 333.094 287.98 335.115 290.497C336.1 291.723 336.297 293.12 335.004 294.163C333.305 295.532 330.02 295.532 328.321 294.163ZM327.024 295.78C329.494 297.771 333.831 297.771 336.301 295.78C338.491 294.014 338.441 291.33 336.729 289.197C335.78 288.016 336.345 285.947 338.263 285.967C340.171 285.986 342.111 287.175 343.953 287.596C347.72 288.458 349.073 281.046 347.437 278.219C345.481 274.841 342.666 277.836 339.904 278.082C334.653 278.55 335.717 269.175 340.382 270.864C345.33 272.656 347.773 272.136 347.993 266.546C348.051 265.056 347.836 263.553 347.412 262.44C346.346 259.64 344.48 259.735 342.001 260.578C340.509 261.085 339.874 261.447 338.152 261.313C335.8 261.131 335.593 259.682 336.705 257.823C337.191 257.01 337.416 256.213 337.432 255.458C337.571 249.05 325.753 249.05 325.893 255.458C325.909 256.213 326.134 257.01 326.62 257.823C327.732 259.682 327.525 261.131 325.174 261.313C322.583 261.514 320.109 259.625 318.087 260.147C317.079 260.407 316.418 261.113 315.913 262.44C315.047 264.714 315.112 268.223 316.242 270.4C318.033 273.852 322.656 270.168 324.583 270.621C327.484 271.303 328.239 278.511 323.421 278.082C320.659 277.836 317.844 274.841 315.889 278.219C315.007 279.741 315.051 281.976 315.431 283.647C316.55 288.559 318.594 287.871 322.36 286.573C323.297 286.25 324.255 285.975 325.062 285.967C326.98 285.947 327.545 288.016 326.596 289.197C324.884 291.329 324.834 294.015 327.024 295.78ZM390.257 247.729C390.265 245.875 389.549 244.992 388.588 244.631C387.367 244.173 384.541 245.269 383.124 245.416C381.104 245.625 378.78 245.352 380.075 242.904C380.636 241.844 381.604 240.948 381.304 239.026C380.222 232.091 369.455 233.417 369.576 239.234C369.622 241.407 372.886 244.699 368.694 245.019C367.163 245.136 366.487 244.882 365.597 244.548C362.934 243.549 360.71 242.954 359.431 246.117C358.52 248.369 358.488 251.88 359.576 254.078C360.885 256.721 364.706 255.108 366.736 254.406C370.594 253.07 371.961 262.274 366.547 261.785C363.767 261.534 361.022 258.521 359.011 261.941C358.094 263.501 358.106 265.798 358.495 267.52C360.042 274.38 364.043 269.709 368.052 269.672C369.297 269.66 369.971 270.324 369.914 271.562C369.821 273.572 367.026 274.794 368.547 277.975C370.549 282.164 377.86 281.694 380.42 278.196C381.046 277.341 381.348 276.339 381.128 275.227C380.818 273.658 379.675 273.059 379.379 271.85C379.076 270.609 380.2 269.98 381.239 269.725C382.7 269.366 383.608 269.451 384.953 270.094C387.431 271.278 390.151 270.341 390.164 267.585L390.257 247.729Z" stroke="#6167EA" stroke-width="1.4" mask="url(#path-3-outside-1)"/>
</svg>
