<svg width="303" height="303" fill="none" xmlns="http://www.w3.org/2000/svg"><path d="M55.457 112.657a97.28 97.28 0 01191.9-.135m-.067-.185a97.27 97.27 0 01-184.945 55.488 97.265 97.265 0 01-8.209-39.117 98.63 98.63 0 011.338-16.194" stroke="#231F20" stroke-width="2.75" stroke-miterlimit="10"/><path d="M143.664 62.283c-.682-.277-2.862-.176-3.013.387-.152.564.396 1.044 1.919 1.154a30.56 30.56 0 014.461.925 14.615 14.615 0 014.208 1.86 4.111 4.111 0 011.726 3.174 8.098 8.098 0 01-1.229 3.72c-1.313 2.045-4.722 3.198-8.821 3.164-1.986-.252-4.208-2.23-4.865-2.474a3.939 3.939 0 00-2.121.126c-.463.126-.884.775-.606.842.278.067 1.877-.328 2.281.05a10.15 10.15 0 003.796 2.315c1.978.648 3.779.118 4.806.076a16.531 16.531 0 004.133-1.01 8.496 8.496 0 003.526-3.367 7.343 7.343 0 00.446-5.109 6.056 6.056 0 00-2.466-3.232 11.172 11.172 0 00-3.56-1.422 13.858 13.858 0 01-4.621-1.179z" fill="#231F20"/><path d="M146.265 74.639a5.892 5.892 0 004.259-2.272c1.052-1.356 1.414-3.064.244-4.428-1.17-1.363-3.889-2.053-5.32-2.238-1.43-.186-5.193-.32-5.891.168-.699.488-2.365 1.464-1.86 2.146.505.682 1.136.556 2.213-.471 1.078-1.027 1.212-1.019 1.961-1.002 2.694.143 8.518.556 8.131 3.367-.177 1.389-.379 2.239-2.214 3.366-1.077.716-2.373-.084-2.659.278-.287.362.336 1.153 1.136 1.086zm-19.098-4.25a3.187 3.187 0 01-3.669 2.23c-2.113-.236-3.964-1.683-3.762-2.618.202-.934 1.136-2.154 3.602-1.994 2.466.16 4.015 1.262 3.829 2.382zm-3.72-1.036c-.547-.067-1.927 0-1.927.733 0 .732.909 1.245 2.003 1.296 1.507.075 1.869-.404 2.02-1.145.152-.74-1.549-.816-2.096-.884z" fill="#231F20"/><path d="M153.47 55.6c.841.312 5.05-.563 5.63-.488.581.076-.227 1.145.127 1.195.353.051 3.307.118 5.605.295 2.298.177 6.346.842 6.868 1.204.522.362-.438 1.094-.126 1.338.311.244 2.314 0 3.434.673 1.417.9 2.88 1.723 4.385 2.466 2.02.918 7.019 1.465 7.785 2.248.766.782-1.683.404-.69.841.993.438 2.273.48 3.055.766.783.286.758.446 2.138 1.355 1.381.91 5.134.842 5.269 1.347.135.505-1.305.135-1.288.631.017.497 1.785.75 1.953 1.002.168.252-.606.715-.236.841.371.127 2.643 1.002 3.779 1.55a52.941 52.941 0 017.575 5.057c1.894 1.684 4.31 2.458 4.436 2.913.126.454-1.557-.16-1.01.623.547.782 1.767 1.515 2.062 1.944.295.429-.269.32-.311.698-.042.38 2.095 1.38 1.877 1.776-.219.396-2.155-.345-1.684 0 1.263.766 6.978 8.476 6.818 8.779-.16.303-.573.345-.396.892.177.547 1.869 1.44 1.54 1.624-.328.186-.724.278-.614.792.917 2.415 3.577 3.484 3.804 4.208.228.724-.505.446-.589.741-.084.294.774 1.439.429 1.86-.345.421.842 1.734 1.364 2.34.522.606.842 1.102.505 1.094-.337-.009-.657.176-.379.564 1.97 4.444 3.636 5.773 3.367 6.413-.27.64-.589.303-.514.934.076.632 2.256 5.21 2.046 5.581-.211.37-.388-.329-.539.159-.152.489.429 1.28.143 1.33-.286.051-.396.185-.337.455.54 1.768.823 3.605.842 5.454-.101 2.424 2.138 8.164 1.86 8.745-.278.581-1.246-1.044-1.001-.446a54.236 54.236 0 01-.152 9.056c-.269 1.061-1.296-.842-1.119 0a14.54 14.54 0 010 3.19c-.059 1.086-.951-.118-.943.177.164 1.024.238 2.06.219 3.097-.152.842-.53-.32-.623.194-.093.513 0 2.76-.522 2.962-.522.202-1.044-1.548-.959-.69.084.859-.707 4.023-.842 5.05-.135 1.027-.758-.69-.732.143a33.043 33.043 0 01-.699 4.554c-.202.841-.934-.505-1.044-.059-.471 2.946-3.232 10.521-3.922 11.32-.69.8-1.069-1.54-1.414-1.161-.345.378-.21 1.86-.841 2.575-.632.716-.32-.631-.665-.303-.345.328-3.443 7.272-4.158 7.819-.716.547-.227-.841-.665-.9-.715-.051-2.247 3.493-3.005 4.334-.757.842-.227-.841-.715-.185-.488.656-2.466 4.966-3.081 5.555-.614.589-.328-.657-.976.101-.648.757-1.439 2.222-1.936 1.936-.496-.286.514-1.683-.151-1.002a24.722 24.722 0 01-3.611 3.46 41.027 41.027 0 01-5.85 4.132 53.755 53.755 0 01-7.196 3.459c-2.786 1.052-3.964 1.414-7.769 2.601a47.713 47.713 0 01-7.861 1.768 59.96 59.96 0 01-8.416.791c-2.525.134-6.936-.11-8.628-.202-1.691-.093-6.186-.892-8.416-1.28a83.524 83.524 0 01-13.08-3.568 96.339 96.339 0 01-8.745-4.04c-13.087-6.489-23.692-16.918-27.05-20.688-3.359-3.771-6.675-7.424-8.611-10.311-1.936-2.887-7.289-10.403-9.83-16.076a96.221 96.221 0 01-5.126-14.367 347.066 347.066 0 01-2.323-10.176c-.91-4.233-1.473-7.861-1.558-8.77-.084-.909.994-1.043 1.372.211.38 1.254 1.92 7.061 2.525 8.416.606 1.355 3.965 9.461 4.714 10.942.749 1.481 4.208 8.417 5.285 10.571 1.078 2.155 8.745 14.174 17.339 23.483a103.837 103.837 0 009.931 8.972 74.82 74.82 0 008.762 6.38c4.007 2.39 9.663 5.05 11.018 5.656a98.525 98.525 0 0010.874 4.208c12.036 3.241 21.496 2.576 25.25 1.869a76.353 76.353 0 0012.768-4.209c2.525-1.119 9.62-5.117 11.91-7.701 2.289-2.584 2.895-3.274 3.198-4.208.303-.935-1.557.437-1.549.042.009-.396 1.684-3.3 1.684-3.645 0-.345-.64.244-.682-.109-.042-.354.463-.892.454-1.33-.008-.438-.841-.101-.488-.682.354-.58 2.34-2.626 2.525-3.493.185-.867-1.683.253-1.279-.437.404-.69.682-1.061 1.052-1.599.842-1.751 1.119-3.636.438-4.411-.682-.774-2.643.387-3.62.32-.976-.067.059-.943-.286-.993-.345-.051-2.525 1.313-3.316 1.456-.791.143-.168-1.044-.48-.842l-2.045 1.153c-1.052.337-1.793 2.138-2.373 2.525-.581.388 0-1.245-.893-1.001-.892.244-6.531 4.621-7.272 4.494-.74-.126.733-1.043 0-.934-.732.11-4.208 2.668-4.258 2.239-.051-.429 1.212-1.894.42-1.549-.791.345-1.759.345-2.365.842-.606.497-3.821 2.735-4.679 3.451-.859.715-1.456 3.366-2.239 3.669-.783.303-3.619 4.461-3.796 3.578-.177-.884.64-2.618.236-2.761-.404-.143-1.886 2.197-3.468 2.988-1.582.791-1.263 3.274-1.616 3.013a1.801 1.801 0 01-.623-2.348c.514-1.507.985-2.525.219-1.97-2.188 1.759-1.683 3.99-2.045 3.821a1.835 1.835 0 01-.842-1.919c.177-1.06.455-1.767.042-1.582-1.246.606-.993 2.887-1.338 2.525a4.452 4.452 0 01-.783-3.013 13 13 0 011.094-3.653c.371-.842.371-1.136 2.248-3.097 1.876-1.961 3.131-2.138 4.923-3.771 1.793-1.633 10.109-5.521 10.227-5.757.117-.236-.522-.328-.253-.64a54.52 54.52 0 015.345-2.525 12.894 12.894 0 002.525-1.355c.134-.303-.741-.429-.312-.841.429-.413 4.528-4.318 4.789-4.739.261-.421-1.355-.101-1.035-.757.32-.657 1.439-2.096 1.523-2.424.085-.329-.698.286-.698-.245 0-.53 1.607-4.208 1.321-4.149-.286.059-2.483 1.523-3.366 1.683-.884.16-.118-1.085-.472-.74a6.54 6.54 0 01-2.693.799c-.842.059-1.119.497-2.752 1.608a13.97 13.97 0 01-3.906 2.02c-2.238.909-4.957 1.759-6.304 3.367-1.346 1.607-2.903 1.944-3.61 3.088-.707 1.145-2.147 2.483-2.222 1.616-.076-.866 1.439-2.996.967-2.836-.471.16-1.961 1.624-2.785 1.894-.825.269-1.583 1.085-2.643 3.08-1.061 1.995-.615 2.727-1.019 2.281-.404-.446-1.229-2.247-.951-2.954.278-.707 1.187-3.106.606-2.399-2.323 2.963-1.683 4.924-2.146 4.512a2.455 2.455 0 01-.909-2.138 5.602 5.602 0 01.05-1.313c0-.219-.656-.699-.732-1.196-.076-.496 1.271-3.602 2.34-5.092 1.069-1.489 4.377-2.785 5.378-3.602 1.002-.816 6.212-2.794 6.187-3.181-.026-.388.841-.211 3.038-1.574 2.197-1.364 2.171-1.431 2.887-1.911.715-.48 6.514-2.331 7.373-2.92.858-.59-1.355-.766-.185-1.145 2.802-.682 4.343-.093 5.218-.774 2.525-2.281 3.266-1.414 3.215-1.903-.05-.488.514-2.567.598-3.501.084-.934-1.684.631-1.507-.067.177-.699 1.684-4.503 3.182-5.791a33.169 33.169 0 004.402-4.772c.656-.943-1.078-.842-.724-1.221.353-.378 1.624-.648 1.447-.993-.791-2.415 0-2.988-.294-3.223-.842-.472-1.549-3.704-1.919-3.367-.37.337-1.086 2.264-1.566 1.608-.479-.657-.757-3.224-1.262-3.266-.505-.042-.623 1.776-1.162.942-.538-.833-.303-5.386-1.683-5.201-1.38.185-4.368 4.452-5.378 5.151-1.01.699-.53-1.877-1.212-.842-2.786 4.326-4.579 5.614-5.345 6.195-.766.581-.101-1.768-.606-1.094-.732.976-2.87 3.661-4.646 4.36-1.776.698-6.338 4.107-7.962 5.05-1.624.942-2.449.404-4.082 1.809a18.885 18.885 0 00-4.764 6.481c-1.203 2.929-1.431 2.399-1.751 1.389-.345-1.683.362-2.912-.109-2.887-1.204 0-1.456 1.018-2.163 2.306-.707 1.288-.598.69-1.086 1.978-.488 1.288.27 2.971 0 2.786a3.306 3.306 0 01-1.835-2.02c-.42-1.389-.429-1.97-.665-2.096-.74.716-.353 3.779-.917 3.257a2.964 2.964 0 01-.842-2.078c0-.665.345-1.852 0-1.928-.715.497-.749 2.466-1.279 2.273-.53-.194-1.027-3.889-.757-4.882a13.547 13.547 0 012.727-4.318c.841-.707 4.73-4.116 5.891-4.326 5.05-1.061 4.873-1.254 6.363-2.34 1.49-1.086 1.801-1.683 4.486-4.536a33.402 33.402 0 004.091-4.975c.421-.639.909-1.481.286-1.733-.623-.253.353-.901 0-2.02a27.423 27.423 0 01-4.326 2.213c-1.313.404-.051-.934-.463-.749a20.07 20.07 0 00-2.012.665c-.429.269-.799-.295-1.128-.059-.328.236-.462.438-3.366.884s-3.409-.387-5.412.917c-2.003 1.305-1.549 1.288-2.113 2.795-1.153 2.222-1.439 1.38-2.71 2.322-1.271.943-1.304 2.93-1.515 2.66a2.697 2.697 0 01-.589-2.264c.219-1.237 1.195-2.449.311-2.062-2.424 2.146-2.289 1.448-3.164 2.458-1.482 1.986-.985 3.762-1.305 3.686a2.005 2.005 0 01-1.094-1.894c.16-.9.463-1.885 0-1.876-.951.42-.926 3.459-1.246 3.366-.32-.092-.926-.926-.841-2.255.084-1.33.252-1.372-.202-1.49-.842-.194-1.01 2.306-1.305 2.02a3.91 3.91 0 01-.539-2.98c.303-1.33 2.399-4.208 3.123-4.957.724-.749 5.757-5.219 8.997-5.892 3.241-.673 3.022.11 4.209-.589 1.186-.699-1.33-.665-.901-1.406.429-.74 7.828-1.397 8.021-1.683.194-.286-.732-.303-.379-.631.51-.398.991-.831 1.44-1.296.479-.564-1.238-.219-.261-1.052 2.887-2.332 3.594-3.527 3.905-6.658.312-3.131.673-5.151-2.895-7.701-.707-.514-.379 1.919-.901 1.868-1.338-.143-3.451-5.967-5.37-6.8-.656-.093-.193 1.843-.942 1.683-1.086-.488-2.744-3.367-3.173-3.367-.43 0 .395 1.44-.152 1.397-1.237-.151-4.865-4.023-5.732-4.36-.631-.252.455 1.179.127 1.684-.329.505-2.424-.993-3.485-1.76a12.301 12.301 0 00-4.898-1.682c-.539-.068-.329.715-1.036.664-.707-.05-4.545-2.314-5.622-2.525-3.308-.16-5.774-1.304-6.43-1.27-1.978 3.678-2.938 4.982-2.685 9.544.252 4.562 8.265 11.564 7.709 11.32-.555-.244-7.709-4.848-8.702-10.697-.8-4.209-.505-5.429 1.91-10.69 0 0-1.111-.168-1.683-.227-.429 1.28-4.848 7.003-2.635 16.388 2.416 10.42 4.848 11.32 4.848 11.32s-3.004-.143-5.975-11.32c-1.684-6.894-1.339-8.72 2.095-16.834a12.648 12.648 0 00-1.464-.437s-2.374 5.117-4.208 9.628c-2.323 5.698 1.043 10.227.563 10.412a12.345 12.345 0 01-2.065-4.915 12.347 12.347 0 01.197-5.328c1.902-6.515 3.762-9.46 3.855-10.42-1.431-.379-1.928-1.06-3.367-1.625-1.439-.564-2.845-2.003-4.032-2.34a2.719 2.719 0 01-1.683-3.164 2.937 2.937 0 012.576-2.188c.892-.068 3.206-.169 3.939-.312a32.787 32.787 0 014.334-1.33s.901-6.8 3.367-10.487c2.466-3.686 4.276-4.494 5.951-6.733.749.842-3.771 4.722-5.64 8.156-1.868 3.434-2.028 8.568-1.843 8.315a5.114 5.114 0 011.683-.589 21.127 21.127 0 015.05-9.873 129.303 129.303 0 0011.834-12.625s-3.855 6.683-8.652 11.01c-4.798 4.325-6.548 9.502-6.557 10.941.48-.168.977-.28 1.482-.337 0 0 .589.22 1.969-2.323 1.776-3.122 2.719-3.636 2.963-3.484.244.151-2.079 2.458-3.114 5.622.446-.05 5.159-1.145 7.575-1.683 2.415-.539 3.804-1.59 5.807-3.005 2.003-1.414 7.499-6.632 10.664-8.938 3.165-2.307 9.258-3.19 10.942.555.631 1.574-.732 3.636-1.54 5.538-.32.539 3.198.026 4.04.328zm-15.361 1.987c-.842-.345 2.778-1.296 4.318-1.608 2.979-.606 4.259 0 5.378-1.439.455-.564.261-.75 1.204-2.525.942-1.776-.135-2.357-.968-2.668-1.566-.665-4.991.21-6.86 1.246-1.868 1.035-5.723 4.452-7.415 5.891-1.692 1.44-5.286 4.326-6.548 5.126-1.263.8-10.327 2.416-10.327 2.416s-5.656 1.06-6.793 1.742c-1.136.682-4.864 1.355-5.992 1.995-1.128.64-3.51.336-3.931.345-.42.008-1.734.471-1.927.909a2.272 2.272 0 00-.068 1.498c.816.382 1.66.7 2.525.95.649.148 1.32.174 1.978.077 0 0 1.212-.623 1.414-.101.202.522-1.136 1.06-1.481 1.372-.345.311 1.347.841 2.02 1.237a3.644 3.644 0 002.054.48c.168-.152.639-1.145 1.313-.775.673.37.143 1.33.362 1.498a2.52 2.52 0 001.245.354c.328-.059.724-1.178 1.431-.9.707.277.093 1.38.345 1.624a1.774 1.774 0 001.322.328c.202-.152.437-.909 1.161-.724.724.185.471 1.178.623 1.28 1.361.53 2.794.85 4.25.95a11.11 11.11 0 014.369 1.187c.833.493 1.696.934 2.584 1.322.412.05-.152-1.372.951-.943 1.102.43 2.382.724 3.711 1.254 1.33.53 2.138.892 2.879 1.254.741.362-.168-.841.269-1.28.438-.437 5.724 3.325 6.111 4.024.387.699-.084-1.835.841-1.33.926.505 3.106 2.988 3.594 3.173.488.186.11-1.683.918-1.388.808.294 4.301 4.789 4.982 5.723.682.934.093-.59.741-1.136.648-.547 5.05 5.134 5.648 7.221.185.556.235-.892.841-.623.606.27 1.238 2.694 1.498 3.005.261.311.303-1.195 1.044-.471.741.724-.337 4.721.774 7.524.27.522.842-.32 1.111.43.27.749-.917 2.423-.404 2.853.514.429.632-.219.842.429.211.648-.395 2.155-.286 2.575.109.421.682-.168.732.388.051.555-1.397 3.585-1.506 3.964-.11.379 1.085-.177.942.429a28.507 28.507 0 01-3.366 5.681 45.887 45.887 0 01-3.822 4.209c-.311.227.623.379.59.69-.034.311-.842 1.818-.994 2.298-.151.479 1.44-.093 1.852-.27.413-.176-.766 2.02-.067 1.802a81.578 81.578 0 007.735-4.554 15.652 15.652 0 003.711-3.611c.413-.69 1.111-2.474 1.44-2.028.328.446.378 1.406.623 1.38.244-.025 1.91-2.483 3.307-4.208 1.397-1.726 1.339-4.267 2.071-4.04.732.227.429 3.223.892 2.862.463-.362.934-1.684 1.229-2.155.294-.471.429.463.69.177.261-.286 1.507-3.897 1.91-3.367.404.53.287.926.581.564a13.899 13.899 0 001.515-2.525 3.24 3.24 0 00.16-1.936c-.076-.429.194-.648.497-.513.303.134-.202-1.423.665-.968.867.454.623 1.515.984 1.304a9.61 9.61 0 001.827-3.787c.387-1.625.379-4.065 1.001-3.956.623.109.497 3.367.236 4.781-.261 1.414-2.34 5.05-2.601 5.513-.261.463-.917-1.01-1.01-.421a16.89 16.89 0 01-1.489 3.366c-.127.211 1.17 1.196 1.557 2.13.387.934.193-.884.724-.438a4.25 4.25 0 011.22 1.936c.337.842.656.067 1.195.572.539.505 1.835 3.956 2.113 4.916.277.959.555-1.086 1.102-.446.415.565.634 1.251.623 1.952.101.741.497 1.515.892 1.364a20.827 20.827 0 003.14-1.801c.37-.371-.884-.699-.295-.968.589-.27 2.071-.312 2.895-.842.825-.53 1.103-1.439 1.945-1.372.841.067 3.198-.438 3.88-.396.682.043-.766-.606 0-.967.766-.362 3.695 0 5.664.227 1.985.307 3.926.85 5.782 1.616.421.252-.967-1.406-.328-1.683.64-.278 1.237 1.321 3.064 2.525 1.826 1.203 2.601 1.127 2.239 1.683-.362.555-3.443-.572-3.838-.884-.396-.311 0 .682-.253.783-.252.101-1.035-.522-1.321-.69-.286-.169.244 1.313-.303 1.203-.547-.109-1.237-1.119-2.045-1.784-.808-.665-6.288-1.372-6.826-1.212-.539.16 0 .488-.371.741-.37.252-3.223-.244-3.56.277-.337.522.362.691-.093.96-.454.269-3.366.135-4.208 1.027-.842.892 1.086.782.749 1.304-.336.522-5.285 1.078-6.523 2.66-.294.496.842-.295.749.261-.092.555-1.776 2.348-2.121 2.962a7.77 7.77 0 01-2.794 2.887 7.713 7.713 0 00-2.82 2.812 8.009 8.009 0 00-.698 1.86c-.118.412.665-.211.732.151.067.362-.446 1.608-.631 2.694 0 .648.438-.245.715.117.278.362-.488 2.652-.69 4.461-.202 1.81-.353 4.68-.143 4.941.21.261-.791 1.111-.774 1.683.016.572 1.17-.842 1.254-.042.084.8-1.136 2.761-1.608 3.754-.328.581.934-.152.901.53-.034.682-1.818 2.424-2.332 2.963-.513.538 1.482-.101 1.684.395.202.497-2.138 2.382-2.315 2.567-.177.186-.059 0 .227.236.287.236-1.919 1.742-2.659 2.744-.404.454.564.219.303.741-.261.521-4.688 2.642-5.547 3.156-.539.294.741.135.758.606.016.471-1.036.909-.674 1.136.362.227 3.367-.513 3.939-.379.573.135-1.271 2.172-1.683 3.106-.412.934 3.577-1.069 4.133-1.33.555-.261.37.202.21.934-.16.733 5.37-3.509 5.892-3.593.521-.085.21.841.538.572.329-.269 4.512-3.156 5.429-3.182.917-.025-.64 1.347.295 1.128.934-.219 3.139-1.431 3.56-1.338.421.093-.076 1.296.547 1.246.623-.051 3.409-.152 3.897.235.488.388-.758.96-.438 2.34.244 1.01-.429 2.146-.884 3.173 0 0 .665-.303.783.185.118.489-2.079 3.906-2.298 4.545-.218.64.842-.606.935.085.092.69-1.019 2.642-1.162 3.046-.143.404 1.052-.193 1.179.261.319.943-2.34 4.731-2.525 5.311-.186.581 1.422-1.102 1.767-.841.345.261.253 2.348.269 3.055.017.707 2.711-2.862 3.283-2.433.572.43-.084 3.03 0 3.897s1.422-.799 2.054-1.018c.631-.219.075 2.138.143 2.971.067.833 1.683-2.584 2.297-2.677.615-.092-.092 2.222.64 1.617a8.131 8.131 0 002.289-3.249c.842-1.902 1.313-4.579 1.734-5.16.421-.58.387 1.44.951.842a14.756 14.756 0 002.374-3.442c.48-1.154.53-1.499.985-1.835.454-.337.572 1.927 1.144.951.573-.977 2.231-5.681 2.769-6.271.539-.589.413.253.64.118.227-.134.959-2.971 1.565-3.274.606-.303.598 1.936 1.019 1.229.421-.707 1.195-1.406 2.138-5.454.942-4.048 1.919-6.548 1.473-7.718-.446-1.17 1.035 0 1.212-.32.176-.32 1.818-7.365 1.607-7.794-.21-.429 1.035 1.195 1.204.977a9.028 9.028 0 00-.177-2.29c-.05-.421.471.051.656-.202.186-.252-.353-3.097-.479-3.787s.985.479 1.212.345c.227-.135-.522-2.87-.27-3.426.253-.555 1.137 1.414 1.229.749.547-1.852.713-3.796.488-5.715-.395-3.08-1.212-8.416-2.188-10.487-.345-.791.682 0 .892-.438.211-.437-1.128-5.05-.681-5.336.446-.286 1.102-1.582-2.795-7.053-.799-1.195 1.246.059 1.498-.134.253-.194-1.077-2.887-2.365-5.758-1.287-2.87-4.141-6.489-4.158-7.128-.016-.64.775-.085.96-.202.185-.118-1.911-2.155-3.535-4.714-1.624-2.558-2.811-3.122-2.879-3.787-.067-.665 1.962.606 1.818 0a10.791 10.791 0 00-2.743-4.697c-2.147-2.356-2.753-2.861-2.601-3.425.151-.564-1.372-1.945-2.231-2.635-.858-.69.245-.841-1.902-2.247-2.146-1.406-4.023-2.331-4.427-2.71-.404-.379 1.271-.303 1.018-.783-.252-.48-3.913-2.584-5.268-3.282-.573-.295.101.841-.354.707-.454-.135-1.961-1.574-4.663-2.18-1.119-.337.884-.775.775-1.06-.11-.287-3.165-.977-3.46-1.213-.294-.236.59-.631.219-.841a5.572 5.572 0 00-3.181-1.507 14.88 14.88 0 01-5-1.683c-.841-.48-.042-.581 0-.766.042-.186-4.772-1.196-5.748-1.684-.977-.488-2.98-2.289-4.074-2.382-1.094-.092-3.838-.841-4.747-.648a3.296 3.296 0 01-2.525-.412c-.581-.42 1.271-.598 1.616-1.01.345-.413-1.111-.665-2.954-.665-1.843 0-7.988-.202-8.619-.278-.631-.075.413-.917-.05-.841a31.79 31.79 0 00-4.857.202c-3.501.37-4.452-.556-7.061 0-2.61.555-5.766.774-6.616.429zm18.778 41.772c-.295-.446-.766 2.525-1.246 3.577s-2.424 4.343-2.853 4.604c-1.052.841-.968 1.969-1.364 2.457a4.066 4.066 0 01-1.683 1.524c-.791.269-4.57.766-5.244 1.086-.673.319.514.942.345 1.313-.168.37-2.146.42-2.095.614.05.194.9.185.841.64-.059.454.775.168 1.238.328.463.16-.556.732-.413 1.018.143.287 1.49.042 1.869.303.378.261-1.414 1.456-.842 1.507.572.05 3.459-.37 4.629-.514 1.17-.143 3.207-2.398 3.586-2.356.378.042.311.841.05 1.49-.261.648 1.978-1.254 2.29-1.246.311.008-.371 1.128.109 1.161.48.034 3.291-1.599 3.535-2.154.244-.556.943-3.005.446-3.274-.497-.27-.379-1.153-.665-1.414-.286-.261.539-.606.219-.842-.32-.236-.488.185-.842-1.077-.353-1.263.404-2.399-.227-5.353-.581-.699-.295.446-.968 0s-.421-2.955-.715-3.392zm-12.962 18.197c-1.094-.438-1.624-.051-2.054-.287-.429-.235 1.044-1.136 1.044-1.136-.976-.303-.69-1.245-1.397-1.161-.707.084-1.549 0-2.778.05-1.228.051-4.873 2.845-6.27 3.779a7.749 7.749 0 00-2.087 1.785c-.539.606-1.97 1.834-2.248 3.131-.244.648 1.583-1.339 1.827-1.095.244.245.126.724-.387 1.473-.514.749-.691 1.684-.354 1.574.337-.109 1.894-2.525 2.643-2.525.749 0-.042.842-.379 1.743-.336.9-.269 1.481.101 1.161a20.87 20.87 0 012.584-2.407c.842-.514 2.828-1.944 3.165-1.616.336.328.084 1.422-.194 2.138-.278.715 1.12-.918 1.684-.994.563-.075.841-2.255 1.843-3.139 1.001-.884 4.376-2.028 3.257-2.474zm10.411 14.527c-.892-.354-2.154.774-2.255.277-.101-.496.623-1.338.791-1.775.168-.438-.539.126-.488-.303.05-.43.74-1.398.286-1.036a37.765 37.765 0 01-3.005 2.424c-1.414.977-3.24.918-4.486 1.372-1.246.455-3.367 2.104-4.09 2.424a7.65 7.65 0 00-2.668 2.189c-.657.951-1.423 1.961-1.793 2.617a1.752 1.752 0 00-.051 1.801c.286.261.682-1.296 1.389-1.91.707-.615 1.86-1.919 2.315-1.591.454.328-.783 1.683-1.128 2.121a4.338 4.338 0 00-.48 2.272c.093.421.732-1.363 1.313-2.036.581-.674 1.212-1.204 1.456-.775.244.43-.842 2.13-.993 2.626a4.633 4.633 0 00.202 2.231c.168.429.842-2.062 2.264-3.973a3.758 3.758 0 012.003-1.111c.455 0 .968-.917 1.322-.656.353.261 0 1.523 0 1.969 0 .446.732-1.944 2.146-3.409a20.098 20.098 0 013.316-3.055c.842-.505 1.683-.665 2.113-1.145.429-.479 1.456-1.195.555-1.548h-.034zm27.237 14.115c-.842-.27-2.231.917-3.156 1.397-.926.479-2.727 0-3.46.37-.732.37.27.387-.109.749s-4.208 1.683-4.747 2.062c-.539.379-2.668.497-3.678 1.162a40.722 40.722 0 00-3.695 2.306c-.438.471 1.801-.261 2.525-.059s-1.869 1.683-.606 1.549c1.262-.135 3.223-.842 3.72-.648.497.193.303 1.599-.261 2.373-.564.774 1.869-.901 2.525-.951.657-.051 1.919-1.406 2.525-1.523a5.592 5.592 0 002.66-.682c1.313-.749 2.053-1.313 2.634-1.229.581.084.446.109 0 .732-.109.345 2.121-.572 2.045-1.001 0-.842.943-1.002.842-2.004-.109-1.565.606-4.351.269-4.603h-.033zm-14.687 10.1c-1.204.303-4.815 1.228-5.05.925-.236-.303 1.035-1.228.909-1.641-.127-.412-2.079-.522-2.273 0-.193.522-5.344 2.113-5.782 2.895-.438.783-3.123 1.81-3.754 2.323-.631.514-1.683.842-2.146 1.532-.463.69-1.195 2.18-1.077 2.525.117.345 1.767-2.525 2.525-2.34.757.186-.623 1.894-1.044 2.239a3.424 3.424 0 00-1.103 1.473c-.261.682-.37 1.919-.067 1.431s2.365-2.988 3.266-2.811c.9.177-.127 1.279-.446 1.894-.32.614-.522 2.567-.16 1.75.362-.816 1.893-3.249 2.668-3.299.774-.051 3.047-1.936 4.048-2.374 1.002-.437.69.935.749 1.313.059.379 2.441-2.289 3.821-3.097 1.381-.808 5.269-2.138 4.806-2.39-.463-.253 1.347-2.677.143-2.365l-.033.017zm2.735 17.515c-.707-.076 1.044-1.835.488-1.844a6.532 6.532 0 00-2.752 1.305c-.564.513-8.316 4.099-8.316 4.099a31.829 31.829 0 00-2.693 2.239c-.699.723-1.969.951-3.51 3.139-1.54 2.188-1.902 2.348-2.121 2.912-.219.564-.757 1.465-.656 1.844.101.378 1.557-1.684 2.213-2.34.657-.657 1.398-1.482 1.684-1.187.286.295-.455 1.397-1.036 2.247a3.668 3.668 0 00-.639 2.113c.042.286 1.397-1.347 2.037-1.726.639-.378 1.119-1.464 1.616-1.144.496.32-1.212 3.526-.556 3.021a9.595 9.595 0 002.39-2.138c.783-1.085 2.854-2.727 3.291-2.735.438-.008-.547 1.894-.05 1.751a2.89 2.89 0 001.389-1.322c.381-.9.837-1.767 1.363-2.592.682-.842 5.134-4.107 6.818-4.36 1.683-.252 2.794-1.254 2.323-1.33-.472-.075-.522-.168-.253-.614.269-.446 2.34-2.256 1.683-2.231-.656.026-3.981.952-4.679.876l-.034.017zm25.503 16.261c-.438.294-1.507 1.683-1.827 1.01-1.128 1.136-1.953 1.683-3.796 3.198a38.113 38.113 0 01-5.799 3.577 57.277 57.277 0 01-6.935 3.274 88.606 88.606 0 01-8.72 2.643 45.355 45.355 0 01-8.492 1.018 89.345 89.345 0 01-10.386-.841 79.753 79.753 0 01-10.942-2.618c-3.224-1.044-8.678-3.51-10.31-4.208-1.633-.699-6.17-3.089-8.846-4.68a79.167 79.167 0 01-9.259-6.573c-3.148-2.609-5.984-5.05-8.189-7.264-2.205-2.213-6.203-6.817-7.988-8.997-1.784-2.18-5.891-8.047-6.565-9.107-.673-1.061-3.99-6.102-6.228-10.167-2.239-4.066-2.82-5.842-3.695-7.651-.875-1.81-2.02-4.15-2.685-5.74-.665-1.591-1.851-5.227-2.104-5.252-.252-.026.934 4.376 1.683 7.238a55.07 55.07 0 001.877 6.262 75.311 75.311 0 006.17 14.367c1.936 3.367 1.927 3.165 3.678 5.816a73.442 73.442 0 005.37 7.289c2.525 3.089 2.861 3.459 5.479 6.363 2.618 2.904 4.368 5.05 7.095 7.617a82.685 82.685 0 007.794 6.456 84.643 84.643 0 0013.467 8.139 127.685 127.685 0 006.792 3.122 37.016 37.016 0 005.201 1.793 56 56 0 009.04 2.079c2.443.519 4.913.906 7.398 1.161a46.92 46.92 0 007.802.463c3.889-.042 3.62.059 6.734-.446a73.096 73.096 0 008.265-1.776 49.871 49.871 0 006.447-1.978 72.659 72.659 0 007.121-2.6 23.3 23.3 0 006.236-3.62c1.903-1.372 4.705-3.762 5.05-4.09.345-.328-.841.143-.639-.463.202-.606 1.532-2.432.766-2.02-1.061.597-2.34 1.683-2.525.968-.186-.716.572-3.88 0-3.417-.573.463-2.66 2.676-2.837 2.382-.177-.295-.219-3.039-.665-2.744l-.033.017z" fill="#231F20"/><path d="M155.153 108.92c-.48 0-1.347 2.037-1.237 2.323.109.286.555-.05.665.295.109.345-.842 1.624-.514 1.902.328.278 2.062-1.179 2.205-1.944.143-.766-1.262-.236-.799-.758.463-.522.833-1.633-.32-1.818zm9.923 12.869c-.311-.286-2.239 1.81-2.416 1.633-.176-.177-.235-.623-.488-.699-.252-.075-.522.623-.841.615-.32-.009 0-.724-.455-.783-.454-.059-.261.589-.53 1.296-.269.707-.96 1.776-.842 1.894.295.219 1.254-1.254 1.591-.673.337.58 1.044-.994 1.094-.665.118.707.312.841.606.446.295-.396 1.077-.884 1.448-1.305.37-.421 1.153-1.506.833-1.759zm.791-24.332c-.193-.606-1.119-1.095-1.548-.733-.43.362-.581.581-.177 1.33.404.75 1.102.842 1.448.564.345-.278.462-.547.277-1.161zm1.027-.042c-.286 0-1.153-2.037-1.102-2.61a.645.645 0 01.255-.536.641.641 0 01.586-.095c.463.101-.269-1.262.497-1.161.766.1.841.698 1.153 1.683.311.985-1.094 2.719-1.389 2.719zm1.086 11.354c-.312-.505.362-2.61.673-2.702.312-.093.236-.842 0-1.254-.236-.413-.337-1.355.11-1.456.446-.101.984.774 1.405 1.262.421.488.522-.471.842-.219.32.253.724 1.187 1.245 1.398.522.21.522-.699.884-.413s.472.791.791.69c.32-.101-.084-1.439.261-1.481.345-.042.362.118.615.269a6.99 6.99 0 011.069 1.044c.841 1.229 1.17 2.23.942 2.525-.227.295-.841-1.136-1.237-1.052-.396.084-.093.522-.412.842-.32.319-.691-.001-1.246-.489-.556-.488-.766.892-1.254.842-.488-.051-.918-1.683-1.33-1.894-.412-.21-.539 1.919-1.953 1.162-.463-.236-1.102 1.431-1.405.926zm5.21-18.568c-.337-.749-1.498-3.307-1.069-3.745.429-.438 2.028-.27 2.617.631.319.53.739.99 1.238 1.355.412.354 1.481.194 1.102.724-1.498 1.07-2.971-.656-3.156-.606-.185.05-.404 2.382-.732 1.641zm-17.751-8.298a26.588 26.588 0 005.984 2.802c.699 0 .446-.471.379-.766-.067-.294.48.118.892.169.413.05-.092-.977.396-.892.708.183 1.44.262 2.171.235.429-.143-.143-1.035-.841-1.262-.699-.227-.96.134-1.869-.303-.909-.438-2.247-1.608-2.525-1.364s.261.985-.076.91c-.336-.076-.673-.573-1.069-.514-.395.059 0 .572-.185.715-.185.143-1.355-1.001-1.734-.976-.378.025 0 1.069-.538.842-.539-.228-1.288-.034-.985.404zm7.886-.489a2.24 2.24 0 001.566.101c.463-.16.985-.841-.455-1.237-1.439-.395-1.38-1.313-1.893-.682-.514.632.118 1.591.782 1.818zm5.463-2.297c-.11.488-1.683.968-3.182.412-1.498-.555.278-.471-.488-.842-.766-.37-.446-1.422.665-.732 1.566.96 3.123.682 3.005 1.162zm-4.352-10.479a9.521 9.521 0 003.367.404c1.145 0 .244-.69 1.229-.58.985.109 1.557.16 1.927-.144.371-.303-1.052-1.069-.235-.842.816.228 2.121.32 2.104-.092-.017-.413-.404-.58-2.938-1.406-2.533-.825-2.752-.631-3.265-.53-.514.101-.337.522.219.766.555.244-.531.379-.455.665.051.134 0 .177.749.404.749.227-.724.841-1.473.606-.749-.236-2.104.387-1.229.749zm27.397 23.036c.622.101-.236-.681-1.128-1.616a8.606 8.606 0 00-2.374-1.683c-.454-.227 0 .715-.185.842-.185.126-.673-.438-1.094-.539-.421-.101-.311.842-.547.673-.236-.168-1.128-1.262-1.591-.555-.463.707.185 3.257.665 3.83.48.572.606-2.08 1.877-1.364 1.271.715 0-1.549.892-1.002a14.999 14.999 0 003.485 1.414zm-.775-11.766c-.547-.118-2.154-2.197-2.23-2.635-.076-.437.438-1.683 1.145-1.287a3.501 3.501 0 011.683 1.902c.387.934-.909.328-.791.648s.774 1.481.193 1.372zm2.946-3.838c-.724-.69-1.397-.758-1.683-.27-.286.489-.295 1.036.942 1.625 1.238.59 1.516.278 1.633.093.118-.186-.168-.758-.892-1.448zm5.134 2.626c-.909-.572-2.121-1.986-2.382-1.768-.261.22-.101.758.169.977.269.219-.842-.186-.446.471.395.656-.733-.463-.842.143-.253.791.076 1.17.968 1.498.892.329 2.66 1.06 2.02.169-.64-.893 1.835 1.355 2.129.841.295-.513-.707-1.759-1.616-2.331zm4.663 15.638a1.573 1.573 0 01-1.296-1.448c-.076-.841-.623-1.582.185-1.523.808.059.076-1.296.716-1.313.639-.017.791.993 1.026 1.894.236.9-.075 2.407-.631 2.39zm-1.734.656c-.202-.656-.791-1.22-1.296-1.043-.505.177-.353.774-.059 1.54.295.766.657 1.364 1.145 1.246.488-.118.421-1.078.21-1.743zm-5.016 11.346c-.631.211-1.002.354-.842 1.128.16.774-1.136-.951-1.195.093-.059 1.043 0 1.304-.244 1.624-.244.32-1.481-2.752-2.087-2.576-.606.177.766 3.367 1.001 4.318.236.951.842-.092.977.303.134.396.522 1.919 1.035 1.574.513-.345.067-2.155.421-2.037.353.118.791-.185.799-.799.009-.615-.05-1.094.455-.909.505.185.48-.682.337-1.456-.144-.775-.034-1.473-.657-1.263zm20.099.817c-.547-1.364-1.414-1.616-1.953-1.406-.538.21-.412.926.194 1.767.606.842 1.288 1.684 1.641 1.49.354-.193.64-.496.118-1.851zm-3.232-.497c-.412-1.17-1.153-1.902-1.582-1.734-.43.168-.396 1.069.143 2.155.538 1.086 1.186 1.826 1.473 1.683.286-.143.378-.942-.034-2.104zm-2.256.37c-.286-1.06-1.001-2.053-1.607-1.877-.606.177-.202.539-.547.842-.345.303-.413-.985-.648-1.54-.236-.556-.682.32-.682.32-.438.294-.522-1.608-1.086-.842-.564.766-.067 1.439.951 3.543 1.019 2.105 2.138 3.67 2.525 3.451.387-.219-.168-2.213.244-1.843 1.204 1.128 1.128-.993.85-2.054zm7.112 22.027c-.395.177-.176 1.481-.176 1.481 0 1.414-.573-.614-1.052.059-.48.673.067 2.256.117 2.727.051.471-.639-.555-.791.177-.151.732-.345 3.366.236 3.366s1.734-2.785 1.776-1.969c.042.816.16 1.229.732 1.035.572-.193.421-2.34.623-1.986.48 1.506 2.197 2.761 2.18 1.683a6.852 6.852 0 00-1.179-3.636c-.723-.959-2.078-3.122-2.466-2.937zm-3.871 6.371c-.084-.707-.421-.454-.791-.227-.371.227.437-.842 0-.993-.438-.152-1.254.505-1.297 1.203-.042.699-.732 1.852.245 1.263.976-.589.841 1.961 1.245 1.178a4.408 4.408 0 00.598-2.424zm-7.213-2.904c-.489-.218-1.153.287-1.532 1.137-.379.85-.53 1.59 0 1.91.53.32 1.178-.362 1.506-1.195.329-.833.505-1.641.026-1.852zm-2.138-2.289c-.522-.32-1.069.194-1.684 1.128-.614.934-1.102 1.86-.892 2.18.211.32 1.086-.934 1.339-.606.252.328-.144.917.252 1.229.396.311.842-.547 1.305-1.818.463-1.271.202-1.793-.32-2.113zm-7.398 10.925c-.792.581.715-1.902.143-2.205-.573-.303-1.078.841-1.835 1.683-.758.842-.749 1.49-.606 1.869.143.378.993-.135 1.043.244.051.378-.841 1.582-.547 2.02.295.437 1.431-.918 1.793-1.818.362-.901.8-2.391.009-1.793zm-4.512 2.441c0-1.128-1.372.185-1.801.841-.429.657-.168-1.01-.244-1.54-.109-.757-1.061.286-1.397.539-.337.252.067-1.843-.623-.993a14.648 14.648 0 00-1.498 2.76c-.623 1.187-.968 3.258-.488 3.291.479.034 1.018-1.498 1.355-1.75.336-.253-.118 1.456.572 1.414.69-.043 1.557-2.197 1.566-1.524.008.673.572 1.322 1.22.455a6.48 6.48 0 001.338-3.493zm-16.235 6.683c.917-1.061-2.525.404-2.963.841a.779.779 0 00-.036.93.78.78 0 00.878.308c.909-.261 1.203-1.019 2.121-2.079zm6.16 16.168c-.648-.244-3.248 1.801-3.417 2.39-.168.59 1.591-.488 1.515.278-.075.766-.059 1.532.43 1.523.488-.008.723-.521 1.127-1.321.531-1.094.994-2.626.345-2.87zm6.65-8.863c-.514-.05-.674.505-1.414 1.776-.741 1.271-1.002 2.525-.59 2.803.413.278 2.433-2.651 2.34-1.843-.092.808.354 1.489.791 1.018.511-.436.958-.94 1.33-1.498.236-.513.32 1.481.892.842a4.827 4.827 0 001.027-2.206c.27-.993.051-1.893-.463-1.944-.513-.05-1.464 1.482-1.784 2.003-.32.522-.404-.58-.648-.732-.244-.151-.749.067-.892.488-.143.421-.118-.656-.589-.707zm6.026 1.557c-.488-.219-.892.488-1.321 1.364-.43.875-.127 1.683.252 1.683s.657-.37 1.052-1.262c.396-.893.497-1.574.017-1.785zm3.594-1.287c-.455-.068-1.044 2.247-1.254 1.624-.211-.623-.724.118-1.212.917-.488.8-.842 1.684-.446 1.894.395.211 1.481-1.027 1.742-.513.261.513.345 1.683 1.002.942.656-.74 0-1.111.53-2.525s.118-2.264-.362-2.339zm7.541 12.103c-.496-.177-.74.379-1.271 1.969-.53 1.591-.723 2.609.093 2.668.816.059.791-.58 1.38-2.095.589-1.515.312-2.365-.202-2.542zm2.407 2.095c-.521-.143-.564.556-1.077 1.616-.513 1.061-.488 2.088 0 2.214.488.126.901-.219 1.355-1.532.455-1.313.236-2.154-.278-2.298zm.632-13.727c.437-.48 0-1.229.168-2.281s.539-3.08-.295-2.222c-.833.859-.547.202-.723-.766-.177-.968-1.162 1.305-1.81 1.86-.648.556-.926 1.532-.345 1.759.581.228 1.557-.513 1.801.051.244.564.766 2.087 1.204 1.599zm3.366-1.305c-.547-.042-.841.775-.707 2.189.135 1.414 0 1.868.295 2.398.294.531.757-.429.985-.126.227.303.042.842.597.766.556-.076 1.557 1.683 1.902.842a2.565 2.565 0 000-2.197c-.303-.741-.841.842-1.026.21-.186-.631-.177-.951-.362-1.733-.185-.783-.48 0-.842.042-.623-.017-.311-2.349-.842-2.391zm5.269-12.81c-.749 0-.412 1.684-1.229 1.456-.816-.227-1.422 1.094-1.565 1.919-.143.825.118 1.524.505 1.684.387.159 1.372-1.962 1.759-1.44.387.522.219 2.104.766 2.172.547.067 1.119-1.019.842-2.567-.278-1.549-.329-3.199-1.078-3.224zm-42.933-70.144c-.396.471 0 1.077.841 1.8.842.725 1.684 1.356 2.029 1.196.345-.16-.766-1.212-.404-1.414.362-.202.884.27 1.254-.076.37-.345-.421-.934-1.616-1.548-1.195-.615-1.709-.447-2.104.042zm-32.455-11.784c-.682-.277-2.862-.176-3.013.387-.152.564.396 1.044 1.919 1.154a30.56 30.56 0 014.461.925 14.615 14.615 0 014.208 1.86 4.111 4.111 0 011.726 3.174 8.098 8.098 0 01-1.229 3.72c-1.313 2.045-4.722 3.198-8.821 3.164-1.986-.252-4.208-2.23-4.865-2.474a3.939 3.939 0 00-2.121.126c-.463.126-.884.775-.606.842.278.067 1.877-.328 2.281.05a10.15 10.15 0 003.796 2.315c1.978.648 3.779.118 4.806.076a16.531 16.531 0 004.133-1.01 8.496 8.496 0 003.526-3.367 7.343 7.343 0 00.446-5.109 6.056 6.056 0 00-2.466-3.232 11.172 11.172 0 00-3.56-1.422 13.858 13.858 0 01-4.621-1.179z" fill="#231F20"/><path d="M146.265 74.639a5.892 5.892 0 004.259-2.272c1.052-1.356 1.414-3.064.244-4.428-1.17-1.363-3.889-2.053-5.32-2.238-1.43-.186-5.193-.32-5.891.168-.699.488-2.365 1.464-1.86 2.146.505.682 1.136.556 2.213-.471 1.078-1.027 1.212-1.019 1.961-1.002 2.694.143 8.518.556 8.131 3.367-.177 1.389-.379 2.239-2.214 3.366-1.077.716-2.373-.084-2.659.278-.287.362.336 1.153 1.136 1.086zm-19.459-4.259a2.882 2.882 0 01-3.308 2.02c-1.911-.219-3.577-1.523-3.367-2.365.21-.842 1.027-1.953 3.249-1.801 2.222.151 3.594 1.136 3.426 2.146z" fill="#231F20"/><path d="M153.469 55.6c.842.312 5.051-.563 5.631-.488.581.076-.227 1.145.126 1.195.354.051 3.308.118 5.606.295s6.346.842 6.868 1.204c.522.362-.438 1.094-.126 1.338.311.244 2.314 0 3.434.673 1.417.9 2.88 1.723 4.385 2.466 2.02.918 7.019 1.465 7.785 2.248.766.782-1.683.404-.69.841.993.438 2.273.48 3.055.766.783.286.758.446 2.138 1.355 1.381.91 5.134.842 5.269 1.347.135.505-1.305.135-1.288.631.017.497 1.785.75 1.953 1.002.168.252-.606.715-.236.841.371.127 2.643 1.002 3.779 1.55a52.941 52.941 0 017.575 5.057c1.894 1.684 4.31 2.458 4.436 2.913.126.454-1.557-.16-1.01.623.547.782 1.767 1.515 2.062 1.944.295.429-.269.32-.311.698-.043.38 2.095 1.38 1.876 1.776-.218.396-2.154-.345-1.683 0 1.263.766 6.978 8.476 6.818 8.779-.16.303-.573.345-.396.892.177.547 1.869 1.44 1.54 1.624-.328.186-.724.278-.614.792.917 2.415 3.577 3.484 3.804 4.208.227.724-.505.446-.589.741-.084.294.774 1.439.429 1.86-.345.42.842 1.733 1.364 2.339.522.606.842 1.103.505 1.095-.337-.009-.657.176-.379.564 1.97 4.444 3.939 6.211 3.678 6.851-.261.639-.9-.135-.842.496.059.632 2.256 5.21 2.046 5.581-.211.37-.387-.329-.539.159-.151.489.429 1.28.143 1.33-.286.051-.395.185-.336.455.539 1.768.823 3.605.841 5.454-.101 2.424 2.138 8.164 1.86 8.745-.277.581-1.245-1.044-1.001-.446a54.342 54.342 0 01-.135 9.056c-.269 1.06-1.296-.842-1.119 0a14.54 14.54 0 010 3.19c-.059 1.086-.952-.118-.943.177.164 1.024.238 2.06.219 3.097-.152.842-.531-.32-.623.194-.093.513 0 2.76-.522 2.962-.522.202-1.044-1.548-.959-.69.084.859-.707 4.023-.842 5.05-.135 1.027-.758-.69-.732.143a33.043 33.043 0 01-.699 4.554c-.202.841-.934-.505-1.044-.059-.471 2.945-3.232 10.521-3.922 11.32-.69.8-1.069-1.54-1.414-1.161-.345.378-.21 1.86-.841 2.575-.632.715-.32-.631-.665-.303-.345.328-3.443 7.272-4.158 7.819-.716.547-.227-.841-.665-.9-.716-.051-2.247 3.492-3.005 4.334-.757.842-.227-.842-.715-.185s-2.466 4.966-3.081 5.555c-.614.589-.328-.657-.976.101-.648.757-1.439 2.222-1.936 1.936-.497-.286.513-1.683-.151-1.002a24.662 24.662 0 01-3.611 3.459 40.953 40.953 0 01-5.85 4.133 53.755 53.755 0 01-7.196 3.459c-2.786 1.052-3.964 1.414-7.769 2.601a47.713 47.713 0 01-7.861 1.768 59.96 59.96 0 01-8.416.791c-2.525.134-6.936-.11-8.628-.202-1.691-.093-6.186-.892-8.416-1.28a83.524 83.524 0 01-13.08-3.568 96.339 96.339 0 01-8.745-4.04c-13.088-6.489-23.692-16.918-27.05-20.688-3.359-3.771-6.675-7.424-8.611-10.311-1.936-2.887-7.289-10.403-9.83-16.076a96.221 96.221 0 01-5.126-14.367 347.066 347.066 0 01-2.323-10.176c-.91-4.233-1.473-7.861-1.558-8.77-.084-.909.994-1.043 1.372.211.38 1.254 1.92 7.061 2.525 8.416.606 1.355 3.965 9.461 4.714 10.942.749 1.481 4.208 8.417 5.285 10.571 1.078 2.155 8.745 14.174 17.339 23.483a103.837 103.837 0 009.931 8.972 74.82 74.82 0 008.762 6.38c4.007 2.39 9.663 5.05 11.018 5.656a98.525 98.525 0 0010.874 4.208c12.036 3.241 21.496 2.576 25.25 1.869a76.353 76.353 0 0012.768-4.209c2.525-1.119 9.62-5.117 11.91-7.701 2.289-2.584 2.895-3.274 3.198-4.208.303-.935-1.557.437-1.549.042.009-.396 1.684-3.3 1.684-3.645 0-.345-.64.244-.682-.109-.042-.354.463-.892.454-1.33-.008-.438-.841-.101-.488-.682.354-.58 2.34-2.626 2.525-3.493.185-.866-1.683.253-1.279-.437.404-.69.682-1.061 1.052-1.599.842-1.751 1.119-3.636.438-4.411-.682-.774-2.643.387-3.62.32-.976-.067.059-.943-.286-.993-.345-.051-2.525 1.313-3.316 1.456-.791.143-.168-1.044-.48-.842l-2.045 1.153c-1.052.337-1.793 2.138-2.373 2.525-.581.388 0-1.245-.893-1.001-.892.244-6.531 4.621-7.272 4.494-.74-.126.733-1.043 0-.934-.732.109-4.208 2.668-4.258 2.239-.051-.429 1.212-1.894.42-1.549-.791.345-1.759.345-2.365.842-.606.496-3.821 2.735-4.679 3.451-.859.715-1.456 3.366-2.239 3.669-.783.303-3.619 4.461-3.796 3.578-.177-.884.64-2.618.236-2.761-.404-.143-1.886 2.197-3.468 2.988-1.582.791-1.263 3.274-1.616 3.013a1.801 1.801 0 01-.623-2.348c.514-1.507.985-2.525.219-1.97-2.188 1.759-1.683 3.99-2.045 3.821a1.835 1.835 0 01-.842-1.919c.177-1.06.455-1.767.042-1.582-1.246.606-.993 2.887-1.338 2.525a4.452 4.452 0 01-.783-3.013 13 13 0 011.094-3.653c.371-.842.371-1.136 2.248-3.097 1.876-1.961 3.131-2.138 4.923-3.771 1.793-1.633 10.109-5.521 10.227-5.757.117-.236-.522-.328-.253-.64a54.52 54.52 0 015.345-2.525 12.894 12.894 0 002.525-1.355c.134-.303-.741-.429-.312-.841.429-.413 4.528-4.318 4.789-4.739.261-.421-1.355-.101-1.035-.757.32-.657 1.439-2.096 1.523-2.424.085-.329-.698.286-.698-.245 0-.53 1.607-4.208 1.321-4.149-.286.059-2.483 1.523-3.366 1.683-.884.16-.118-1.085-.472-.74a6.54 6.54 0 01-2.693.799c-.842.059-1.119.497-2.752 1.608a13.97 13.97 0 01-3.906 2.02c-2.238.909-4.957 1.759-6.304 3.367-1.346 1.607-2.903 1.944-3.61 3.088-.707 1.145-2.147 2.483-2.222 1.616-.076-.866 1.439-2.996.967-2.836-.471.16-1.961 1.624-2.785 1.894-.825.269-1.583 1.085-2.643 3.08-1.061 1.995-.615 2.727-1.019 2.281-.404-.446-1.229-2.247-.951-2.954.278-.707 1.187-3.106.606-2.399-2.323 2.963-1.683 4.924-2.146 4.511a2.448 2.448 0 01-.909-2.137 5.602 5.602 0 01.05-1.313c0-.219-.656-.699-.732-1.196-.076-.496 1.271-3.602 2.34-5.092 1.069-1.489 4.377-2.786 5.378-3.602 1.002-.816 6.212-2.794 6.186-3.181-.025-.388.842-.211 3.039-1.574 2.197-1.364 2.171-1.431 2.887-1.911.715-.48 6.514-2.331 7.373-2.921.858-.589-1.355-.765-.185-1.144 2.802-.682 4.343-.093 5.218-.775 2.525-2.28 3.266-1.413 3.215-1.902-.05-.488.514-2.567.598-3.501.084-.934-1.684.631-1.507-.067.177-.699 1.683-4.503 3.182-5.791a33.169 33.169 0 004.402-4.772c.656-.943-1.078-.842-.724-1.221.353-.378 1.624-.648 1.447-.993-.791-2.415 0-2.988-.294-3.223-.842-.472-1.549-3.704-1.919-3.367-.371.337-1.086 2.264-1.566 1.608-.479-.657-.766-4.167-1.271-4.209-.505-.042-.496 1.835-1.026 1.01-.531-.825-.43-4.503-1.81-4.318-1.38.186-4.208 4.125-5.227 4.832-1.018.707-.32-1.97-1.001-.943-2.778 4.334-4.941 6.035-5.707 6.615-.766.581-.101-1.767-.606-1.094-.732.977-2.87 3.661-4.646 4.36-1.776.699-6.338 4.107-7.962 5.05-1.624.943-2.449.404-4.082 1.81a18.866 18.866 0 00-4.764 6.481c-1.203 2.929-1.431 2.398-1.751 1.388-.345-1.683.362-2.912-.109-2.887-1.204 0-1.456 1.019-2.163 2.306-.707 1.288-.598.691-1.086 1.978-.488 1.288.27 2.971 0 2.786a3.306 3.306 0 01-1.835-2.02c-.42-1.388-.429-1.969-.665-2.095-.74.715-.353 3.779-.917 3.257a2.968 2.968 0 01-.842-2.079c0-.665.345-1.852 0-1.927-.715.496-.749 2.466-1.279 2.272-.53-.194-1.027-3.889-.757-4.882a13.532 13.532 0 012.727-4.317c.841-.707 4.73-4.116 5.891-4.327 5.05-1.06 4.873-1.254 6.363-2.339 1.49-1.086 1.801-1.684 4.486-4.537a33.343 33.343 0 004.091-4.974c.421-.64-.598-.16-1.212-.413-.615-.252 1.481-1.237 1.111-2.356a29.622 29.622 0 01-3.948 1.229c-1.313.404-.05-.935-.463-.75-.412.186-2.398 1.137-2.828 1.406-.429.269 0-1.035-.311-.842-.311.194-.463.438-3.367.884-2.903.446-3.408-.387-5.412.918-2.003 1.304-1.548 1.287-2.112 2.794-1.153 2.222-1.439 1.38-2.71 2.323-1.271.942-1.305 2.929-1.515 2.66a2.699 2.699 0 01-.589-2.265c.218-1.237 1.195-2.449.311-2.062-2.424 2.147-2.289 1.448-3.165 2.458-1.481 1.986-.985 3.762-1.304 3.686a2.019 2.019 0 01-1.095-1.893c.16-.901.463-1.886 0-1.877-.951.421-.925 3.459-1.245 3.366-.32-.092-.926-.925-.842-2.255.084-1.33.253-1.372-.202-1.49-.842-.193-1.01 2.306-1.304 2.02a3.894 3.894 0 01-.539-2.979c.303-1.33 2.399-4.209 3.122-4.958.724-.749 5.757-5.218 8.998-5.891 3.24-.674 3.022.109 4.208-.59 1.187-.698-1.33-.665-.9-1.405.429-.741 7.827-1.397 8.021-1.684.193-.286-.733-.303-.379-.631.51-.397.991-.83 1.439-1.296.48-.564-1.237-.219-.261-1.052 2.887-2.331 3.594-3.527 3.906-6.658.311-3.13.673-5.15-2.896-7.7-.707-.514-.378 1.918-.9 1.868-1.339-.144-3.451-5.968-5.37-6.801-.657-.093-.194 1.843-.943 1.683-1.086-.488-2.744-3.366-3.173-3.366-.429 0 .396 1.439-.151 1.397-1.238-.152-4.865-4.023-5.732-4.36-.631-.253.454 1.178.126 1.683-.328.505-2.424-.993-3.484-1.759a12.299 12.299 0 00-4.899-1.683c-.538-.067-.328.715-1.035.665-.707-.05-4.545-2.315-5.622-2.525-3.308-.16-5.774-1.305-6.431-1.271-1.978 3.678-2.937 4.983-2.685 9.544.253 4.562 8.266 11.565 7.71 11.32-.555-.243-7.71-4.847-8.703-10.697-.799-4.208-.505-5.429 1.911-10.689 0 0-1.111-.168-1.684-.227-.429 1.28-4.848 7.002-2.634 16.387 2.416 10.42 4.848 11.32 4.848 11.32s-3.005-.143-5.976-11.32c-1.683-6.893-1.338-8.72 2.096-16.833a12.606 12.606 0 00-1.465-.438s-2.373 5.117-4.208 9.629c-2.323 5.698 1.044 10.226.564 10.411a12.362 12.362 0 01-1.869-10.243c1.903-6.514 3.763-9.46 3.855-10.42-1.431-.379-1.927-1.06-3.366-1.624-1.44-.564-2.845-2.003-4.032-2.34a2.719 2.719 0 01-1.683-3.165 2.938 2.938 0 012.575-2.188c.892-.067 3.207-.168 3.939-.311a32.831 32.831 0 014.335-1.33s.9-6.801 3.366-10.488c2.467-3.686 4.276-4.494 5.951-6.733.749.842-3.771 4.722-5.639 8.156-1.869 3.434-2.028 8.568-1.843 8.316a5.117 5.117 0 011.683-.59 21.117 21.117 0 015.05-9.872 129.436 129.436 0 0011.834-12.625s-3.855 6.682-8.652 11.009c-4.798 4.326-6.549 9.502-6.557 10.941a6.72 6.72 0 011.481-.336s.589.218 1.97-2.323c1.776-3.123 2.718-3.636 2.962-3.485.245.152-2.079 2.458-3.114 5.623.446-.051 5.16-1.145 7.575-1.684 2.416-.538 3.805-1.59 5.808-3.005 2.003-1.414 7.499-6.632 10.664-8.938 3.164-2.306 9.258-3.19 10.941.555.632 1.574-.732 3.636-1.54 5.539-.311.572 3.207.059 4.048.361zm-15.36 1.987c-.842-.345 2.778-1.296 4.318-1.608 2.979-.606 4.259 0 5.378-1.439.455-.564.261-.75 1.204-2.525.942-1.776-.135-2.357-.968-2.668-1.566-.665-4.991.21-6.86 1.246-1.868 1.035-5.723 4.452-7.415 5.891-1.692 1.44-5.286 4.326-6.548 5.126-1.263.8-10.327 2.416-10.327 2.416s-5.656 1.06-6.793 1.742c-1.136.682-4.864 1.355-5.992 1.995-1.128.64-3.51.336-3.931.345-.42.008-1.734.471-1.927.909a2.272 2.272 0 00-.068 1.498c.816.382 1.66.7 2.525.95.649.148 1.32.174 1.978.077 0 0 1.212-.623 1.414-.101.202.522-1.136 1.06-1.481 1.372-.345.311 1.347.841 2.02 1.237a3.645 3.645 0 002.054.48c.168-.152.639-1.145 1.313-.775.673.37.143 1.33.362 1.498a2.52 2.52 0 001.245.354c.328-.059.724-1.178 1.431-.9.707.277.093 1.38.345 1.624a1.774 1.774 0 001.322.328c.202-.152.437-.909 1.161-.724.724.185.471 1.178.623 1.28 1.361.53 2.794.85 4.25.95a11.11 11.11 0 014.369 1.187c.833.493 1.696.934 2.583 1.322.413.05-.151-1.372.952-.943 1.102.43 2.382.724 3.711 1.254 1.33.53 2.138.892 2.879 1.254.741.362-.169-.841.269-1.28.438-.437 5.724 3.325 6.111 4.024.387.699-.084-1.835.841-1.33.926.505 3.106 2.988 3.594 3.173.488.186.11-1.683.918-1.388.808.294 4.301 4.789 4.982 5.723.682.934.093-.59.741-1.136.648-.547 5.05 5.134 5.648 7.221.185.556.235-.892.841-.623.606.27 1.238 2.694 1.498 3.005.261.311.303-1.195 1.044-.471.741.724-.337 4.721.774 7.524.27.522.842-.32 1.111.429.27.75-.917 2.424-.404 2.854.514.429.632-.219.842.429.211.648-.395 2.155-.286 2.575.109.421.682-.168.732.388.051.555-1.397 3.585-1.506 3.964-.11.379 1.085-.177.942.429a28.507 28.507 0 01-3.366 5.681 45.887 45.887 0 01-3.822 4.209c-.311.227.623.379.59.69-.034.311-.842 1.818-.994 2.298-.151.479 1.44-.093 1.852-.27.413-.176-.766 2.02-.067 1.802a81.578 81.578 0 007.735-4.554 15.652 15.652 0 003.711-3.611c.413-.69 1.111-2.474 1.44-2.028.328.446.378 1.406.622 1.38.245-.025 1.911-2.483 3.308-4.208 1.397-1.726 1.338-4.267 2.071-4.04.732.227.429 3.223.892 2.862.463-.362.934-1.684 1.229-2.155.294-.471.429.463.69.177.261-.286 1.506-3.897 1.91-3.367.404.53.287.926.581.564a13.899 13.899 0 001.515-2.525 3.24 3.24 0 00.16-1.936c-.076-.429.194-.648.497-.513.303.134-.202-1.423.665-.968.867.454.623 1.515.984 1.304a9.61 9.61 0 001.827-3.787c.387-1.625.379-4.065 1.001-3.956.623.109.497 3.367.236 4.781-.261 1.414-2.34 5.05-2.601 5.513-.261.463-.917-1.01-1.01-.421a16.89 16.89 0 01-1.489 3.366c-.127.211 1.169 1.196 1.557 2.13.387.934.547.387 1.085.841.539.455.842 2.298 1.027 2.946.337.842.488-2.213 1.027-1.683.539.53 1.835 3.956 2.113 4.915.277.96.555-1.085 1.102-.446.415.566.634 1.252.623 1.953.101.741.497 1.515.892 1.363a20.657 20.657 0 003.14-1.801c.37-.37-.884-.698-.295-.968.589-.269 2.071-.311 2.895-.841.825-.531 1.103-1.44 1.945-1.372.841.067 3.198-.438 3.88-.396.681.042-.766-.606 0-.968s3.695 0 5.664.228c1.985.307 3.926.849 5.782 1.615.421.253-.968-1.405-.328-1.683.64-.278 1.237 1.322 3.064 2.525 1.826 1.204 2.601 1.128 2.239 1.683-.362.556-3.443-.572-3.838-.883-.396-.312 0 .682-.253.783-.252.1-1.035-.522-1.321-.691-.286-.168.244 1.313-.303 1.204-.547-.109-1.237-1.12-2.045-1.784-.808-.665-6.288-1.372-6.826-1.212-.539.16 0 .488-.371.74-.37.253-3.223-.244-3.56.278-.337.522.362.69-.093.959-.454.27-3.366.135-4.208 1.027-.842.892 1.086.783.749 1.305-.336.522-5.286 1.077-6.523 2.66-.294.496.842-.295.749.261-.092.555-1.776 2.348-2.121 2.962a7.77 7.77 0 01-2.794 2.887 7.71 7.71 0 00-2.82 2.811 8.043 8.043 0 00-.698 1.86c-.118.413.665-.21.732.152.067.362-.446 1.607-.631 2.693 0 .648.437-.244.715.118.278.362-.488 2.651-.69 4.461-.202 1.809-.353 4.68-.143 4.94.21.261-.791 1.111-.774 1.684.016.572 1.17-.842 1.254-.042.084.799-1.137 2.76-1.608 3.753-.328.581.934-.151.901.531-.034.681-1.818 2.424-2.332 2.962-.513.539 1.482-.101 1.684.396.202.497-2.138 2.382-2.315 2.567-.177.185-.059 0 .227.236.286.235-1.919 1.742-2.659 2.744-.404.454.564.218.303.74-.261.522-4.688 2.643-5.547 3.157-.539.294.741.134.758.606.016.471-1.036.908-.674 1.136.362.227 3.367-.514 3.939-.379.573.135-1.271 2.171-1.683 3.106-.412.934 3.577-1.069 4.133-1.33.555-.261.37.202.21.934s5.37-3.51 5.892-3.594c.521-.084.21.842.538.573.329-.27 4.512-3.157 5.429-3.182.917-.025-.64 1.347.295 1.128.934-.219 3.139-1.431 3.56-1.338.421.092-.076 1.296.547 1.245.623-.05 3.409-.151 3.897.236s-.758.96-.438 2.34c.244 1.01-.429 2.146-.884 3.173 0 0 .665-.303.783.185s-2.079 3.905-2.298 4.545c-.218.64.842-.606.935.084.092.69-1.019 2.643-1.162 3.047-.143.404 1.052-.193 1.178.261.32.943-2.339 4.73-2.525 5.311-.185.581 1.423-1.103 1.768-.842s.252 2.349.269 3.056c.017.707 2.71-2.862 3.283-2.433.572.429-.084 3.03 0 3.897s1.422-.8 2.053-1.018c.632-.219.076 2.137.144 2.971.067.833 1.683-2.584 2.297-2.677.615-.092-.092 2.222.64 1.616a8.117 8.117 0 002.289-3.249c.842-1.902 1.313-4.578 1.734-5.159.421-.581.387 1.439.951.842a14.783 14.783 0 002.374-3.443c.48-1.153.53-1.498.984-1.835.455-.336.573 1.928 1.145.951.573-.976 2.231-5.681 2.769-6.27.539-.589.413.253.64.118.227-.135.959-2.971 1.565-3.274.606-.303.598 1.936 1.019 1.229.421-.707 1.195-1.406 2.138-5.454.942-4.049 1.919-6.549 1.473-7.719-.446-1.169 1.035 0 1.212-.319.176-.32 1.818-7.365 1.607-7.794-.21-.429 1.035 1.195 1.204.976a9.02 9.02 0 00-.177-2.289c-.051-.421.471.05.656-.202.186-.253-.353-3.097-.479-3.788-.126-.69.985.48 1.212.345.227-.134-.522-2.87-.27-3.425.253-.556 1.137 1.414 1.229.749a14.3 14.3 0 00.488-5.715c-.395-3.081-1.212-8.417-2.188-10.487-.345-.791.682 0 .892-.438.211-.437-1.128-5.05-.681-5.336.446-.286 1.102-1.582-2.795-7.053-.799-1.195 1.246.059 1.498-.135.253-.193-1.077-2.887-2.365-5.757-1.288-2.87-4.141-6.489-4.158-7.129-.016-.639.775-.084.96-.202.185-.118-1.911-2.154-3.535-4.713s-2.811-3.123-2.879-3.788c-.067-.664 1.961.606 1.818 0a10.791 10.791 0 00-2.743-4.696c-2.147-2.357-2.753-2.862-2.601-3.426.151-.564-1.372-1.944-2.231-2.634-.858-.69.244-.842-1.902-2.247-2.146-1.406-4.023-2.332-4.427-2.71-.404-.38 1.271-.303 1.018-.783-.252-.48-3.913-2.584-5.268-3.283-.573-.294.101.842-.354.707-.454-.134-1.961-1.574-4.663-2.18-1.119-.336.884-.774.775-1.06-.11-.286-3.165-.977-3.46-1.212-.294-.236.59-.631.219-.842a5.572 5.572 0 00-3.181-1.506 14.88 14.88 0 01-5-1.684c-.841-.48-.042-.58 0-.766.042-.185-4.772-1.195-5.748-1.683-.977-.488-2.98-2.29-4.074-2.382-1.094-.093-3.838-.842-4.747-.648a3.3 3.3 0 01-2.525-.412c-.581-.421 1.271-.598 1.616-1.01.345-.413-1.111-.699-2.954-.699-1.843 0-7.988-.202-8.619-.278-.631-.075.412-.917-.05-.841a31.79 31.79 0 00-4.857.202c-3.501.37-4.452-.556-7.061 0-2.61.555-5.766.774-6.616.429zm18.778 41.772c-.295-.446-.766 2.525-1.246 3.577s-2.424 4.343-2.853 4.604c-1.052.841-.968 1.969-1.364 2.457a4.066 4.066 0 01-1.683 1.524c-.791.269-4.57.766-5.244 1.086-.673.319.514.942.345 1.313-.168.37-2.146.42-2.095.614.05.194.9.185.841.64-.059.454.775.168 1.238.328.463.16-.556.732-.413 1.018.143.287 1.49.042 1.869.303.378.261-1.414 1.456-.842 1.507.572.05 3.459-.37 4.629-.514 1.17-.143 3.207-2.398 3.586-2.356.378.042.311.841.05 1.49-.261.648 1.978-1.254 2.289-1.246.312.008-.37 1.128.11 1.161.48.034 3.291-1.599 3.535-2.154.244-.556.943-3.005.446-3.274-.497-.27-.379-1.153-.665-1.414-.286-.261.539-.606.219-.842-.32-.236-.488.185-.842-1.077-.353-1.263.404-2.399-.227-5.353-.581-.699-.295.446-.968 0s-.421-2.955-.715-3.392zm-12.962 18.197c-1.094-.438-1.911.277-2.331.042-.421-.236 1.321-1.465 1.321-1.465-.976-.303-.69-1.245-1.397-1.161-.707.084-1.549 0-2.778.05-1.229.051-4.873 2.845-6.27 3.779a7.749 7.749 0 00-2.087 1.785c-.539.606-1.97 1.834-2.248 3.131-.244.648 1.583-1.339 1.827-1.095.244.245.126.724-.387 1.473-.514.749-.691 1.684-.354 1.574.337-.109 1.894-2.525 2.643-2.525.749 0-.042.842-.379 1.743-.336.9-.269 1.481.101 1.161a20.87 20.87 0 012.584-2.407c.842-.514 2.828-1.944 3.165-1.616.336.328.084 1.422-.194 2.138-.278.715 1.12-.918 1.684-.994.563-.075.841-2.255 1.843-3.139 1.001-.884 4.376-2.028 3.257-2.474zm10.411 14.527c-.892-.354-2.154.774-2.255.277-.101-.496.623-1.338.791-1.775.168-.438-.539.126-.488-.303.05-.43.74-1.398.286-1.036a37.765 37.765 0 01-3.005 2.424c-1.414.977-3.24.918-4.486 1.372-1.246.455-3.367 2.104-4.09 2.424a7.65 7.65 0 00-2.668 2.189c-.657.951-1.423 1.961-1.793 2.617a1.752 1.752 0 00-.051 1.801c.286.261.682-1.296 1.389-1.91.707-.615 1.86-1.919 2.315-1.591.454.328-.783 1.683-1.128 2.121a4.338 4.338 0 00-.48 2.272c.093.421.732-1.363 1.313-2.036.581-.674 1.212-1.204 1.456-.775.244.43-.842 2.13-.993 2.626a4.633 4.633 0 00.202 2.231c.168.429.842-2.062 2.264-3.973a3.758 3.758 0 012.003-1.111c.455 0 .968-.917 1.322-.656.353.261 0 1.523 0 1.969 0 .446.732-1.944 2.146-3.409a20.098 20.098 0 013.316-3.055c.842-.505 1.683-.665 2.113-1.145.429-.479 1.456-1.195.555-1.548h-.034zm27.237 14.114c-.842-.269-2.231.918-3.157 1.398-.925.479-2.727 0-3.459.37-.732.37.27.387-.109.749s-4.208 1.683-4.747 2.062c-.539.379-2.668.497-3.678 1.162a40.722 40.722 0 00-3.695 2.306c-.438.471 1.801-.261 2.525-.059s-1.869 1.683-.606 1.549c1.262-.135 3.223-.842 3.72-.649.497.194.303 1.6-.261 2.374-.564.774 1.869-.901 2.525-.951.657-.051 1.919-1.406 2.525-1.524a5.58 5.58 0 002.66-.681c1.313-.749 2.053-1.313 2.634-1.229.581.084.446.109 0 .732-.109.345 2.121-.572 2.045-1.001 0-.842.943-1.002.842-2.004-.109-1.565.606-4.351.269-4.604h-.033zm-14.687 10.101c-1.204.303-4.815 1.228-5.05.925-.236-.303 1.035-1.228.909-1.641-.127-.412-2.079-.522-2.273 0-.193.522-5.344 2.113-5.782 2.895-.438.783-3.123 1.81-3.754 2.323-.631.514-1.683.842-2.146 1.532-.463.69-1.195 2.18-1.077 2.525.117.345 1.767-2.525 2.525-2.34.757.186-.623 1.894-1.044 2.239a3.424 3.424 0 00-1.103 1.473c-.261.682-.37 1.919-.067 1.431s2.365-2.988 3.266-2.811c.9.177-.127 1.279-.446 1.894-.32.614-.522 2.567-.16 1.75.362-.816 1.893-3.249 2.668-3.299.774-.051 3.046-1.936 4.048-2.374 1.002-.437.69.935.749 1.313.059.379 2.441-2.289 3.821-3.097 1.381-.808 5.269-2.138 4.806-2.39-.463-.253 1.347-2.677.143-2.365l-.033.017zm2.735 17.515c-.707-.076 1.044-1.835.488-1.844a6.532 6.532 0 00-2.752 1.305c-.564.513-8.316 4.099-8.316 4.099a31.829 31.829 0 00-2.693 2.239c-.699.724-1.969.951-3.51 3.139-1.54 2.188-1.902 2.348-2.121 2.912-.219.564-.757 1.465-.656 1.844.101.378 1.557-1.684 2.213-2.34.657-.657 1.398-1.482 1.684-1.187.286.294-.455 1.397-1.036 2.247a3.668 3.668 0 00-.639 2.113c.042.286 1.397-1.347 2.037-1.726.639-.378 1.119-1.464 1.616-1.144.496.319-1.212 3.526-.556 3.021a9.595 9.595 0 002.39-2.138c.783-1.085 2.854-2.727 3.291-2.735.438-.008-.547 1.894-.05 1.751a2.89 2.89 0 001.389-1.322c.381-.9.837-1.767 1.363-2.592.682-.842 5.134-4.107 6.818-4.36 1.683-.252 2.794-1.254 2.323-1.33-.472-.075-.522-.168-.253-.614.269-.446 2.34-2.256 1.683-2.231-.656.026-3.981.952-4.679.876l-.034.017zm25.503 16.261c-.438.294-1.507 1.683-1.827 1.01-1.128 1.136-1.953 1.683-3.796 3.198a38.113 38.113 0 01-5.799 3.577 57.277 57.277 0 01-6.935 3.274 88.606 88.606 0 01-8.72 2.643 45.355 45.355 0 01-8.492 1.018 89.345 89.345 0 01-10.386-.841 79.753 79.753 0 01-10.942-2.618c-3.224-1.044-8.678-3.51-10.311-4.208-1.632-.699-6.169-3.089-8.845-4.68a79.167 79.167 0 01-9.259-6.573c-3.148-2.609-5.984-5.05-8.189-7.264-2.205-2.213-6.203-6.817-7.988-8.997-1.784-2.18-5.891-8.047-6.565-9.107-.673-1.061-3.99-6.102-6.228-10.168-2.239-4.065-2.82-5.841-3.695-7.65-.875-1.81-2.02-4.15-2.685-5.74-.665-1.591-1.851-5.227-2.104-5.252-.252-.026.934 4.376 1.683 7.238a55.07 55.07 0 001.877 6.262 75.311 75.311 0 006.17 14.367c1.936 3.367 1.927 3.165 3.678 5.816a73.426 73.426 0 005.37 7.289c2.525 3.089 2.861 3.459 5.479 6.363 2.618 2.904 4.368 5.05 7.095 7.617a82.685 82.685 0 007.794 6.456 84.643 84.643 0 0013.467 8.139 127.685 127.685 0 006.792 3.122 37.016 37.016 0 005.201 1.793 56 56 0 009.04 2.079c2.443.519 4.913.906 7.398 1.161a46.92 46.92 0 007.802.463c3.889-.042 3.62.059 6.734-.446a73.096 73.096 0 008.265-1.776 49.871 49.871 0 006.447-1.978 72.408 72.408 0 007.121-2.601 23.27 23.27 0 006.236-3.619c1.903-1.372 4.705-3.762 5.05-4.09.345-.328-.841.143-.639-.463.202-.606 1.531-2.433.766-2.02-1.061.597-2.34 1.683-2.525.968-.186-.716.572-3.88 0-3.417-.573.463-2.66 2.676-2.837 2.382-.177-.295-.219-3.039-.665-2.744l-.033.017z" fill="#231F20"/><path d="M155.153 108.92c-.48 0-1.347 2.037-1.237 2.323.109.286.555-.05.665.295.109.345-.842 1.624-.514 1.902.328.278 2.062-1.178 2.205-1.944.143-.766-1.262-.236-.799-.758.463-.522.833-1.633-.32-1.818zm9.923 12.869c-.311-.286-2.239 1.81-2.416 1.633-.176-.177-.235-.623-.488-.699-.252-.075-.522.623-.841.615-.32-.009 0-.724-.455-.783-.454-.059-.261.589-.53 1.296-.269.707-.96 1.776-.842 1.894.295.219 1.254-1.254 1.591-.673.337.58 1.044-.993 1.094-.665.118.707.312.841.606.446.295-.396 1.077-.884 1.448-1.305.37-.421 1.153-1.506.833-1.759zm.791-24.332c-.193-.606-1.119-1.095-1.548-.733-.43.362-.581.581-.177 1.33.404.75 1.102.842 1.448.564.345-.278.462-.547.277-1.161zm1.027-.042c-.286 0-1.153-2.037-1.102-2.61a.645.645 0 01.255-.536.641.641 0 01.586-.095c.463.101-.269-1.262.497-1.161.766.1.841.698 1.153 1.683.311.985-1.094 2.719-1.389 2.719zm1.086 11.354c-.312-.505.362-2.61.673-2.702.312-.093.236-.842 0-1.254-.236-.413-.337-1.355.11-1.456.446-.101.984.774 1.405 1.262.421.488.522-.471.842-.219.32.253.724 1.187 1.245 1.397.522.211.522-.698.884-.412s.472.791.791.69c.32-.101-.084-1.439.261-1.481.345-.042.362.118.615.269a6.99 6.99 0 011.069 1.044c.841 1.229 1.17 2.23.942 2.525-.227.294-.841-1.136-1.237-1.052-.396.084-.093.522-.412.841-.32.32-.691 0-1.246-.488-.556-.488-.766.892-1.254.842-.488-.051-.918-1.683-1.33-1.894-.412-.21-.539 1.919-1.953 1.162-.463-.236-1.102 1.431-1.405.926zm5.21-18.568c-.337-.749-1.498-3.307-1.069-3.745.429-.438 2.028-.27 2.617.631.319.53.739.99 1.238 1.355.412.354 1.481.194 1.102.724-1.498 1.07-2.971-.656-3.156-.606-.185.05-.404 2.382-.732 1.641zm-17.751-8.298a26.588 26.588 0 005.984 2.802c.699 0 .446-.471.379-.766-.067-.294.48.118.892.169.413.05-.092-.977.396-.892.708.183 1.44.262 2.171.235.429-.143-.143-1.035-.841-1.262-.699-.227-.96.134-1.869-.303-.909-.438-2.247-1.608-2.525-1.364s.261.985-.076.91c-.336-.076-.673-.573-1.069-.514-.395.059 0 .572-.185.715-.185.143-1.355-1.001-1.734-.976-.378.025 0 1.069-.538.842-.539-.228-1.288-.034-.985.404zm7.886-.489a2.24 2.24 0 001.566.101c.463-.16.985-.841-.455-1.237-1.439-.395-1.38-1.313-1.893-.682-.514.632.118 1.591.782 1.818zm5.463-2.297c-.11.488-1.683.968-3.182.412-1.498-.555.278-.471-.488-.842-.766-.37-.446-1.422.665-.732 1.566.96 3.123.682 3.005 1.162zm-4.352-10.479a9.521 9.521 0 003.367.404c1.145 0 .244-.69 1.229-.58.985.109 1.557.16 1.927-.144.371-.303-1.052-1.069-.235-.842.816.228 2.121.32 2.104-.092-.017-.413-.404-.58-2.938-1.406-2.533-.825-2.752-.631-3.265-.53-.514.101-.337.522.219.766.555.244-.531.379-.455.665.051.134 0 .177.749.404.749.227-.724.841-1.473.606-.749-.236-2.104.387-1.229.749zm27.397 23.036c.622.101-.236-.681-1.128-1.616a8.606 8.606 0 00-2.374-1.683c-.454-.227 0 .715-.185.842-.185.126-.673-.438-1.094-.539-.421-.101-.311.842-.547.673-.236-.168-1.128-1.262-1.591-.555-.463.707.185 3.257.665 3.83.48.572.606-2.08 1.877-1.364 1.271.715 0-1.549.892-1.002a14.999 14.999 0 003.485 1.414zm-.775-11.766c-.547-.118-2.154-2.197-2.23-2.635-.076-.437.438-1.683 1.145-1.287a3.501 3.501 0 011.683 1.902c.387.934-.909.328-.791.648s.774 1.481.193 1.372zm2.946-3.838c-.724-.69-1.397-.758-1.683-.27-.286.489-.295 1.036.942 1.625 1.238.59 1.516.278 1.633.093.118-.186-.168-.758-.892-1.448zm5.134 2.626c-.909-.572-2.121-1.986-2.382-1.768-.261.22-.101.758.169.977.269.219-.842-.186-.446.471.395.656-.733-.463-.842.143-.253.791.076 1.17.968 1.498.892.329 2.66 1.06 2.02.169-.64-.893 1.835 1.355 2.129.841.295-.513-.707-1.759-1.616-2.331zm4.663 15.638a1.573 1.573 0 01-1.296-1.448c-.076-.841-.623-1.582.185-1.523.808.059.076-1.296.716-1.313.639-.017.791.993 1.026 1.894.236.9-.075 2.407-.631 2.39zm-1.734.656c-.202-.656-.791-1.22-1.296-1.043-.505.177-.353.774-.059 1.54.295.766.657 1.364 1.145 1.246.488-.118.421-1.078.21-1.743zm-5.016 11.346c-.631.211-1.002.354-.842 1.128.16.774-1.136-.951-1.195.093-.059 1.043 0 1.304-.244 1.624-.244.32-1.481-2.752-2.087-2.576-.606.177.766 3.367 1.001 4.318.236.951.842-.092.977.303.134.396.522 1.919 1.035 1.574.513-.345.067-2.154.421-2.037.353.118.791-.185.799-.799.009-.615-.05-1.094.455-.909.505.185.48-.682.337-1.456-.144-.775-.034-1.473-.657-1.263zm20.099.817c-.547-1.364-1.414-1.616-1.953-1.406-.538.21-.412.926.194 1.767.606.842 1.288 1.684 1.641 1.49.354-.193.64-.496.118-1.851zm-3.232-.497c-.412-1.17-1.153-1.902-1.582-1.734-.43.168-.396 1.069.143 2.155.538 1.086 1.186 1.826 1.473 1.683.286-.143.378-.942-.034-2.104zm-2.256.37c-.286-1.06-1.001-2.053-1.607-1.877-.606.177-.202.539-.547.842-.345.303-.413-.985-.648-1.54-.236-.556-.682.32-.682.32-.438.294-.522-1.608-1.086-.842-.564.766-.067 1.439.951 3.543 1.019 2.105 2.138 3.67 2.525 3.451.387-.219-.168-2.213.244-1.843 1.204 1.128 1.128-.993.85-2.054zm7.112 22.027c-.395.177-.176 1.481-.176 1.481 0 1.414-.573-.614-1.052.059-.48.673.067 2.256.117 2.727.051.471-.639-.556-.791.177-.151.732-.345 3.366.236 3.366s1.734-2.786 1.776-1.969c.042.816.16 1.229.732 1.035.572-.193.421-2.34.623-1.986.48 1.506 2.197 2.76 2.18 1.683a6.852 6.852 0 00-1.179-3.636c-.723-.959-2.078-3.122-2.466-2.937zm-3.871 6.371c-.084-.707-.421-.454-.791-.227-.371.227.437-.842 0-.993-.438-.152-1.254.505-1.297 1.203-.042.699-.732 1.852.245 1.263.976-.589.841 1.961 1.245 1.178a4.408 4.408 0 00.598-2.424zm-7.213-2.904c-.489-.218-1.153.287-1.532 1.137-.379.85-.53 1.59 0 1.91.53.32 1.178-.362 1.506-1.195.329-.833.505-1.641.026-1.852zm-2.138-2.289c-.522-.32-1.069.194-1.684 1.128-.614.934-1.102 1.86-.892 2.18.211.32 1.086-.934 1.339-.606.252.328-.144.917.252 1.229.396.311.842-.547 1.305-1.818.463-1.271.202-1.793-.32-2.113zm-7.398 10.925c-.792.581.715-1.902.143-2.205-.573-.303-1.078.841-1.835 1.683-.758.842-.749 1.49-.606 1.869.143.378.993-.135 1.043.244.051.378-.841 1.582-.547 2.02.295.437 1.431-.918 1.793-1.818.362-.901.8-2.391.009-1.793zm-4.512 2.441c0-1.128-1.372.185-1.801.841-.429.657-.168-1.01-.244-1.54-.109-.757-1.061.286-1.397.539-.337.252.067-1.843-.623-.993a14.648 14.648 0 00-1.498 2.76c-.623 1.187-.968 3.258-.488 3.291.479.034 1.018-1.498 1.355-1.75.336-.253-.118 1.456.572 1.414.69-.042 1.557-2.197 1.566-1.524.008.674.572 1.322 1.22.455a6.48 6.48 0 001.338-3.493zm-16.235 6.683c.917-1.061-2.525.404-2.963.841a.779.779 0 00-.036.93.78.78 0 00.878.307c.909-.26 1.203-1.018 2.121-2.078zm6.16 16.168c-.648-.244-3.248 1.801-3.417 2.39-.168.59 1.591-.488 1.515.278-.075.766-.059 1.532.43 1.523.488-.008.723-.521 1.127-1.321.531-1.094.994-2.626.345-2.87zm6.65-8.863c-.514-.05-.674.505-1.414 1.776-.741 1.271-1.002 2.525-.59 2.803.413.278 2.433-2.651 2.34-1.843-.092.808.354 1.489.791 1.018.511-.436.958-.94 1.33-1.498.236-.514.32 1.481.892.842a4.827 4.827 0 001.027-2.206c.27-.993.051-1.893-.463-1.944-.513-.05-1.464 1.481-1.784 2.003-.32.522-.404-.58-.648-.732-.244-.151-.749.067-.892.488-.143.421-.118-.656-.589-.707zm6.026 1.557c-.488-.219-.892.488-1.321 1.364-.43.875-.127 1.683.252 1.683s.657-.37 1.052-1.262c.396-.893.497-1.574.017-1.785zm3.594-1.287c-.455-.068-1.044 2.247-1.254 1.624-.211-.623-.724.118-1.212.917-.488.8-.842 1.684-.446 1.894.395.211 1.481-1.027 1.742-.513.261.513.345 1.683 1.002.942.656-.74 0-1.111.53-2.525s.118-2.264-.362-2.339zm7.541 12.103c-.496-.177-.74.379-1.271 1.969-.53 1.591-.723 2.609.093 2.668.816.059.791-.58 1.38-2.095.589-1.515.312-2.366-.202-2.542zm2.407 2.095c-.521-.143-.564.556-1.077 1.616-.513 1.061-.488 2.088 0 2.214.488.126.901-.219 1.355-1.532.455-1.313.236-2.154-.278-2.298zm.632-13.727c.437-.48 0-1.229.168-2.281s.539-3.081-.295-2.222c-.833.858-.547.202-.723-.766-.177-.968-1.162 1.305-1.81 1.86-.648.556-.926 1.532-.345 1.759.581.227 1.557-.513 1.801.051.244.564.766 2.087 1.204 1.599zm3.366-1.305c-.547-.042-.841.775-.707 2.189.135 1.414 0 1.868.295 2.398.294.531.757-.429.985-.126.227.303.042.842.597.766.556-.076 1.557 1.683 1.902.842a2.565 2.565 0 000-2.197c-.303-.741-.841.842-1.026.21-.186-.631-.177-.951-.362-1.733-.185-.783-.48 0-.842.042-.623-.017-.311-2.349-.842-2.391zm5.269-12.81c-.749 0-.412 1.684-1.229 1.456-.816-.227-1.422 1.094-1.565 1.919-.143.825.118 1.524.505 1.684.387.159 1.372-1.962 1.759-1.44.387.522.219 2.104.766 2.172.547.067 1.119-1.019.842-2.567-.278-1.549-.329-3.199-1.078-3.224zm-42.933-70.144c-.396.471 0 1.077.841 1.8.842.725 1.684 1.356 2.029 1.196.345-.16-.766-1.212-.404-1.414.362-.202.884.27 1.254-.076.37-.345-.421-.934-1.616-1.548-1.195-.615-1.709-.447-2.104.042z" fill="#231F20"/><path d="M151.5 230.819c56.394 0 102.111-45.717 102.111-102.111 0-56.395-45.717-102.111-102.111-102.111-56.394 0-102.111 45.716-102.111 102.111 0 56.394 45.717 102.111 102.111 102.111z" stroke="#231F20" stroke-width="3.2" stroke-miterlimit="10"/></svg>